G04 #@! TF.GenerationSoftware,KiCad,Pcbnew,5.0.2-bee76a0~70~ubuntu18.04.1*
G04 #@! TF.CreationDate,2019-01-05T20:40:31+08:00*
G04 #@! TF.ProjectId,ruler-pcb,72756c65-722d-4706-9362-2e6b69636164,rev?*
G04 #@! TF.SameCoordinates,Original*
G04 #@! TF.FileFunction,Paste,Top*
G04 #@! TF.FilePolarity,Positive*
%FSLAX46Y46*%
G04 Gerber Fmt 4.6, Leading zero omitted, Abs format (unit mm)*
G04 Created by KiCad (PCBNEW 5.0.2-bee76a0~70~ubuntu18.04.1) date 2019年01月05日 星期六 20时40分31秒*
%MOMM*%
%LPD*%
G01*
G04 APERTURE LIST*
%ADD10R,0.300000X3.000000*%
%ADD11R,0.500000X5.000000*%
%ADD12C,0.300000*%
%ADD13C,0.100000*%
%ADD14R,5.000000X0.500000*%
%ADD15C,0.500000*%
%ADD16C,0.318000*%
%ADD17C,0.590000*%
%ADD18C,0.875000*%
%ADD19C,1.000000*%
%ADD20C,0.975000*%
%ADD21C,1.350000*%
%ADD22C,0.270000*%
%ADD23C,1.150000*%
%ADD24C,1.250000*%
%ADD25C,1.050000*%
%ADD26C,1.400000*%
%ADD27C,1.125000*%
%ADD28C,3.025000*%
%ADD29C,1.475000*%
%ADD30C,1.700000*%
%ADD31C,1.800000*%
%ADD32C,1.625000*%
%ADD33C,1.925000*%
G04 APERTURE END LIST*
D10*
G04 #@! TO.C,REF\002A\002A*
X223400000Y-27200000D03*
X218400000Y-27200000D03*
X213400000Y-27200000D03*
X208400000Y-27200000D03*
X203400000Y-27200000D03*
X198400000Y-27200000D03*
X193400000Y-27200000D03*
X188400000Y-27200000D03*
X183400000Y-27200000D03*
X178400000Y-27200000D03*
X173400000Y-27200000D03*
X168400000Y-27200000D03*
X163400000Y-27200000D03*
X158400000Y-27200000D03*
X153400000Y-27200000D03*
X148400000Y-27200000D03*
X143400000Y-27200000D03*
X138400000Y-27200000D03*
X133400000Y-27200000D03*
X128400000Y-27200000D03*
X123400000Y-27200000D03*
X118400000Y-27200000D03*
X113400000Y-27200000D03*
X108400000Y-27200000D03*
X103400000Y-27200000D03*
X98400000Y-27200000D03*
X93400000Y-27200000D03*
X88400000Y-27200000D03*
X83400000Y-27200000D03*
X78400000Y-27200000D03*
X73400000Y-27200000D03*
X68400000Y-27200000D03*
X63400000Y-27200000D03*
X58400000Y-27200000D03*
X53400000Y-27200000D03*
X48400000Y-27200000D03*
X43400000Y-27200000D03*
X38400000Y-27200000D03*
X33400000Y-27200000D03*
X222400000Y-27200000D03*
X217400000Y-27200000D03*
X212400000Y-27200000D03*
X207400000Y-27200000D03*
X202400000Y-27200000D03*
X197400000Y-27200000D03*
X192400000Y-27200000D03*
X187400000Y-27200000D03*
X182400000Y-27200000D03*
X177400000Y-27200000D03*
X172400000Y-27200000D03*
X167400000Y-27200000D03*
X162400000Y-27200000D03*
X157400000Y-27200000D03*
X152400000Y-27200000D03*
X147400000Y-27200000D03*
X142400000Y-27200000D03*
X137400000Y-27200000D03*
X132400000Y-27200000D03*
X127400000Y-27200000D03*
X122400000Y-27200000D03*
X117400000Y-27200000D03*
X112400000Y-27200000D03*
X107400000Y-27200000D03*
X102400000Y-27200000D03*
X97400000Y-27200000D03*
X92400000Y-27200000D03*
X87400000Y-27200000D03*
X82400000Y-27200000D03*
X77400000Y-27200000D03*
X72400000Y-27200000D03*
X67400000Y-27200000D03*
X62400000Y-27200000D03*
X57400000Y-27200000D03*
X52400000Y-27200000D03*
X47400000Y-27200000D03*
X42400000Y-27200000D03*
X37400000Y-27200000D03*
X32400000Y-27200000D03*
X221400000Y-27200000D03*
X216400000Y-27200000D03*
X211400000Y-27200000D03*
X206400000Y-27200000D03*
X201400000Y-27200000D03*
X196400000Y-27200000D03*
X191400000Y-27200000D03*
X186400000Y-27200000D03*
X181400000Y-27200000D03*
X176400000Y-27200000D03*
X171400000Y-27200000D03*
X166400000Y-27200000D03*
X161400000Y-27200000D03*
X156400000Y-27200000D03*
X151400000Y-27200000D03*
X146400000Y-27200000D03*
X141400000Y-27200000D03*
X136400000Y-27200000D03*
X131400000Y-27200000D03*
X126400000Y-27200000D03*
X121400000Y-27200000D03*
X116400000Y-27200000D03*
X111400000Y-27200000D03*
X106400000Y-27200000D03*
X101400000Y-27200000D03*
X96400000Y-27200000D03*
X91400000Y-27200000D03*
X86400000Y-27200000D03*
X81400000Y-27200000D03*
X76400000Y-27200000D03*
X71400000Y-27200000D03*
X66400000Y-27200000D03*
X61400000Y-27200000D03*
X56400000Y-27200000D03*
X51400000Y-27200000D03*
X46400000Y-27200000D03*
X41400000Y-27200000D03*
X36400000Y-27200000D03*
X31400000Y-27200000D03*
X224400000Y-27200000D03*
X219400000Y-27200000D03*
X214400000Y-27200000D03*
X209400000Y-27200000D03*
X204400000Y-27200000D03*
X199400000Y-27200000D03*
X194400000Y-27200000D03*
X189400000Y-27200000D03*
X184400000Y-27200000D03*
X179400000Y-27200000D03*
X174400000Y-27200000D03*
X169400000Y-27200000D03*
X164400000Y-27200000D03*
X159400000Y-27200000D03*
X154400000Y-27200000D03*
X149400000Y-27200000D03*
X144400000Y-27200000D03*
X139400000Y-27200000D03*
X134400000Y-27200000D03*
X129400000Y-27200000D03*
X124400000Y-27200000D03*
X119400000Y-27200000D03*
X114400000Y-27200000D03*
X109400000Y-27200000D03*
X104400000Y-27200000D03*
X99400000Y-27200000D03*
X94400000Y-27200000D03*
X89400000Y-27200000D03*
X84400000Y-27200000D03*
X79400000Y-27200000D03*
X74400000Y-27200000D03*
X69400000Y-27200000D03*
X64400000Y-27200000D03*
X59400000Y-27200000D03*
X54400000Y-27200000D03*
X49400000Y-27200000D03*
X44400000Y-27200000D03*
X39400000Y-27200000D03*
X34400000Y-27200000D03*
X29400000Y-27200000D03*
X28400000Y-27200000D03*
X27400000Y-27200000D03*
X26400000Y-27200000D03*
D11*
X225400000Y-28200000D03*
X220400000Y-28200000D03*
X215400000Y-28200000D03*
X210400000Y-28200000D03*
X205400000Y-28200000D03*
X200400000Y-28200000D03*
X195400000Y-28200000D03*
X190400000Y-28200000D03*
X185400000Y-28200000D03*
X180400000Y-28200000D03*
X175400000Y-28200000D03*
X170400000Y-28200000D03*
X165400000Y-28200000D03*
X160400000Y-28200000D03*
X155400000Y-28200000D03*
X150400000Y-28200000D03*
X145400000Y-28200000D03*
X140400000Y-28200000D03*
X135400000Y-28200000D03*
X130400000Y-28200000D03*
X125400000Y-28200000D03*
X120400000Y-28200000D03*
X115400000Y-28200000D03*
X110400000Y-28200000D03*
X105400000Y-28200000D03*
X100400000Y-28200000D03*
X95400000Y-28200000D03*
X90400000Y-28200000D03*
X85400000Y-28200000D03*
X80400000Y-28200000D03*
X75400000Y-28200000D03*
X70400000Y-28200000D03*
X65400000Y-28200000D03*
X60400000Y-28200000D03*
X55400000Y-28200000D03*
X50400000Y-28200000D03*
X45400000Y-28200000D03*
X40400000Y-28200000D03*
X35400000Y-28200000D03*
X30400000Y-28200000D03*
X25400000Y-28200000D03*
G04 #@! TD*
G04 #@! TO.C,REF\002A\002A*
X25400000Y-28200000D03*
X30400000Y-28200000D03*
X35400000Y-28200000D03*
X40400000Y-28200000D03*
X45400000Y-28200000D03*
X50400000Y-28200000D03*
X55400000Y-28200000D03*
X60400000Y-28200000D03*
X65400000Y-28200000D03*
X70400000Y-28200000D03*
X75400000Y-28200000D03*
X80400000Y-28200000D03*
X85400000Y-28200000D03*
X90400000Y-28200000D03*
X95400000Y-28200000D03*
X100400000Y-28200000D03*
X105400000Y-28200000D03*
X110400000Y-28200000D03*
X115400000Y-28200000D03*
X120400000Y-28200000D03*
X125400000Y-28200000D03*
X130400000Y-28200000D03*
X135400000Y-28200000D03*
X140400000Y-28200000D03*
X145400000Y-28200000D03*
X150400000Y-28200000D03*
X155400000Y-28200000D03*
X160400000Y-28200000D03*
X165400000Y-28200000D03*
X170400000Y-28200000D03*
X175400000Y-28200000D03*
X180400000Y-28200000D03*
X185400000Y-28200000D03*
X190400000Y-28200000D03*
X195400000Y-28200000D03*
X200400000Y-28200000D03*
X205400000Y-28200000D03*
X210400000Y-28200000D03*
X215400000Y-28200000D03*
X220400000Y-28200000D03*
X225400000Y-28200000D03*
D10*
X26400000Y-27200000D03*
X27400000Y-27200000D03*
X28400000Y-27200000D03*
X29400000Y-27200000D03*
X34400000Y-27200000D03*
X39400000Y-27200000D03*
X44400000Y-27200000D03*
X49400000Y-27200000D03*
X54400000Y-27200000D03*
X59400000Y-27200000D03*
X64400000Y-27200000D03*
X69400000Y-27200000D03*
X74400000Y-27200000D03*
X79400000Y-27200000D03*
X84400000Y-27200000D03*
X89400000Y-27200000D03*
X94400000Y-27200000D03*
X99400000Y-27200000D03*
X104400000Y-27200000D03*
X109400000Y-27200000D03*
X114400000Y-27200000D03*
X119400000Y-27200000D03*
X124400000Y-27200000D03*
X129400000Y-27200000D03*
X134400000Y-27200000D03*
X139400000Y-27200000D03*
X144400000Y-27200000D03*
X149400000Y-27200000D03*
X154400000Y-27200000D03*
X159400000Y-27200000D03*
X164400000Y-27200000D03*
X169400000Y-27200000D03*
X174400000Y-27200000D03*
X179400000Y-27200000D03*
X184400000Y-27200000D03*
X189400000Y-27200000D03*
X194400000Y-27200000D03*
X199400000Y-27200000D03*
X204400000Y-27200000D03*
X209400000Y-27200000D03*
X214400000Y-27200000D03*
X219400000Y-27200000D03*
X224400000Y-27200000D03*
X31400000Y-27200000D03*
X36400000Y-27200000D03*
X41400000Y-27200000D03*
X46400000Y-27200000D03*
X51400000Y-27200000D03*
X56400000Y-27200000D03*
X61400000Y-27200000D03*
X66400000Y-27200000D03*
X71400000Y-27200000D03*
X76400000Y-27200000D03*
X81400000Y-27200000D03*
X86400000Y-27200000D03*
X91400000Y-27200000D03*
X96400000Y-27200000D03*
X101400000Y-27200000D03*
X106400000Y-27200000D03*
X111400000Y-27200000D03*
X116400000Y-27200000D03*
X121400000Y-27200000D03*
X126400000Y-27200000D03*
X131400000Y-27200000D03*
X136400000Y-27200000D03*
X141400000Y-27200000D03*
X146400000Y-27200000D03*
X151400000Y-27200000D03*
X156400000Y-27200000D03*
X161400000Y-27200000D03*
X166400000Y-27200000D03*
X171400000Y-27200000D03*
X176400000Y-27200000D03*
X181400000Y-27200000D03*
X186400000Y-27200000D03*
X191400000Y-27200000D03*
X196400000Y-27200000D03*
X201400000Y-27200000D03*
X206400000Y-27200000D03*
X211400000Y-27200000D03*
X216400000Y-27200000D03*
X221400000Y-27200000D03*
X32400000Y-27200000D03*
X37400000Y-27200000D03*
X42400000Y-27200000D03*
X47400000Y-27200000D03*
X52400000Y-27200000D03*
X57400000Y-27200000D03*
X62400000Y-27200000D03*
X67400000Y-27200000D03*
X72400000Y-27200000D03*
X77400000Y-27200000D03*
X82400000Y-27200000D03*
X87400000Y-27200000D03*
X92400000Y-27200000D03*
X97400000Y-27200000D03*
X102400000Y-27200000D03*
X107400000Y-27200000D03*
X112400000Y-27200000D03*
X117400000Y-27200000D03*
X122400000Y-27200000D03*
X127400000Y-27200000D03*
X132400000Y-27200000D03*
X137400000Y-27200000D03*
X142400000Y-27200000D03*
X147400000Y-27200000D03*
X152400000Y-27200000D03*
X157400000Y-27200000D03*
X162400000Y-27200000D03*
X167400000Y-27200000D03*
X172400000Y-27200000D03*
X177400000Y-27200000D03*
X182400000Y-27200000D03*
X187400000Y-27200000D03*
X192400000Y-27200000D03*
X197400000Y-27200000D03*
X202400000Y-27200000D03*
X207400000Y-27200000D03*
X212400000Y-27200000D03*
X217400000Y-27200000D03*
X222400000Y-27200000D03*
X33400000Y-27200000D03*
X38400000Y-27200000D03*
X43400000Y-27200000D03*
X48400000Y-27200000D03*
X53400000Y-27200000D03*
X58400000Y-27200000D03*
X63400000Y-27200000D03*
X68400000Y-27200000D03*
X73400000Y-27200000D03*
X78400000Y-27200000D03*
X83400000Y-27200000D03*
X88400000Y-27200000D03*
X93400000Y-27200000D03*
X98400000Y-27200000D03*
X103400000Y-27200000D03*
X108400000Y-27200000D03*
X113400000Y-27200000D03*
X118400000Y-27200000D03*
X123400000Y-27200000D03*
X128400000Y-27200000D03*
X133400000Y-27200000D03*
X138400000Y-27200000D03*
X143400000Y-27200000D03*
X148400000Y-27200000D03*
X153400000Y-27200000D03*
X158400000Y-27200000D03*
X163400000Y-27200000D03*
X168400000Y-27200000D03*
X173400000Y-27200000D03*
X178400000Y-27200000D03*
X183400000Y-27200000D03*
X188400000Y-27200000D03*
X193400000Y-27200000D03*
X198400000Y-27200000D03*
X203400000Y-27200000D03*
X208400000Y-27200000D03*
X213400000Y-27200000D03*
X218400000Y-27200000D03*
X223400000Y-27200000D03*
G04 #@! TD*
D12*
G04 #@! TO.C,REF\002A\002A*
X88062623Y-73530442D03*
D13*
G36*
X89565012Y-73406643D02*
X89559777Y-73706598D01*
X86560234Y-73654241D01*
X86565469Y-73354286D01*
X89565012Y-73406643D01*
X89565012Y-73406643D01*
G37*
D12*
X88746129Y-67057047D03*
D13*
G36*
X90247191Y-67196016D02*
X90189948Y-67490505D01*
X87245067Y-66918078D01*
X87302310Y-66623589D01*
X90247191Y-67196016D01*
X90247191Y-67196016D01*
G37*
D12*
X90543344Y-60800687D03*
D13*
G36*
X91997470Y-61198202D02*
X91889959Y-61478276D01*
X89089218Y-60403172D01*
X89196729Y-60123098D01*
X91997470Y-61198202D01*
X91997470Y-61198202D01*
G37*
D12*
X93399662Y-54951458D03*
D13*
G36*
X94762669Y-55595440D02*
X94608157Y-55852590D01*
X92036655Y-54307476D01*
X92191167Y-54050326D01*
X94762669Y-55595440D01*
X94762669Y-55595440D01*
G37*
D12*
X97228293Y-49687086D03*
D13*
G36*
X98458766Y-50557968D02*
X98261949Y-50784381D01*
X95997820Y-48816204D01*
X96194637Y-48589791D01*
X98458766Y-50557968D01*
X98458766Y-50557968D01*
G37*
D12*
X101912907Y-45167526D03*
D13*
G36*
X102973459Y-46238847D02*
X102740316Y-46427643D01*
X100852355Y-44096205D01*
X101085498Y-43907409D01*
X102973459Y-46238847D01*
X102973459Y-46238847D01*
G37*
D12*
X107311165Y-41530104D03*
D13*
G36*
X108169572Y-42769312D02*
X107907186Y-42914755D01*
X106452758Y-40290896D01*
X106715144Y-40145453D01*
X108169572Y-42769312D01*
X108169572Y-42769312D01*
G37*
D12*
X113259043Y-38885340D03*
D13*
G36*
X113889223Y-40254783D02*
X113605567Y-40352453D01*
X112628863Y-37515897D01*
X112912519Y-37418227D01*
X113889223Y-40254783D01*
X113889223Y-40254783D01*
G37*
D12*
X119575818Y-37313594D03*
D13*
G36*
X119958623Y-38771661D02*
X119662316Y-38818592D01*
X119193013Y-35855527D01*
X119489320Y-35808596D01*
X119958623Y-38771661D01*
X119958623Y-38771661D01*
G37*
D12*
X126069558Y-36862623D03*
D13*
G36*
X126193357Y-38365012D02*
X125893402Y-38359777D01*
X125945759Y-35360234D01*
X126245714Y-35365469D01*
X126193357Y-38365012D01*
X126193357Y-38365012D01*
G37*
D12*
X132542953Y-37546129D03*
D13*
G36*
X132403984Y-39047191D02*
X132109495Y-38989948D01*
X132681922Y-36045067D01*
X132976411Y-36102310D01*
X132403984Y-39047191D01*
X132403984Y-39047191D01*
G37*
D12*
X138799313Y-39343344D03*
D13*
G36*
X138401798Y-40797470D02*
X138121724Y-40689959D01*
X139196828Y-37889218D01*
X139476902Y-37996729D01*
X138401798Y-40797470D01*
X138401798Y-40797470D01*
G37*
D12*
X144648542Y-42199662D03*
D13*
G36*
X144004560Y-43562669D02*
X143747410Y-43408157D01*
X145292524Y-40836655D01*
X145549674Y-40991167D01*
X144004560Y-43562669D01*
X144004560Y-43562669D01*
G37*
D12*
X149912914Y-46028293D03*
D13*
G36*
X149042032Y-47258766D02*
X148815619Y-47061949D01*
X150783796Y-44797820D01*
X151010209Y-44994637D01*
X149042032Y-47258766D01*
X149042032Y-47258766D01*
G37*
D12*
X154432474Y-50712907D03*
D13*
G36*
X153361153Y-51773459D02*
X153172357Y-51540316D01*
X155503795Y-49652355D01*
X155692591Y-49885498D01*
X153361153Y-51773459D01*
X153361153Y-51773459D01*
G37*
D12*
X158069896Y-56111165D03*
D13*
G36*
X156830688Y-56969572D02*
X156685245Y-56707186D01*
X159309104Y-55252758D01*
X159454547Y-55515144D01*
X156830688Y-56969572D01*
X156830688Y-56969572D01*
G37*
D12*
X160714660Y-62059043D03*
D13*
G36*
X159345217Y-62689223D02*
X159247547Y-62405567D01*
X162084103Y-61428863D01*
X162181773Y-61712519D01*
X159345217Y-62689223D01*
X159345217Y-62689223D01*
G37*
D12*
X88200281Y-70927550D03*
D13*
G36*
X89707646Y-70908854D02*
X89681500Y-71207713D01*
X86692916Y-70946246D01*
X86719062Y-70647387D01*
X89707646Y-70908854D01*
X89707646Y-70908854D01*
G37*
D12*
X89333683Y-64517602D03*
D13*
G36*
X90821395Y-64760942D02*
X90743749Y-65050719D01*
X87845971Y-64274262D01*
X87923617Y-63984485D01*
X90821395Y-64760942D01*
X90821395Y-64760942D01*
G37*
D12*
X91562942Y-58401849D03*
D13*
G36*
X92985796Y-58899830D02*
X92859011Y-59171723D01*
X90140088Y-57903868D01*
X90266873Y-57631975D01*
X92985796Y-58899830D01*
X92985796Y-58899830D01*
G37*
D12*
X94820323Y-52766115D03*
D13*
G36*
X96135088Y-53503607D02*
X95963015Y-53749352D01*
X93505558Y-52028623D01*
X93677631Y-51782878D01*
X96135088Y-53503607D01*
X96135088Y-53503607D01*
G37*
D12*
X99006852Y-47781639D03*
D13*
G36*
X100173578Y-48736233D02*
X99961446Y-48948365D01*
X97840126Y-46827045D01*
X98052258Y-46614913D01*
X100173578Y-48736233D01*
X100173578Y-48736233D01*
G37*
D12*
X103995324Y-43599871D03*
D13*
G36*
X104978561Y-44742563D02*
X104732816Y-44914636D01*
X103012087Y-42457179D01*
X103257832Y-42285106D01*
X104978561Y-44742563D01*
X104978561Y-44742563D01*
G37*
D12*
X109634165Y-40347873D03*
D13*
G36*
X110404039Y-41643942D02*
X110132146Y-41770727D01*
X108864291Y-39051804D01*
X109136184Y-38925019D01*
X110404039Y-41643942D01*
X110404039Y-41643942D01*
G37*
D12*
X115752044Y-38124454D03*
D13*
G36*
X116285161Y-39534520D02*
X115995384Y-39612166D01*
X115218927Y-36714388D01*
X115508704Y-36636742D01*
X116285161Y-39534520D01*
X116285161Y-39534520D01*
G37*
D12*
X122163071Y-36997173D03*
D13*
G36*
X122443234Y-38478392D02*
X122144375Y-38504538D01*
X121882908Y-35515954D01*
X122181767Y-35489808D01*
X122443234Y-38478392D01*
X122443234Y-38478392D01*
G37*
D12*
X128672450Y-37000281D03*
D13*
G36*
X128691146Y-38507646D02*
X128392287Y-38481500D01*
X128653754Y-35492916D01*
X128952613Y-35519062D01*
X128691146Y-38507646D01*
X128691146Y-38507646D01*
G37*
D12*
X135082398Y-38133683D03*
D13*
G36*
X134839058Y-39621395D02*
X134549281Y-39543749D01*
X135325738Y-36645971D01*
X135615515Y-36723617D01*
X134839058Y-39621395D01*
X134839058Y-39621395D01*
G37*
D12*
X141198151Y-40362942D03*
D13*
G36*
X140700170Y-41785796D02*
X140428277Y-41659011D01*
X141696132Y-38940088D01*
X141968025Y-39066873D01*
X140700170Y-41785796D01*
X140700170Y-41785796D01*
G37*
D12*
X146833885Y-43620323D03*
D13*
G36*
X146096393Y-44935088D02*
X145850648Y-44763015D01*
X147571377Y-42305558D01*
X147817122Y-42477631D01*
X146096393Y-44935088D01*
X146096393Y-44935088D01*
G37*
D12*
X151818361Y-47806852D03*
D13*
G36*
X150863767Y-48973578D02*
X150651635Y-48761446D01*
X152772955Y-46640126D01*
X152985087Y-46852258D01*
X150863767Y-48973578D01*
X150863767Y-48973578D01*
G37*
D12*
X156000129Y-52795324D03*
D13*
G36*
X154857437Y-53778561D02*
X154685364Y-53532816D01*
X157142821Y-51812087D01*
X157314894Y-52057832D01*
X154857437Y-53778561D01*
X154857437Y-53778561D01*
G37*
D12*
X159252127Y-58434165D03*
D13*
G36*
X157956058Y-59204039D02*
X157829273Y-58932146D01*
X160548196Y-57664291D01*
X160674981Y-57936184D01*
X157956058Y-59204039D01*
X157956058Y-59204039D01*
G37*
D12*
X161475546Y-64552044D03*
D13*
G36*
X160065480Y-65085161D02*
X159987834Y-64795384D01*
X162885612Y-64018927D01*
X162963258Y-64308704D01*
X160065480Y-65085161D01*
X160065480Y-65085161D01*
G37*
D12*
X88422528Y-68985151D03*
D13*
G36*
X89928806Y-69045370D02*
X89887054Y-69342451D01*
X86916250Y-68924932D01*
X86958002Y-68627851D01*
X89928806Y-69045370D01*
X89928806Y-69045370D01*
G37*
D12*
X89889848Y-62643306D03*
D13*
G36*
X91362785Y-62964173D02*
X91270080Y-63249490D01*
X88416911Y-62322439D01*
X88509616Y-62037122D01*
X91362785Y-62964173D01*
X91362785Y-62964173D01*
G37*
D12*
X92436126Y-56652605D03*
D13*
G36*
X93830968Y-57224370D02*
X93690127Y-57489254D01*
X91041284Y-56080840D01*
X91182125Y-55815956D01*
X93830968Y-57224370D01*
X93830968Y-57224370D01*
G37*
D12*
X95983994Y-51195072D03*
D13*
G36*
X97258359Y-52000363D02*
X97073661Y-52236766D01*
X94709629Y-50389781D01*
X94894327Y-50153378D01*
X97258359Y-52000363D01*
X97258359Y-52000363D01*
G37*
D12*
X100425653Y-46436533D03*
D13*
G36*
X101540821Y-47450881D02*
X101317877Y-47651620D01*
X99310485Y-45422185D01*
X99533429Y-45221446D01*
X101540821Y-47450881D01*
X101540821Y-47450881D01*
G37*
D12*
X105626145Y-42521573D03*
D13*
G36*
X106548231Y-43714157D02*
X106293817Y-43873133D01*
X104704059Y-41328989D01*
X104958473Y-41170013D01*
X106548231Y-43714157D01*
X106548231Y-43714157D01*
G37*
D12*
X111427456Y-39569146D03*
D13*
G36*
X112128443Y-40903731D02*
X111850288Y-41016113D01*
X110726469Y-38234561D01*
X111004624Y-38122179D01*
X112128443Y-40903731D01*
X112128443Y-40903731D01*
G37*
D12*
X117653315Y-37668959D03*
D13*
G36*
X118111905Y-39104994D02*
X117818460Y-39167367D01*
X117194725Y-36232924D01*
X117488170Y-36170551D01*
X118111905Y-39104994D01*
X118111905Y-39104994D01*
G37*
D12*
X124114553Y-36878750D03*
D13*
G36*
X124316811Y-38372601D02*
X124016994Y-38383071D01*
X123912295Y-35384899D01*
X124212112Y-35374429D01*
X124316811Y-38372601D01*
X124316811Y-38372601D01*
G37*
D12*
X130614849Y-37222528D03*
D13*
G36*
X130554630Y-38728806D02*
X130257549Y-38687054D01*
X130675068Y-35716250D01*
X130972149Y-35758002D01*
X130554630Y-38728806D01*
X130554630Y-38728806D01*
G37*
D12*
X136956694Y-38689848D03*
D13*
G36*
X136635827Y-40162785D02*
X136350510Y-40070080D01*
X137277561Y-37216911D01*
X137562878Y-37309616D01*
X136635827Y-40162785D01*
X136635827Y-40162785D01*
G37*
D12*
X142947395Y-41236126D03*
D13*
G36*
X142375630Y-42630968D02*
X142110746Y-42490127D01*
X143519160Y-39841284D01*
X143784044Y-39982125D01*
X142375630Y-42630968D01*
X142375630Y-42630968D01*
G37*
D12*
X148404928Y-44783994D03*
D13*
G36*
X147599637Y-46058359D02*
X147363234Y-45873661D01*
X149210219Y-43509629D01*
X149446622Y-43694327D01*
X147599637Y-46058359D01*
X147599637Y-46058359D01*
G37*
D12*
X153163467Y-49225653D03*
D13*
G36*
X152149119Y-50340821D02*
X151948380Y-50117877D01*
X154177815Y-48110485D01*
X154378554Y-48333429D01*
X152149119Y-50340821D01*
X152149119Y-50340821D01*
G37*
D12*
X157078427Y-54426145D03*
D13*
G36*
X155885843Y-55348231D02*
X155726867Y-55093817D01*
X158271011Y-53504059D01*
X158429987Y-53758473D01*
X155885843Y-55348231D01*
X155885843Y-55348231D01*
G37*
D12*
X160030854Y-60227456D03*
D13*
G36*
X158696269Y-60928443D02*
X158583887Y-60650288D01*
X161365439Y-59526469D01*
X161477821Y-59804624D01*
X158696269Y-60928443D01*
X158696269Y-60928443D01*
G37*
D12*
X161931041Y-66453315D03*
D13*
G36*
X160495006Y-66911905D02*
X160432633Y-66618460D01*
X163367076Y-65994725D01*
X163429449Y-66288170D01*
X160495006Y-66911905D01*
X160495006Y-66911905D01*
G37*
D12*
X88519171Y-68340600D03*
D13*
G36*
X90024169Y-68427098D02*
X89977238Y-68723405D01*
X87014173Y-68254102D01*
X87061104Y-67957795D01*
X90024169Y-68427098D01*
X90024169Y-68427098D01*
G37*
D12*
X90096948Y-62025329D03*
D13*
G36*
X91564061Y-62371853D02*
X91466391Y-62655509D01*
X88629835Y-61678805D01*
X88727505Y-61395149D01*
X91564061Y-62371853D01*
X91564061Y-62371853D01*
G37*
D12*
X92747390Y-56079979D03*
D13*
G36*
X94132041Y-56676000D02*
X93986598Y-56938386D01*
X91362739Y-55483958D01*
X91508182Y-55221572D01*
X94132041Y-56676000D01*
X94132041Y-56676000D01*
G37*
D12*
X96389966Y-50685196D03*
D13*
G36*
X97650083Y-51512605D02*
X97461287Y-51745748D01*
X95129849Y-49857787D01*
X95318645Y-49624644D01*
X97650083Y-51512605D01*
X97650083Y-51512605D01*
G37*
D12*
X100913996Y-46004900D03*
D13*
G36*
X102011291Y-47038556D02*
X101784878Y-47235373D01*
X99816701Y-44971244D01*
X100043114Y-44774427D01*
X102011291Y-47038556D01*
X102011291Y-47038556D01*
G37*
D12*
X106182021Y-42181296D03*
D13*
G36*
X107083153Y-43389791D02*
X106826003Y-43544303D01*
X105280889Y-40972801D01*
X105538039Y-40818289D01*
X107083153Y-43389791D01*
X107083153Y-43389791D01*
G37*
D12*
X112033975Y-39330566D03*
D13*
G36*
X112711564Y-40677181D02*
X112431490Y-40784692D01*
X111356386Y-37983951D01*
X111636460Y-37876440D01*
X112711564Y-40677181D01*
X112711564Y-40677181D01*
G37*
D12*
X118292049Y-37539325D03*
D13*
G36*
X118725507Y-38983144D02*
X118431018Y-39040387D01*
X117858591Y-36095506D01*
X118153080Y-36038263D01*
X118725507Y-38983144D01*
X118725507Y-38983144D01*
G37*
D12*
X124766094Y-36862000D03*
D13*
G36*
X124942250Y-38359154D02*
X124642295Y-38364389D01*
X124589938Y-35364846D01*
X124889893Y-35359611D01*
X124942250Y-38359154D01*
X124942250Y-38359154D01*
G37*
D12*
X131259400Y-37319171D03*
D13*
G36*
X131172902Y-38824169D02*
X130876595Y-38777238D01*
X131345898Y-35814173D01*
X131642205Y-35861104D01*
X131172902Y-38824169D01*
X131172902Y-38824169D01*
G37*
D12*
X137574671Y-38896948D03*
D13*
G36*
X137228147Y-40364061D02*
X136944491Y-40266391D01*
X137921195Y-37429835D01*
X138204851Y-37527505D01*
X137228147Y-40364061D01*
X137228147Y-40364061D01*
G37*
D12*
X143520021Y-41547390D03*
D13*
G36*
X142924000Y-42932041D02*
X142661614Y-42786598D01*
X144116042Y-40162739D01*
X144378428Y-40308182D01*
X142924000Y-42932041D01*
X142924000Y-42932041D01*
G37*
D12*
X148914804Y-45189966D03*
D13*
G36*
X148087395Y-46450083D02*
X147854252Y-46261287D01*
X149742213Y-43929849D01*
X149975356Y-44118645D01*
X148087395Y-46450083D01*
X148087395Y-46450083D01*
G37*
D12*
X153595100Y-49713996D03*
D13*
G36*
X152561444Y-50811291D02*
X152364627Y-50584878D01*
X154628756Y-48616701D01*
X154825573Y-48843114D01*
X152561444Y-50811291D01*
X152561444Y-50811291D01*
G37*
D12*
X157418704Y-54982021D03*
D13*
G36*
X156210209Y-55883153D02*
X156055697Y-55626003D01*
X158627199Y-54080889D01*
X158781711Y-54338039D01*
X156210209Y-55883153D01*
X156210209Y-55883153D01*
G37*
D12*
X160269434Y-60833975D03*
D13*
G36*
X158922819Y-61511564D02*
X158815308Y-61231490D01*
X161616049Y-60156386D01*
X161723560Y-60436460D01*
X158922819Y-61511564D01*
X158922819Y-61511564D01*
G37*
D12*
X162060675Y-67092049D03*
D13*
G36*
X160616856Y-67525507D02*
X160559613Y-67231018D01*
X163504494Y-66658591D01*
X163561737Y-66953080D01*
X160616856Y-67525507D01*
X160616856Y-67525507D01*
G37*
D12*
X88337148Y-69631291D03*
D13*
G36*
X89844248Y-69665213D02*
X89807687Y-69962977D01*
X86830048Y-69597369D01*
X86866609Y-69299605D01*
X89844248Y-69665213D01*
X89844248Y-69665213D01*
G37*
D12*
X89693564Y-63264804D03*
D13*
G36*
X91171877Y-63559916D02*
X91084165Y-63846807D01*
X88215251Y-62969692D01*
X88302963Y-62682801D01*
X91171877Y-63559916D01*
X91171877Y-63559916D01*
G37*
D12*
X92134902Y-57230576D03*
D13*
G36*
X93539510Y-57777911D02*
X93403313Y-58045213D01*
X90730294Y-56683241D01*
X90866491Y-56415939D01*
X93539510Y-57777911D01*
X93539510Y-57777911D01*
G37*
D12*
X95586983Y-51711956D03*
D13*
G36*
X96875209Y-52494883D02*
X96694664Y-52734474D01*
X94298757Y-50929029D01*
X94479302Y-50689438D01*
X96875209Y-52494883D01*
X96875209Y-52494883D01*
G37*
D12*
X99944917Y-46876624D03*
D13*
G36*
X101077618Y-47871355D02*
X100858211Y-48075954D01*
X98812216Y-45881893D01*
X99031623Y-45677294D01*
X101077618Y-47871355D01*
X101077618Y-47871355D01*
G37*
D12*
X105076292Y-42871499D03*
D13*
G36*
X106019051Y-44047809D02*
X105767450Y-44211201D01*
X104133533Y-41695189D01*
X104385134Y-41531797D01*
X106019051Y-44047809D01*
X106019051Y-44047809D01*
G37*
D12*
X110825192Y-39818274D03*
D13*
G36*
X111549364Y-41140422D02*
X111273213Y-41257641D01*
X110101020Y-38496126D01*
X110377171Y-38378907D01*
X111549364Y-41140422D01*
X111549364Y-41140422D01*
G37*
D12*
X117016940Y-37809721D03*
D13*
G36*
X117500522Y-39237533D02*
X117208211Y-39305019D01*
X116533358Y-36381909D01*
X116825669Y-36314423D01*
X117500522Y-39237533D01*
X117500522Y-39237533D01*
G37*
D12*
X123463403Y-36906868D03*
D13*
G36*
X123691701Y-38396962D02*
X123392113Y-38412663D01*
X123235105Y-35416774D01*
X123534693Y-35401073D01*
X123691701Y-38396962D01*
X123691701Y-38396962D01*
G37*
D12*
X129968709Y-37137148D03*
D13*
G36*
X129934787Y-38644248D02*
X129637023Y-38607687D01*
X130002631Y-35630048D01*
X130300395Y-35666609D01*
X129934787Y-38644248D01*
X129934787Y-38644248D01*
G37*
D12*
X136335196Y-38493564D03*
D13*
G36*
X136040084Y-39971877D02*
X135753193Y-39884165D01*
X136630308Y-37015251D01*
X136917199Y-37102963D01*
X136040084Y-39971877D01*
X136040084Y-39971877D01*
G37*
D12*
X142369424Y-40934902D03*
D13*
G36*
X141822089Y-42339510D02*
X141554787Y-42203313D01*
X142916759Y-39530294D01*
X143184061Y-39666491D01*
X141822089Y-42339510D01*
X141822089Y-42339510D01*
G37*
D12*
X147888044Y-44386983D03*
D13*
G36*
X147105117Y-45675209D02*
X146865526Y-45494664D01*
X148670971Y-43098757D01*
X148910562Y-43279302D01*
X147105117Y-45675209D01*
X147105117Y-45675209D01*
G37*
D12*
X152723376Y-48744917D03*
D13*
G36*
X151728645Y-49877618D02*
X151524046Y-49658211D01*
X153718107Y-47612216D01*
X153922706Y-47831623D01*
X151728645Y-49877618D01*
X151728645Y-49877618D01*
G37*
D12*
X156728501Y-53876292D03*
D13*
G36*
X155552191Y-54819051D02*
X155388799Y-54567450D01*
X157904811Y-52933533D01*
X158068203Y-53185134D01*
X155552191Y-54819051D01*
X155552191Y-54819051D01*
G37*
D12*
X159781726Y-59625192D03*
D13*
G36*
X158459578Y-60349364D02*
X158342359Y-60073213D01*
X161103874Y-58901020D01*
X161221093Y-59177171D01*
X158459578Y-60349364D01*
X158459578Y-60349364D01*
G37*
D12*
X161790279Y-65816940D03*
D13*
G36*
X160362467Y-66300522D02*
X160294981Y-66008211D01*
X163218091Y-65333358D01*
X163285577Y-65625669D01*
X160362467Y-66300522D01*
X160362467Y-66300522D01*
G37*
D12*
X88263059Y-70278823D03*
D13*
G36*
X89770521Y-70286437D02*
X89739163Y-70584794D01*
X86755597Y-70271209D01*
X86786955Y-69972852D01*
X89770521Y-70286437D01*
X89770521Y-70286437D01*
G37*
D12*
X89508157Y-63889633D03*
D13*
G36*
X90991395Y-64158900D02*
X90908704Y-64447278D01*
X88024919Y-63620366D01*
X88107610Y-63331988D01*
X90991395Y-64158900D01*
X90991395Y-64158900D01*
G37*
D12*
X91843812Y-57813717D03*
D13*
G36*
X93257759Y-58336455D02*
X93126247Y-58606093D01*
X90429865Y-57290979D01*
X90561377Y-57021341D01*
X93257759Y-58336455D01*
X93257759Y-58336455D01*
G37*
D12*
X95199054Y-52235691D03*
D13*
G36*
X96500747Y-52996016D02*
X96324412Y-53238721D01*
X93897361Y-51475366D01*
X94073696Y-51232661D01*
X96500747Y-52996016D01*
X96500747Y-52996016D01*
G37*
D12*
X99471936Y-47325039D03*
D13*
G36*
X100621825Y-48299850D02*
X100406023Y-48508247D01*
X98322047Y-46350228D01*
X98537849Y-46141831D01*
X100621825Y-48299850D01*
X100621825Y-48299850D01*
G37*
D12*
X104532630Y-43230969D03*
D13*
G36*
X105495775Y-44390646D02*
X105247064Y-44558404D01*
X103569485Y-42071292D01*
X103818196Y-41903534D01*
X105495775Y-44390646D01*
X105495775Y-44390646D01*
G37*
D12*
X110227368Y-40077877D03*
D13*
G36*
X110974505Y-41387185D02*
X110700441Y-41509206D01*
X109480231Y-38768569D01*
X109754295Y-38646548D01*
X110974505Y-41387185D01*
X110974505Y-41387185D01*
G37*
D12*
X116383119Y-37961569D03*
D13*
G36*
X116891546Y-39380724D02*
X116600457Y-39453301D01*
X115874692Y-36542414D01*
X116165781Y-36469837D01*
X116891546Y-39380724D01*
X116891546Y-39380724D01*
G37*
D12*
X122812843Y-36946347D03*
D13*
G36*
X123067112Y-38432230D02*
X122767843Y-38453157D01*
X122558574Y-35460464D01*
X122857843Y-35439537D01*
X123067112Y-38432230D01*
X123067112Y-38432230D01*
G37*
D12*
X129321177Y-37063059D03*
D13*
G36*
X129313563Y-38570521D02*
X129015206Y-38539163D01*
X129328791Y-35555597D01*
X129627148Y-35586955D01*
X129313563Y-38570521D01*
X129313563Y-38570521D01*
G37*
D12*
X135710367Y-38308157D03*
D13*
G36*
X135441100Y-39791395D02*
X135152722Y-39708704D01*
X135979634Y-36824919D01*
X136268012Y-36907610D01*
X135441100Y-39791395D01*
X135441100Y-39791395D01*
G37*
D12*
X141786283Y-40643812D03*
D13*
G36*
X141263545Y-42057759D02*
X140993907Y-41926247D01*
X142309021Y-39229865D01*
X142578659Y-39361377D01*
X141263545Y-42057759D01*
X141263545Y-42057759D01*
G37*
D12*
X147364309Y-43999054D03*
D13*
G36*
X146603984Y-45300747D02*
X146361279Y-45124412D01*
X148124634Y-42697361D01*
X148367339Y-42873696D01*
X146603984Y-45300747D01*
X146603984Y-45300747D01*
G37*
D12*
X152274961Y-48271936D03*
D13*
G36*
X151300150Y-49421825D02*
X151091753Y-49206023D01*
X153249772Y-47122047D01*
X153458169Y-47337849D01*
X151300150Y-49421825D01*
X151300150Y-49421825D01*
G37*
D12*
X156369031Y-53332630D03*
D13*
G36*
X155209354Y-54295775D02*
X155041596Y-54047064D01*
X157528708Y-52369485D01*
X157696466Y-52618196D01*
X155209354Y-54295775D01*
X155209354Y-54295775D01*
G37*
D12*
X159522123Y-59027368D03*
D13*
G36*
X158212815Y-59774505D02*
X158090794Y-59500441D01*
X160831431Y-58280231D01*
X160953452Y-58554295D01*
X158212815Y-59774505D01*
X158212815Y-59774505D01*
G37*
D12*
X161638431Y-65183119D03*
D13*
G36*
X160219276Y-65691546D02*
X160146699Y-65400457D01*
X163057586Y-64674692D01*
X163130163Y-64965781D01*
X160219276Y-65691546D01*
X160219276Y-65691546D01*
G37*
D12*
X88108735Y-72227795D03*
D13*
G36*
X89614530Y-72156505D02*
X89598829Y-72456093D01*
X86602940Y-72299085D01*
X86618641Y-71999497D01*
X89614530Y-72156505D01*
X89614530Y-72156505D01*
G37*
D12*
X89017743Y-65782197D03*
D13*
G36*
X90513041Y-65973468D02*
X90445555Y-66265779D01*
X87522445Y-65590926D01*
X87589931Y-65298615D01*
X90513041Y-65973468D01*
X90513041Y-65973468D01*
G37*
D12*
X91032207Y-59592369D03*
D13*
G36*
X92471574Y-60040390D02*
X92354355Y-60316541D01*
X89592840Y-59144348D01*
X89710059Y-58868197D01*
X92471574Y-60040390D01*
X92471574Y-60040390D01*
G37*
D12*
X94090920Y-53846387D03*
D13*
G36*
X95430622Y-54537545D02*
X95267230Y-54789146D01*
X92751218Y-53155229D01*
X92914610Y-52903628D01*
X95430622Y-54537545D01*
X95430622Y-54537545D01*
G37*
D12*
X98100943Y-48718840D03*
D13*
G36*
X99300273Y-49632134D02*
X99095674Y-49851541D01*
X96901613Y-47805546D01*
X97106212Y-47586139D01*
X99300273Y-49632134D01*
X99300273Y-49632134D01*
G37*
D12*
X102940434Y-44365524D03*
D13*
G36*
X103962952Y-45473205D02*
X103723361Y-45653750D01*
X101917916Y-43257843D01*
X102157507Y-43077298D01*
X103962952Y-45473205D01*
X103962952Y-45473205D01*
G37*
D12*
X108462347Y-40918714D03*
D13*
G36*
X109276984Y-42187125D02*
X109009682Y-42323322D01*
X107647710Y-39650303D01*
X107915012Y-39514106D01*
X109276984Y-42187125D01*
X109276984Y-42187125D01*
G37*
D12*
X114498903Y-38483139D03*
D13*
G36*
X115080906Y-39873740D02*
X114794015Y-39961452D01*
X113916900Y-37092538D01*
X114203791Y-37004826D01*
X115080906Y-39873740D01*
X115080906Y-39873740D01*
G37*
D12*
X120866683Y-37132803D03*
D13*
G36*
X121198369Y-38603342D02*
X120900605Y-38639903D01*
X120534997Y-35662264D01*
X120832761Y-35625703D01*
X121198369Y-38603342D01*
X121198369Y-38603342D01*
G37*
D12*
X127372205Y-36908735D03*
D13*
G36*
X127443495Y-38414530D02*
X127143907Y-38398829D01*
X127300915Y-35402940D01*
X127600503Y-35418641D01*
X127443495Y-38414530D01*
X127443495Y-38414530D01*
G37*
D12*
X133817803Y-37817743D03*
D13*
G36*
X133626532Y-39313041D02*
X133334221Y-39245555D01*
X134009074Y-36322445D01*
X134301385Y-36389931D01*
X133626532Y-39313041D01*
X133626532Y-39313041D01*
G37*
D12*
X140007631Y-39832207D03*
D13*
G36*
X139559610Y-41271574D02*
X139283459Y-41154355D01*
X140455652Y-38392840D01*
X140731803Y-38510059D01*
X139559610Y-41271574D01*
X139559610Y-41271574D01*
G37*
D12*
X145753613Y-42890920D03*
D13*
G36*
X145062455Y-44230622D02*
X144810854Y-44067230D01*
X146444771Y-41551218D01*
X146696372Y-41714610D01*
X145062455Y-44230622D01*
X145062455Y-44230622D01*
G37*
D12*
X150881160Y-46900943D03*
D13*
G36*
X149967866Y-48100273D02*
X149748459Y-47895674D01*
X151794454Y-45701613D01*
X152013861Y-45906212D01*
X149967866Y-48100273D01*
X149967866Y-48100273D01*
G37*
D12*
X155234476Y-51740434D03*
D13*
G36*
X154126795Y-52762952D02*
X153946250Y-52523361D01*
X156342157Y-50717916D01*
X156522702Y-50957507D01*
X154126795Y-52762952D01*
X154126795Y-52762952D01*
G37*
D12*
X158681286Y-57262347D03*
D13*
G36*
X157412875Y-58076984D02*
X157276678Y-57809682D01*
X159949697Y-56447710D01*
X160085894Y-56715012D01*
X157412875Y-58076984D01*
X157412875Y-58076984D01*
G37*
D12*
X161116861Y-63298903D03*
D13*
G36*
X159726260Y-63880906D02*
X159638548Y-63594015D01*
X162507462Y-62716900D01*
X162595174Y-63003791D01*
X159726260Y-63880906D01*
X159726260Y-63880906D01*
G37*
D12*
X88148834Y-71577273D03*
D13*
G36*
X89655644Y-71532273D02*
X89634717Y-71831542D01*
X86642024Y-71622273D01*
X86662951Y-71323004D01*
X89655644Y-71532273D01*
X89655644Y-71532273D01*
G37*
D12*
X89170195Y-65148521D03*
D13*
G36*
X90661927Y-65365859D02*
X90589350Y-65656948D01*
X87678463Y-64931183D01*
X87751040Y-64640094D01*
X90661927Y-65365859D01*
X90661927Y-65365859D01*
G37*
D12*
X91292380Y-58994793D03*
D13*
G36*
X92723709Y-59467866D02*
X92601688Y-59741930D01*
X89861051Y-58521720D01*
X89983072Y-58247656D01*
X92723709Y-59467866D01*
X92723709Y-59467866D01*
G37*
D12*
X94450907Y-53303069D03*
D13*
G36*
X95778342Y-54017503D02*
X95610584Y-54266214D01*
X93123472Y-52588635D01*
X93291230Y-52339924D01*
X95778342Y-54017503D01*
X95778342Y-54017503D01*
G37*
D12*
X98549808Y-48246286D03*
D13*
G36*
X99733016Y-49180373D02*
X99524619Y-49396175D01*
X97366600Y-47312199D01*
X97574997Y-47096397D01*
X99733016Y-49180373D01*
X99733016Y-49180373D01*
G37*
D12*
X103464538Y-43978095D03*
D13*
G36*
X104467568Y-45103453D02*
X104224863Y-45279788D01*
X102461508Y-42852737D01*
X102704213Y-42676402D01*
X104467568Y-45103453D01*
X104467568Y-45103453D01*
G37*
D12*
X109045765Y-40628180D03*
D13*
G36*
X109838141Y-41910615D02*
X109568503Y-42042127D01*
X108253389Y-39345745D01*
X108523027Y-39214233D01*
X109838141Y-41910615D01*
X109838141Y-41910615D01*
G37*
D12*
X115123908Y-38298329D03*
D13*
G36*
X115681553Y-39698876D02*
X115393175Y-39781567D01*
X114566263Y-36897782D01*
X114854641Y-36815091D01*
X115681553Y-39698876D01*
X115681553Y-39698876D01*
G37*
D12*
X121514285Y-37059331D03*
D13*
G36*
X121820256Y-38535435D02*
X121521899Y-38566793D01*
X121208314Y-35583227D01*
X121506671Y-35551869D01*
X121820256Y-38535435D01*
X121820256Y-38535435D01*
G37*
D12*
X128022727Y-36948834D03*
D13*
G36*
X128067727Y-38455644D02*
X127768458Y-38434717D01*
X127977727Y-35442024D01*
X128276996Y-35462951D01*
X128067727Y-38455644D01*
X128067727Y-38455644D01*
G37*
D12*
X134451479Y-37970195D03*
D13*
G36*
X134234141Y-39461927D02*
X133943052Y-39389350D01*
X134668817Y-36478463D01*
X134959906Y-36551040D01*
X134234141Y-39461927D01*
X134234141Y-39461927D01*
G37*
D12*
X140605207Y-40092380D03*
D13*
G36*
X140132134Y-41523709D02*
X139858070Y-41401688D01*
X141078280Y-38661051D01*
X141352344Y-38783072D01*
X140132134Y-41523709D01*
X140132134Y-41523709D01*
G37*
D12*
X146296931Y-43250907D03*
D13*
G36*
X145582497Y-44578342D02*
X145333786Y-44410584D01*
X147011365Y-41923472D01*
X147260076Y-42091230D01*
X145582497Y-44578342D01*
X145582497Y-44578342D01*
G37*
D12*
X151353714Y-47349808D03*
D13*
G36*
X150419627Y-48533016D02*
X150203825Y-48324619D01*
X152287801Y-46166600D01*
X152503603Y-46374997D01*
X150419627Y-48533016D01*
X150419627Y-48533016D01*
G37*
D12*
X155621905Y-52264538D03*
D13*
G36*
X154496547Y-53267568D02*
X154320212Y-53024863D01*
X156747263Y-51261508D01*
X156923598Y-51504213D01*
X154496547Y-53267568D01*
X154496547Y-53267568D01*
G37*
D12*
X158971820Y-57845765D03*
D13*
G36*
X157689385Y-58638141D02*
X157557873Y-58368503D01*
X160254255Y-57053389D01*
X160385767Y-57323027D01*
X157689385Y-58638141D01*
X157689385Y-58638141D01*
G37*
D12*
X161301671Y-63923908D03*
D13*
G36*
X159901124Y-64481553D02*
X159818433Y-64193175D01*
X162702218Y-63366263D01*
X162784909Y-63654641D01*
X159901124Y-64481553D01*
X159901124Y-64481553D01*
G37*
D12*
X88079994Y-72878918D03*
D13*
G36*
X89584315Y-72781359D02*
X89573845Y-73081176D01*
X86575673Y-72976477D01*
X86586143Y-72676660D01*
X89584315Y-72781359D01*
X89584315Y-72781359D01*
G37*
D12*
X88876372Y-66418437D03*
D13*
G36*
X90374780Y-66583582D02*
X90312407Y-66877027D01*
X87377964Y-66253292D01*
X87440337Y-65959847D01*
X90374780Y-66583582D01*
X90374780Y-66583582D01*
G37*
D12*
X90782502Y-60194395D03*
D13*
G36*
X92229469Y-60617227D02*
X92117087Y-60895382D01*
X89335535Y-59771563D01*
X89447917Y-59493408D01*
X92229469Y-60617227D01*
X92229469Y-60617227D01*
G37*
D12*
X93740468Y-54395906D03*
D13*
G36*
X95092028Y-55063578D02*
X94933052Y-55317992D01*
X92388908Y-53728234D01*
X92547884Y-53473820D01*
X95092028Y-55063578D01*
X95092028Y-55063578D01*
G37*
D12*
X97660392Y-49199155D03*
D13*
G36*
X98875479Y-50091379D02*
X98674740Y-50314323D01*
X96445305Y-48306931D01*
X96646044Y-48083987D01*
X98875479Y-50091379D01*
X98875479Y-50091379D01*
G37*
D12*
X102423170Y-44762041D03*
D13*
G36*
X103464864Y-45851708D02*
X103228461Y-46036406D01*
X101381476Y-43672374D01*
X101617879Y-43487676D01*
X103464864Y-45851708D01*
X103464864Y-45851708D01*
G37*
D12*
X107884088Y-41219385D03*
D13*
G36*
X108720737Y-42473386D02*
X108455853Y-42614227D01*
X107047439Y-39965384D01*
X107312323Y-39824543D01*
X108720737Y-42473386D01*
X108720737Y-42473386D01*
G37*
D12*
X113877217Y-38678829D03*
D13*
G36*
X114483401Y-40059061D02*
X114198084Y-40151766D01*
X113271033Y-37298597D01*
X113556350Y-37205892D01*
X114483401Y-40059061D01*
X114483401Y-40059061D01*
G37*
D12*
X120220461Y-37217565D03*
D13*
G36*
X120577761Y-38682091D02*
X120280680Y-38723843D01*
X119863161Y-35753039D01*
X120160242Y-35711287D01*
X120577761Y-38682091D01*
X120577761Y-38682091D01*
G37*
D12*
X126721082Y-36879994D03*
D13*
G36*
X126818641Y-38384315D02*
X126518824Y-38373845D01*
X126623523Y-35375673D01*
X126923340Y-35386143D01*
X126818641Y-38384315D01*
X126818641Y-38384315D01*
G37*
D12*
X133181563Y-37676372D03*
D13*
G36*
X133016418Y-39174780D02*
X132722973Y-39112407D01*
X133346708Y-36177964D01*
X133640153Y-36240337D01*
X133016418Y-39174780D01*
X133016418Y-39174780D01*
G37*
D12*
X139405605Y-39582502D03*
D13*
G36*
X138982773Y-41029469D02*
X138704618Y-40917087D01*
X139828437Y-38135535D01*
X140106592Y-38247917D01*
X138982773Y-41029469D01*
X138982773Y-41029469D01*
G37*
D12*
X145204094Y-42540468D03*
D13*
G36*
X144536422Y-43892028D02*
X144282008Y-43733052D01*
X145871766Y-41188908D01*
X146126180Y-41347884D01*
X144536422Y-43892028D01*
X144536422Y-43892028D01*
G37*
D12*
X150400845Y-46460392D03*
D13*
G36*
X149508621Y-47675479D02*
X149285677Y-47474740D01*
X151293069Y-45245305D01*
X151516013Y-45446044D01*
X149508621Y-47675479D01*
X149508621Y-47675479D01*
G37*
D12*
X154837959Y-51223170D03*
D13*
G36*
X153748292Y-52264864D02*
X153563594Y-52028461D01*
X155927626Y-50181476D01*
X156112324Y-50417879D01*
X153748292Y-52264864D01*
X153748292Y-52264864D01*
G37*
D12*
X158380615Y-56684088D03*
D13*
G36*
X157126614Y-57520737D02*
X156985773Y-57255853D01*
X159634616Y-55847439D01*
X159775457Y-56112323D01*
X157126614Y-57520737D01*
X157126614Y-57520737D01*
G37*
D12*
X160921171Y-62677217D03*
D13*
G36*
X159540939Y-63283401D02*
X159448234Y-62998084D01*
X162301403Y-62071033D01*
X162394108Y-62356350D01*
X159540939Y-63283401D01*
X159540939Y-63283401D01*
G37*
D12*
X162286406Y-68375818D03*
D13*
G36*
X160828339Y-68758623D02*
X160781408Y-68462316D01*
X163744473Y-67993013D01*
X163791404Y-68289320D01*
X160828339Y-68758623D01*
X160828339Y-68758623D01*
G37*
D12*
X162382435Y-69020461D03*
D13*
G36*
X160917909Y-69377761D02*
X160876157Y-69080680D01*
X163846961Y-68663161D01*
X163888713Y-68960242D01*
X160917909Y-69377761D01*
X160917909Y-69377761D01*
G37*
D12*
X162467197Y-69666683D03*
D13*
G36*
X160996658Y-69998369D02*
X160960097Y-69700605D01*
X163937736Y-69334997D01*
X163974297Y-69632761D01*
X160996658Y-69998369D01*
X160996658Y-69998369D01*
G37*
D12*
X162540669Y-70314285D03*
D13*
G36*
X161064565Y-70620256D02*
X161033207Y-70321899D01*
X164016773Y-70008314D01*
X164048131Y-70306671D01*
X161064565Y-70620256D01*
X161064565Y-70620256D01*
G37*
D12*
X162602827Y-70963071D03*
D13*
G36*
X161121608Y-71243234D02*
X161095462Y-70944375D01*
X164084046Y-70682908D01*
X164110192Y-70981767D01*
X161121608Y-71243234D01*
X161121608Y-71243234D01*
G37*
D12*
X162653653Y-71612843D03*
D13*
G36*
X161167770Y-71867112D02*
X161146843Y-71567843D01*
X164139536Y-71358574D01*
X164160463Y-71657843D01*
X161167770Y-71867112D01*
X161167770Y-71867112D01*
G37*
D12*
X162693132Y-72263403D03*
D13*
G36*
X161203038Y-72491701D02*
X161187337Y-72192113D01*
X164183226Y-72035105D01*
X164198927Y-72334693D01*
X161203038Y-72491701D01*
X161203038Y-72491701D01*
G37*
D12*
X162721250Y-72914553D03*
D13*
G36*
X161227399Y-73116811D02*
X161216929Y-72816994D01*
X164215101Y-72712295D01*
X164225571Y-73012112D01*
X161227399Y-73116811D01*
X161227399Y-73116811D01*
G37*
D12*
X162738000Y-73566094D03*
D13*
G36*
X161240846Y-73742250D02*
X161235611Y-73442295D01*
X164235154Y-73389938D01*
X164240389Y-73689893D01*
X161240846Y-73742250D01*
X161240846Y-73742250D01*
G37*
D14*
X89078000Y-74200000D03*
D15*
X89629813Y-67892751D03*
D13*
G36*
X92135244Y-68080670D02*
X92048420Y-68573073D01*
X87124382Y-67704832D01*
X87211206Y-67212429D01*
X92135244Y-68080670D01*
X92135244Y-68080670D01*
G37*
D15*
X91268485Y-61777144D03*
D13*
G36*
X93703222Y-62397271D02*
X93532212Y-62867118D01*
X88833748Y-61157017D01*
X89004758Y-60687170D01*
X93703222Y-62397271D01*
X93703222Y-62397271D01*
G37*
D15*
X93944225Y-56039000D03*
D13*
G36*
X96234289Y-57072494D02*
X95984289Y-57505506D01*
X91654161Y-55005506D01*
X91904161Y-54572494D01*
X96234289Y-57072494D01*
X96234289Y-57072494D01*
G37*
D15*
X97575734Y-50852668D03*
D13*
G36*
X99651542Y-52268126D02*
X99330148Y-52651148D01*
X95499926Y-49437210D01*
X95821320Y-49054188D01*
X99651542Y-52268126D01*
X99651542Y-52268126D01*
G37*
D15*
X102052668Y-46375734D03*
D13*
G36*
X103851148Y-48130148D02*
X103468126Y-48451542D01*
X100254188Y-44621320D01*
X100637210Y-44299926D01*
X103851148Y-48130148D01*
X103851148Y-48130148D01*
G37*
D15*
X107239000Y-42744225D03*
D13*
G36*
X108705506Y-44784289D02*
X108272494Y-45034289D01*
X105772494Y-40704161D01*
X106205506Y-40454161D01*
X108705506Y-44784289D01*
X108705506Y-44784289D01*
G37*
D15*
X112977144Y-40068485D03*
D13*
G36*
X114067118Y-42332212D02*
X113597271Y-42503222D01*
X111887170Y-37804758D01*
X112357017Y-37633748D01*
X114067118Y-42332212D01*
X114067118Y-42332212D01*
G37*
D15*
X119092751Y-38429813D03*
D13*
G36*
X119773073Y-40848420D02*
X119280670Y-40935244D01*
X118412429Y-36011206D01*
X118904832Y-35924382D01*
X119773073Y-40848420D01*
X119773073Y-40848420D01*
G37*
D11*
X125400000Y-37878000D03*
D15*
X131707249Y-38429813D03*
D13*
G36*
X131519330Y-40935244D02*
X131026927Y-40848420D01*
X131895168Y-35924382D01*
X132387571Y-36011206D01*
X131519330Y-40935244D01*
X131519330Y-40935244D01*
G37*
D15*
X137822856Y-40068485D03*
D13*
G36*
X137202729Y-42503222D02*
X136732882Y-42332212D01*
X138442983Y-37633748D01*
X138912830Y-37804758D01*
X137202729Y-42503222D01*
X137202729Y-42503222D01*
G37*
D15*
X143561000Y-42744225D03*
D13*
G36*
X142527506Y-45034289D02*
X142094494Y-44784289D01*
X144594494Y-40454161D01*
X145027506Y-40704161D01*
X142527506Y-45034289D01*
X142527506Y-45034289D01*
G37*
D15*
X148747332Y-46375734D03*
D13*
G36*
X147331874Y-48451542D02*
X146948852Y-48130148D01*
X150162790Y-44299926D01*
X150545812Y-44621320D01*
X147331874Y-48451542D01*
X147331874Y-48451542D01*
G37*
D15*
X153224266Y-50852668D03*
D13*
G36*
X151469852Y-52651148D02*
X151148458Y-52268126D01*
X154978680Y-49054188D01*
X155300074Y-49437210D01*
X151469852Y-52651148D01*
X151469852Y-52651148D01*
G37*
D15*
X156855775Y-56039000D03*
D13*
G36*
X154815711Y-57505506D02*
X154565711Y-57072494D01*
X158895839Y-54572494D01*
X159145839Y-55005506D01*
X154815711Y-57505506D01*
X154815711Y-57505506D01*
G37*
D15*
X159531515Y-61777144D03*
D13*
G36*
X157267788Y-62867118D02*
X157096778Y-62397271D01*
X161795242Y-60687170D01*
X161966252Y-61157017D01*
X157267788Y-62867118D01*
X157267788Y-62867118D01*
G37*
D15*
X161170187Y-67892751D03*
D13*
G36*
X158751580Y-68573073D02*
X158664756Y-68080670D01*
X163588794Y-67212429D01*
X163675618Y-67704832D01*
X158751580Y-68573073D01*
X158751580Y-68573073D01*
G37*
D14*
X161722000Y-74200000D03*
G04 #@! TD*
D13*
G04 #@! TO.C,0201*
G36*
X30093092Y-41456008D02*
X30100810Y-41457153D01*
X30108378Y-41459048D01*
X30115723Y-41461677D01*
X30122776Y-41465012D01*
X30129468Y-41469023D01*
X30135734Y-41473671D01*
X30141515Y-41478910D01*
X30146754Y-41484691D01*
X30151402Y-41490957D01*
X30155413Y-41497649D01*
X30158748Y-41504702D01*
X30161377Y-41512047D01*
X30163272Y-41519615D01*
X30164417Y-41527333D01*
X30164800Y-41535125D01*
X30164800Y-41736125D01*
X30164417Y-41743917D01*
X30163272Y-41751635D01*
X30161377Y-41759203D01*
X30158748Y-41766548D01*
X30155413Y-41773601D01*
X30151402Y-41780293D01*
X30146754Y-41786559D01*
X30141515Y-41792340D01*
X30135734Y-41797579D01*
X30129468Y-41802227D01*
X30122776Y-41806238D01*
X30115723Y-41809573D01*
X30108378Y-41812202D01*
X30100810Y-41814097D01*
X30093092Y-41815242D01*
X30085300Y-41815625D01*
X29926300Y-41815625D01*
X29918508Y-41815242D01*
X29910790Y-41814097D01*
X29903222Y-41812202D01*
X29895877Y-41809573D01*
X29888824Y-41806238D01*
X29882132Y-41802227D01*
X29875866Y-41797579D01*
X29870085Y-41792340D01*
X29864846Y-41786559D01*
X29860198Y-41780293D01*
X29856187Y-41773601D01*
X29852852Y-41766548D01*
X29850223Y-41759203D01*
X29848328Y-41751635D01*
X29847183Y-41743917D01*
X29846800Y-41736125D01*
X29846800Y-41535125D01*
X29847183Y-41527333D01*
X29848328Y-41519615D01*
X29850223Y-41512047D01*
X29852852Y-41504702D01*
X29856187Y-41497649D01*
X29860198Y-41490957D01*
X29864846Y-41484691D01*
X29870085Y-41478910D01*
X29875866Y-41473671D01*
X29882132Y-41469023D01*
X29888824Y-41465012D01*
X29895877Y-41461677D01*
X29903222Y-41459048D01*
X29910790Y-41457153D01*
X29918508Y-41456008D01*
X29926300Y-41455625D01*
X30085300Y-41455625D01*
X30093092Y-41456008D01*
X30093092Y-41456008D01*
G37*
D16*
X30005800Y-41635625D03*
D13*
G36*
X29403092Y-41456008D02*
X29410810Y-41457153D01*
X29418378Y-41459048D01*
X29425723Y-41461677D01*
X29432776Y-41465012D01*
X29439468Y-41469023D01*
X29445734Y-41473671D01*
X29451515Y-41478910D01*
X29456754Y-41484691D01*
X29461402Y-41490957D01*
X29465413Y-41497649D01*
X29468748Y-41504702D01*
X29471377Y-41512047D01*
X29473272Y-41519615D01*
X29474417Y-41527333D01*
X29474800Y-41535125D01*
X29474800Y-41736125D01*
X29474417Y-41743917D01*
X29473272Y-41751635D01*
X29471377Y-41759203D01*
X29468748Y-41766548D01*
X29465413Y-41773601D01*
X29461402Y-41780293D01*
X29456754Y-41786559D01*
X29451515Y-41792340D01*
X29445734Y-41797579D01*
X29439468Y-41802227D01*
X29432776Y-41806238D01*
X29425723Y-41809573D01*
X29418378Y-41812202D01*
X29410810Y-41814097D01*
X29403092Y-41815242D01*
X29395300Y-41815625D01*
X29236300Y-41815625D01*
X29228508Y-41815242D01*
X29220790Y-41814097D01*
X29213222Y-41812202D01*
X29205877Y-41809573D01*
X29198824Y-41806238D01*
X29192132Y-41802227D01*
X29185866Y-41797579D01*
X29180085Y-41792340D01*
X29174846Y-41786559D01*
X29170198Y-41780293D01*
X29166187Y-41773601D01*
X29162852Y-41766548D01*
X29160223Y-41759203D01*
X29158328Y-41751635D01*
X29157183Y-41743917D01*
X29156800Y-41736125D01*
X29156800Y-41535125D01*
X29157183Y-41527333D01*
X29158328Y-41519615D01*
X29160223Y-41512047D01*
X29162852Y-41504702D01*
X29166187Y-41497649D01*
X29170198Y-41490957D01*
X29174846Y-41484691D01*
X29180085Y-41478910D01*
X29185866Y-41473671D01*
X29192132Y-41469023D01*
X29198824Y-41465012D01*
X29205877Y-41461677D01*
X29213222Y-41459048D01*
X29220790Y-41457153D01*
X29228508Y-41456008D01*
X29236300Y-41455625D01*
X29395300Y-41455625D01*
X29403092Y-41456008D01*
X29403092Y-41456008D01*
G37*
D16*
X29315800Y-41635625D03*
G04 #@! TD*
D13*
G04 #@! TO.C,0402*
G36*
X30307758Y-44309360D02*
X30322076Y-44311484D01*
X30336117Y-44315001D01*
X30349746Y-44319878D01*
X30362831Y-44326067D01*
X30375247Y-44333508D01*
X30386873Y-44342131D01*
X30397598Y-44351852D01*
X30407319Y-44362577D01*
X30415942Y-44374203D01*
X30423383Y-44386619D01*
X30429572Y-44399704D01*
X30434449Y-44413333D01*
X30437966Y-44427374D01*
X30440090Y-44441692D01*
X30440800Y-44456150D01*
X30440800Y-44801150D01*
X30440090Y-44815608D01*
X30437966Y-44829926D01*
X30434449Y-44843967D01*
X30429572Y-44857596D01*
X30423383Y-44870681D01*
X30415942Y-44883097D01*
X30407319Y-44894723D01*
X30397598Y-44905448D01*
X30386873Y-44915169D01*
X30375247Y-44923792D01*
X30362831Y-44931233D01*
X30349746Y-44937422D01*
X30336117Y-44942299D01*
X30322076Y-44945816D01*
X30307758Y-44947940D01*
X30293300Y-44948650D01*
X29998300Y-44948650D01*
X29983842Y-44947940D01*
X29969524Y-44945816D01*
X29955483Y-44942299D01*
X29941854Y-44937422D01*
X29928769Y-44931233D01*
X29916353Y-44923792D01*
X29904727Y-44915169D01*
X29894002Y-44905448D01*
X29884281Y-44894723D01*
X29875658Y-44883097D01*
X29868217Y-44870681D01*
X29862028Y-44857596D01*
X29857151Y-44843967D01*
X29853634Y-44829926D01*
X29851510Y-44815608D01*
X29850800Y-44801150D01*
X29850800Y-44456150D01*
X29851510Y-44441692D01*
X29853634Y-44427374D01*
X29857151Y-44413333D01*
X29862028Y-44399704D01*
X29868217Y-44386619D01*
X29875658Y-44374203D01*
X29884281Y-44362577D01*
X29894002Y-44351852D01*
X29904727Y-44342131D01*
X29916353Y-44333508D01*
X29928769Y-44326067D01*
X29941854Y-44319878D01*
X29955483Y-44315001D01*
X29969524Y-44311484D01*
X29983842Y-44309360D01*
X29998300Y-44308650D01*
X30293300Y-44308650D01*
X30307758Y-44309360D01*
X30307758Y-44309360D01*
G37*
D17*
X30145800Y-44628650D03*
D13*
G36*
X29337758Y-44309360D02*
X29352076Y-44311484D01*
X29366117Y-44315001D01*
X29379746Y-44319878D01*
X29392831Y-44326067D01*
X29405247Y-44333508D01*
X29416873Y-44342131D01*
X29427598Y-44351852D01*
X29437319Y-44362577D01*
X29445942Y-44374203D01*
X29453383Y-44386619D01*
X29459572Y-44399704D01*
X29464449Y-44413333D01*
X29467966Y-44427374D01*
X29470090Y-44441692D01*
X29470800Y-44456150D01*
X29470800Y-44801150D01*
X29470090Y-44815608D01*
X29467966Y-44829926D01*
X29464449Y-44843967D01*
X29459572Y-44857596D01*
X29453383Y-44870681D01*
X29445942Y-44883097D01*
X29437319Y-44894723D01*
X29427598Y-44905448D01*
X29416873Y-44915169D01*
X29405247Y-44923792D01*
X29392831Y-44931233D01*
X29379746Y-44937422D01*
X29366117Y-44942299D01*
X29352076Y-44945816D01*
X29337758Y-44947940D01*
X29323300Y-44948650D01*
X29028300Y-44948650D01*
X29013842Y-44947940D01*
X28999524Y-44945816D01*
X28985483Y-44942299D01*
X28971854Y-44937422D01*
X28958769Y-44931233D01*
X28946353Y-44923792D01*
X28934727Y-44915169D01*
X28924002Y-44905448D01*
X28914281Y-44894723D01*
X28905658Y-44883097D01*
X28898217Y-44870681D01*
X28892028Y-44857596D01*
X28887151Y-44843967D01*
X28883634Y-44829926D01*
X28881510Y-44815608D01*
X28880800Y-44801150D01*
X28880800Y-44456150D01*
X28881510Y-44441692D01*
X28883634Y-44427374D01*
X28887151Y-44413333D01*
X28892028Y-44399704D01*
X28898217Y-44386619D01*
X28905658Y-44374203D01*
X28914281Y-44362577D01*
X28924002Y-44351852D01*
X28934727Y-44342131D01*
X28946353Y-44333508D01*
X28958769Y-44326067D01*
X28971854Y-44319878D01*
X28985483Y-44315001D01*
X28999524Y-44311484D01*
X29013842Y-44309360D01*
X29028300Y-44308650D01*
X29323300Y-44308650D01*
X29337758Y-44309360D01*
X29337758Y-44309360D01*
G37*
D17*
X29175800Y-44628650D03*
G04 #@! TD*
D13*
G04 #@! TO.C,0603*
G36*
X30688491Y-47527728D02*
X30709726Y-47530878D01*
X30730550Y-47536094D01*
X30750762Y-47543326D01*
X30770168Y-47552505D01*
X30788581Y-47563541D01*
X30805824Y-47576329D01*
X30821730Y-47590745D01*
X30836146Y-47606651D01*
X30848934Y-47623894D01*
X30859970Y-47642307D01*
X30869149Y-47661713D01*
X30876381Y-47681925D01*
X30881597Y-47702749D01*
X30884747Y-47723984D01*
X30885800Y-47745425D01*
X30885800Y-48257925D01*
X30884747Y-48279366D01*
X30881597Y-48300601D01*
X30876381Y-48321425D01*
X30869149Y-48341637D01*
X30859970Y-48361043D01*
X30848934Y-48379456D01*
X30836146Y-48396699D01*
X30821730Y-48412605D01*
X30805824Y-48427021D01*
X30788581Y-48439809D01*
X30770168Y-48450845D01*
X30750762Y-48460024D01*
X30730550Y-48467256D01*
X30709726Y-48472472D01*
X30688491Y-48475622D01*
X30667050Y-48476675D01*
X30229550Y-48476675D01*
X30208109Y-48475622D01*
X30186874Y-48472472D01*
X30166050Y-48467256D01*
X30145838Y-48460024D01*
X30126432Y-48450845D01*
X30108019Y-48439809D01*
X30090776Y-48427021D01*
X30074870Y-48412605D01*
X30060454Y-48396699D01*
X30047666Y-48379456D01*
X30036630Y-48361043D01*
X30027451Y-48341637D01*
X30020219Y-48321425D01*
X30015003Y-48300601D01*
X30011853Y-48279366D01*
X30010800Y-48257925D01*
X30010800Y-47745425D01*
X30011853Y-47723984D01*
X30015003Y-47702749D01*
X30020219Y-47681925D01*
X30027451Y-47661713D01*
X30036630Y-47642307D01*
X30047666Y-47623894D01*
X30060454Y-47606651D01*
X30074870Y-47590745D01*
X30090776Y-47576329D01*
X30108019Y-47563541D01*
X30126432Y-47552505D01*
X30145838Y-47543326D01*
X30166050Y-47536094D01*
X30186874Y-47530878D01*
X30208109Y-47527728D01*
X30229550Y-47526675D01*
X30667050Y-47526675D01*
X30688491Y-47527728D01*
X30688491Y-47527728D01*
G37*
D18*
X30448300Y-48001675D03*
D13*
G36*
X29113491Y-47527728D02*
X29134726Y-47530878D01*
X29155550Y-47536094D01*
X29175762Y-47543326D01*
X29195168Y-47552505D01*
X29213581Y-47563541D01*
X29230824Y-47576329D01*
X29246730Y-47590745D01*
X29261146Y-47606651D01*
X29273934Y-47623894D01*
X29284970Y-47642307D01*
X29294149Y-47661713D01*
X29301381Y-47681925D01*
X29306597Y-47702749D01*
X29309747Y-47723984D01*
X29310800Y-47745425D01*
X29310800Y-48257925D01*
X29309747Y-48279366D01*
X29306597Y-48300601D01*
X29301381Y-48321425D01*
X29294149Y-48341637D01*
X29284970Y-48361043D01*
X29273934Y-48379456D01*
X29261146Y-48396699D01*
X29246730Y-48412605D01*
X29230824Y-48427021D01*
X29213581Y-48439809D01*
X29195168Y-48450845D01*
X29175762Y-48460024D01*
X29155550Y-48467256D01*
X29134726Y-48472472D01*
X29113491Y-48475622D01*
X29092050Y-48476675D01*
X28654550Y-48476675D01*
X28633109Y-48475622D01*
X28611874Y-48472472D01*
X28591050Y-48467256D01*
X28570838Y-48460024D01*
X28551432Y-48450845D01*
X28533019Y-48439809D01*
X28515776Y-48427021D01*
X28499870Y-48412605D01*
X28485454Y-48396699D01*
X28472666Y-48379456D01*
X28461630Y-48361043D01*
X28452451Y-48341637D01*
X28445219Y-48321425D01*
X28440003Y-48300601D01*
X28436853Y-48279366D01*
X28435800Y-48257925D01*
X28435800Y-47745425D01*
X28436853Y-47723984D01*
X28440003Y-47702749D01*
X28445219Y-47681925D01*
X28452451Y-47661713D01*
X28461630Y-47642307D01*
X28472666Y-47623894D01*
X28485454Y-47606651D01*
X28499870Y-47590745D01*
X28515776Y-47576329D01*
X28533019Y-47563541D01*
X28551432Y-47552505D01*
X28570838Y-47543326D01*
X28591050Y-47536094D01*
X28611874Y-47530878D01*
X28633109Y-47527728D01*
X28654550Y-47526675D01*
X29092050Y-47526675D01*
X29113491Y-47527728D01*
X29113491Y-47527728D01*
G37*
D18*
X28873300Y-48001675D03*
G04 #@! TD*
D13*
G04 #@! TO.C,0612*
G36*
X62254504Y-44937004D02*
X62278773Y-44940604D01*
X62302571Y-44946565D01*
X62325671Y-44954830D01*
X62347849Y-44965320D01*
X62368893Y-44977933D01*
X62388598Y-44992547D01*
X62406777Y-45009023D01*
X62423253Y-45027202D01*
X62437867Y-45046907D01*
X62450480Y-45067951D01*
X62460970Y-45090129D01*
X62469235Y-45113229D01*
X62475196Y-45137027D01*
X62478796Y-45161296D01*
X62480000Y-45185800D01*
X62480000Y-48085800D01*
X62478796Y-48110304D01*
X62475196Y-48134573D01*
X62469235Y-48158371D01*
X62460970Y-48181471D01*
X62450480Y-48203649D01*
X62437867Y-48224693D01*
X62423253Y-48244398D01*
X62406777Y-48262577D01*
X62388598Y-48279053D01*
X62368893Y-48293667D01*
X62347849Y-48306280D01*
X62325671Y-48316770D01*
X62302571Y-48325035D01*
X62278773Y-48330996D01*
X62254504Y-48334596D01*
X62230000Y-48335800D01*
X61730000Y-48335800D01*
X61705496Y-48334596D01*
X61681227Y-48330996D01*
X61657429Y-48325035D01*
X61634329Y-48316770D01*
X61612151Y-48306280D01*
X61591107Y-48293667D01*
X61571402Y-48279053D01*
X61553223Y-48262577D01*
X61536747Y-48244398D01*
X61522133Y-48224693D01*
X61509520Y-48203649D01*
X61499030Y-48181471D01*
X61490765Y-48158371D01*
X61484804Y-48134573D01*
X61481204Y-48110304D01*
X61480000Y-48085800D01*
X61480000Y-45185800D01*
X61481204Y-45161296D01*
X61484804Y-45137027D01*
X61490765Y-45113229D01*
X61499030Y-45090129D01*
X61509520Y-45067951D01*
X61522133Y-45046907D01*
X61536747Y-45027202D01*
X61553223Y-45009023D01*
X61571402Y-44992547D01*
X61591107Y-44977933D01*
X61612151Y-44965320D01*
X61634329Y-44954830D01*
X61657429Y-44946565D01*
X61681227Y-44940604D01*
X61705496Y-44937004D01*
X61730000Y-44935800D01*
X62230000Y-44935800D01*
X62254504Y-44937004D01*
X62254504Y-44937004D01*
G37*
D19*
X61980000Y-46635800D03*
D13*
G36*
X60754504Y-44937004D02*
X60778773Y-44940604D01*
X60802571Y-44946565D01*
X60825671Y-44954830D01*
X60847849Y-44965320D01*
X60868893Y-44977933D01*
X60888598Y-44992547D01*
X60906777Y-45009023D01*
X60923253Y-45027202D01*
X60937867Y-45046907D01*
X60950480Y-45067951D01*
X60960970Y-45090129D01*
X60969235Y-45113229D01*
X60975196Y-45137027D01*
X60978796Y-45161296D01*
X60980000Y-45185800D01*
X60980000Y-48085800D01*
X60978796Y-48110304D01*
X60975196Y-48134573D01*
X60969235Y-48158371D01*
X60960970Y-48181471D01*
X60950480Y-48203649D01*
X60937867Y-48224693D01*
X60923253Y-48244398D01*
X60906777Y-48262577D01*
X60888598Y-48279053D01*
X60868893Y-48293667D01*
X60847849Y-48306280D01*
X60825671Y-48316770D01*
X60802571Y-48325035D01*
X60778773Y-48330996D01*
X60754504Y-48334596D01*
X60730000Y-48335800D01*
X60230000Y-48335800D01*
X60205496Y-48334596D01*
X60181227Y-48330996D01*
X60157429Y-48325035D01*
X60134329Y-48316770D01*
X60112151Y-48306280D01*
X60091107Y-48293667D01*
X60071402Y-48279053D01*
X60053223Y-48262577D01*
X60036747Y-48244398D01*
X60022133Y-48224693D01*
X60009520Y-48203649D01*
X59999030Y-48181471D01*
X59990765Y-48158371D01*
X59984804Y-48134573D01*
X59981204Y-48110304D01*
X59980000Y-48085800D01*
X59980000Y-45185800D01*
X59981204Y-45161296D01*
X59984804Y-45137027D01*
X59990765Y-45113229D01*
X59999030Y-45090129D01*
X60009520Y-45067951D01*
X60022133Y-45046907D01*
X60036747Y-45027202D01*
X60053223Y-45009023D01*
X60071402Y-44992547D01*
X60091107Y-44977933D01*
X60112151Y-44965320D01*
X60134329Y-44954830D01*
X60157429Y-44946565D01*
X60181227Y-44940604D01*
X60205496Y-44937004D01*
X60230000Y-44935800D01*
X60730000Y-44935800D01*
X60754504Y-44937004D01*
X60754504Y-44937004D01*
G37*
D19*
X60480000Y-46635800D03*
G04 #@! TD*
D13*
G04 #@! TO.C,0805*
G36*
X30865942Y-51155874D02*
X30889603Y-51159384D01*
X30912807Y-51165196D01*
X30935329Y-51173254D01*
X30956953Y-51183482D01*
X30977470Y-51195779D01*
X30996683Y-51210029D01*
X31014407Y-51226093D01*
X31030471Y-51243817D01*
X31044721Y-51263030D01*
X31057018Y-51283547D01*
X31067246Y-51305171D01*
X31075304Y-51327693D01*
X31081116Y-51350897D01*
X31084626Y-51374558D01*
X31085800Y-51398450D01*
X31085800Y-52310950D01*
X31084626Y-52334842D01*
X31081116Y-52358503D01*
X31075304Y-52381707D01*
X31067246Y-52404229D01*
X31057018Y-52425853D01*
X31044721Y-52446370D01*
X31030471Y-52465583D01*
X31014407Y-52483307D01*
X30996683Y-52499371D01*
X30977470Y-52513621D01*
X30956953Y-52525918D01*
X30935329Y-52536146D01*
X30912807Y-52544204D01*
X30889603Y-52550016D01*
X30865942Y-52553526D01*
X30842050Y-52554700D01*
X30354550Y-52554700D01*
X30330658Y-52553526D01*
X30306997Y-52550016D01*
X30283793Y-52544204D01*
X30261271Y-52536146D01*
X30239647Y-52525918D01*
X30219130Y-52513621D01*
X30199917Y-52499371D01*
X30182193Y-52483307D01*
X30166129Y-52465583D01*
X30151879Y-52446370D01*
X30139582Y-52425853D01*
X30129354Y-52404229D01*
X30121296Y-52381707D01*
X30115484Y-52358503D01*
X30111974Y-52334842D01*
X30110800Y-52310950D01*
X30110800Y-51398450D01*
X30111974Y-51374558D01*
X30115484Y-51350897D01*
X30121296Y-51327693D01*
X30129354Y-51305171D01*
X30139582Y-51283547D01*
X30151879Y-51263030D01*
X30166129Y-51243817D01*
X30182193Y-51226093D01*
X30199917Y-51210029D01*
X30219130Y-51195779D01*
X30239647Y-51183482D01*
X30261271Y-51173254D01*
X30283793Y-51165196D01*
X30306997Y-51159384D01*
X30330658Y-51155874D01*
X30354550Y-51154700D01*
X30842050Y-51154700D01*
X30865942Y-51155874D01*
X30865942Y-51155874D01*
G37*
D20*
X30598300Y-51854700D03*
D13*
G36*
X28990942Y-51155874D02*
X29014603Y-51159384D01*
X29037807Y-51165196D01*
X29060329Y-51173254D01*
X29081953Y-51183482D01*
X29102470Y-51195779D01*
X29121683Y-51210029D01*
X29139407Y-51226093D01*
X29155471Y-51243817D01*
X29169721Y-51263030D01*
X29182018Y-51283547D01*
X29192246Y-51305171D01*
X29200304Y-51327693D01*
X29206116Y-51350897D01*
X29209626Y-51374558D01*
X29210800Y-51398450D01*
X29210800Y-52310950D01*
X29209626Y-52334842D01*
X29206116Y-52358503D01*
X29200304Y-52381707D01*
X29192246Y-52404229D01*
X29182018Y-52425853D01*
X29169721Y-52446370D01*
X29155471Y-52465583D01*
X29139407Y-52483307D01*
X29121683Y-52499371D01*
X29102470Y-52513621D01*
X29081953Y-52525918D01*
X29060329Y-52536146D01*
X29037807Y-52544204D01*
X29014603Y-52550016D01*
X28990942Y-52553526D01*
X28967050Y-52554700D01*
X28479550Y-52554700D01*
X28455658Y-52553526D01*
X28431997Y-52550016D01*
X28408793Y-52544204D01*
X28386271Y-52536146D01*
X28364647Y-52525918D01*
X28344130Y-52513621D01*
X28324917Y-52499371D01*
X28307193Y-52483307D01*
X28291129Y-52465583D01*
X28276879Y-52446370D01*
X28264582Y-52425853D01*
X28254354Y-52404229D01*
X28246296Y-52381707D01*
X28240484Y-52358503D01*
X28236974Y-52334842D01*
X28235800Y-52310950D01*
X28235800Y-51398450D01*
X28236974Y-51374558D01*
X28240484Y-51350897D01*
X28246296Y-51327693D01*
X28254354Y-51305171D01*
X28264582Y-51283547D01*
X28276879Y-51263030D01*
X28291129Y-51243817D01*
X28307193Y-51226093D01*
X28324917Y-51210029D01*
X28344130Y-51195779D01*
X28364647Y-51183482D01*
X28386271Y-51173254D01*
X28408793Y-51165196D01*
X28431997Y-51159384D01*
X28455658Y-51155874D01*
X28479550Y-51154700D01*
X28967050Y-51154700D01*
X28990942Y-51155874D01*
X28990942Y-51155874D01*
G37*
D20*
X28723300Y-51854700D03*
G04 #@! TD*
D13*
G04 #@! TO.C,0815*
G36*
X62529505Y-51804604D02*
X62553773Y-51808204D01*
X62577572Y-51814165D01*
X62600671Y-51822430D01*
X62622850Y-51832920D01*
X62643893Y-51845532D01*
X62663599Y-51860147D01*
X62681777Y-51876623D01*
X62698253Y-51894801D01*
X62712868Y-51914507D01*
X62725480Y-51935550D01*
X62735970Y-51957729D01*
X62744235Y-51980828D01*
X62750196Y-52004627D01*
X62753796Y-52028895D01*
X62755000Y-52053399D01*
X62755000Y-55553401D01*
X62753796Y-55577905D01*
X62750196Y-55602173D01*
X62744235Y-55625972D01*
X62735970Y-55649071D01*
X62725480Y-55671250D01*
X62712868Y-55692293D01*
X62698253Y-55711999D01*
X62681777Y-55730177D01*
X62663599Y-55746653D01*
X62643893Y-55761268D01*
X62622850Y-55773880D01*
X62600671Y-55784370D01*
X62577572Y-55792635D01*
X62553773Y-55798596D01*
X62529505Y-55802196D01*
X62505001Y-55803400D01*
X61654999Y-55803400D01*
X61630495Y-55802196D01*
X61606227Y-55798596D01*
X61582428Y-55792635D01*
X61559329Y-55784370D01*
X61537150Y-55773880D01*
X61516107Y-55761268D01*
X61496401Y-55746653D01*
X61478223Y-55730177D01*
X61461747Y-55711999D01*
X61447132Y-55692293D01*
X61434520Y-55671250D01*
X61424030Y-55649071D01*
X61415765Y-55625972D01*
X61409804Y-55602173D01*
X61406204Y-55577905D01*
X61405000Y-55553401D01*
X61405000Y-52053399D01*
X61406204Y-52028895D01*
X61409804Y-52004627D01*
X61415765Y-51980828D01*
X61424030Y-51957729D01*
X61434520Y-51935550D01*
X61447132Y-51914507D01*
X61461747Y-51894801D01*
X61478223Y-51876623D01*
X61496401Y-51860147D01*
X61516107Y-51845532D01*
X61537150Y-51832920D01*
X61559329Y-51822430D01*
X61582428Y-51814165D01*
X61606227Y-51808204D01*
X61630495Y-51804604D01*
X61654999Y-51803400D01*
X62505001Y-51803400D01*
X62529505Y-51804604D01*
X62529505Y-51804604D01*
G37*
D21*
X62080000Y-53803400D03*
D13*
G36*
X60829505Y-51804604D02*
X60853773Y-51808204D01*
X60877572Y-51814165D01*
X60900671Y-51822430D01*
X60922850Y-51832920D01*
X60943893Y-51845532D01*
X60963599Y-51860147D01*
X60981777Y-51876623D01*
X60998253Y-51894801D01*
X61012868Y-51914507D01*
X61025480Y-51935550D01*
X61035970Y-51957729D01*
X61044235Y-51980828D01*
X61050196Y-52004627D01*
X61053796Y-52028895D01*
X61055000Y-52053399D01*
X61055000Y-55553401D01*
X61053796Y-55577905D01*
X61050196Y-55602173D01*
X61044235Y-55625972D01*
X61035970Y-55649071D01*
X61025480Y-55671250D01*
X61012868Y-55692293D01*
X60998253Y-55711999D01*
X60981777Y-55730177D01*
X60963599Y-55746653D01*
X60943893Y-55761268D01*
X60922850Y-55773880D01*
X60900671Y-55784370D01*
X60877572Y-55792635D01*
X60853773Y-55798596D01*
X60829505Y-55802196D01*
X60805001Y-55803400D01*
X59954999Y-55803400D01*
X59930495Y-55802196D01*
X59906227Y-55798596D01*
X59882428Y-55792635D01*
X59859329Y-55784370D01*
X59837150Y-55773880D01*
X59816107Y-55761268D01*
X59796401Y-55746653D01*
X59778223Y-55730177D01*
X59761747Y-55711999D01*
X59747132Y-55692293D01*
X59734520Y-55671250D01*
X59724030Y-55649071D01*
X59715765Y-55625972D01*
X59709804Y-55602173D01*
X59706204Y-55577905D01*
X59705000Y-55553401D01*
X59705000Y-52053399D01*
X59706204Y-52028895D01*
X59709804Y-52004627D01*
X59715765Y-51980828D01*
X59724030Y-51957729D01*
X59734520Y-51935550D01*
X59747132Y-51914507D01*
X59761747Y-51894801D01*
X59778223Y-51876623D01*
X59796401Y-51860147D01*
X59816107Y-51845532D01*
X59837150Y-51832920D01*
X59859329Y-51822430D01*
X59882428Y-51814165D01*
X59906227Y-51808204D01*
X59930495Y-51804604D01*
X59954999Y-51803400D01*
X60805001Y-51803400D01*
X60829505Y-51804604D01*
X60829505Y-51804604D01*
G37*
D21*
X60380000Y-53803400D03*
G04 #@! TD*
D13*
G04 #@! TO.C,01005*
G36*
X30009916Y-38677925D02*
X30016469Y-38678897D01*
X30022894Y-38680507D01*
X30029131Y-38682738D01*
X30035119Y-38685570D01*
X30040801Y-38688976D01*
X30046122Y-38692922D01*
X30051030Y-38697370D01*
X30055478Y-38702278D01*
X30059424Y-38707599D01*
X30062830Y-38713281D01*
X30065662Y-38719269D01*
X30067893Y-38725506D01*
X30069503Y-38731931D01*
X30070475Y-38738484D01*
X30070800Y-38745100D01*
X30070800Y-38880100D01*
X30070475Y-38886716D01*
X30069503Y-38893269D01*
X30067893Y-38899694D01*
X30065662Y-38905931D01*
X30062830Y-38911919D01*
X30059424Y-38917601D01*
X30055478Y-38922922D01*
X30051030Y-38927830D01*
X30046122Y-38932278D01*
X30040801Y-38936224D01*
X30035119Y-38939630D01*
X30029131Y-38942462D01*
X30022894Y-38944693D01*
X30016469Y-38946303D01*
X30009916Y-38947275D01*
X30003300Y-38947600D01*
X29868300Y-38947600D01*
X29861684Y-38947275D01*
X29855131Y-38946303D01*
X29848706Y-38944693D01*
X29842469Y-38942462D01*
X29836481Y-38939630D01*
X29830799Y-38936224D01*
X29825478Y-38932278D01*
X29820570Y-38927830D01*
X29816122Y-38922922D01*
X29812176Y-38917601D01*
X29808770Y-38911919D01*
X29805938Y-38905931D01*
X29803707Y-38899694D01*
X29802097Y-38893269D01*
X29801125Y-38886716D01*
X29800800Y-38880100D01*
X29800800Y-38745100D01*
X29801125Y-38738484D01*
X29802097Y-38731931D01*
X29803707Y-38725506D01*
X29805938Y-38719269D01*
X29808770Y-38713281D01*
X29812176Y-38707599D01*
X29816122Y-38702278D01*
X29820570Y-38697370D01*
X29825478Y-38692922D01*
X29830799Y-38688976D01*
X29836481Y-38685570D01*
X29842469Y-38682738D01*
X29848706Y-38680507D01*
X29855131Y-38678897D01*
X29861684Y-38677925D01*
X29868300Y-38677600D01*
X30003300Y-38677600D01*
X30009916Y-38677925D01*
X30009916Y-38677925D01*
G37*
D22*
X29935800Y-38812600D03*
D13*
G36*
X29459916Y-38677925D02*
X29466469Y-38678897D01*
X29472894Y-38680507D01*
X29479131Y-38682738D01*
X29485119Y-38685570D01*
X29490801Y-38688976D01*
X29496122Y-38692922D01*
X29501030Y-38697370D01*
X29505478Y-38702278D01*
X29509424Y-38707599D01*
X29512830Y-38713281D01*
X29515662Y-38719269D01*
X29517893Y-38725506D01*
X29519503Y-38731931D01*
X29520475Y-38738484D01*
X29520800Y-38745100D01*
X29520800Y-38880100D01*
X29520475Y-38886716D01*
X29519503Y-38893269D01*
X29517893Y-38899694D01*
X29515662Y-38905931D01*
X29512830Y-38911919D01*
X29509424Y-38917601D01*
X29505478Y-38922922D01*
X29501030Y-38927830D01*
X29496122Y-38932278D01*
X29490801Y-38936224D01*
X29485119Y-38939630D01*
X29479131Y-38942462D01*
X29472894Y-38944693D01*
X29466469Y-38946303D01*
X29459916Y-38947275D01*
X29453300Y-38947600D01*
X29318300Y-38947600D01*
X29311684Y-38947275D01*
X29305131Y-38946303D01*
X29298706Y-38944693D01*
X29292469Y-38942462D01*
X29286481Y-38939630D01*
X29280799Y-38936224D01*
X29275478Y-38932278D01*
X29270570Y-38927830D01*
X29266122Y-38922922D01*
X29262176Y-38917601D01*
X29258770Y-38911919D01*
X29255938Y-38905931D01*
X29253707Y-38899694D01*
X29252097Y-38893269D01*
X29251125Y-38886716D01*
X29250800Y-38880100D01*
X29250800Y-38745100D01*
X29251125Y-38738484D01*
X29252097Y-38731931D01*
X29253707Y-38725506D01*
X29255938Y-38719269D01*
X29258770Y-38713281D01*
X29262176Y-38707599D01*
X29266122Y-38702278D01*
X29270570Y-38697370D01*
X29275478Y-38692922D01*
X29280799Y-38688976D01*
X29286481Y-38685570D01*
X29292469Y-38682738D01*
X29298706Y-38680507D01*
X29305131Y-38678897D01*
X29311684Y-38677925D01*
X29318300Y-38677600D01*
X29453300Y-38677600D01*
X29459916Y-38677925D01*
X29459916Y-38677925D01*
G37*
D22*
X29385800Y-38812600D03*
G04 #@! TD*
D13*
G04 #@! TO.C,1020*
G36*
X62704505Y-59272204D02*
X62728773Y-59275804D01*
X62752572Y-59281765D01*
X62775671Y-59290030D01*
X62797850Y-59300520D01*
X62818893Y-59313132D01*
X62838599Y-59327747D01*
X62856777Y-59344223D01*
X62873253Y-59362401D01*
X62887868Y-59382107D01*
X62900480Y-59403150D01*
X62910970Y-59425329D01*
X62919235Y-59448428D01*
X62925196Y-59472227D01*
X62928796Y-59496495D01*
X62930000Y-59520999D01*
X62930000Y-64221001D01*
X62928796Y-64245505D01*
X62925196Y-64269773D01*
X62919235Y-64293572D01*
X62910970Y-64316671D01*
X62900480Y-64338850D01*
X62887868Y-64359893D01*
X62873253Y-64379599D01*
X62856777Y-64397777D01*
X62838599Y-64414253D01*
X62818893Y-64428868D01*
X62797850Y-64441480D01*
X62775671Y-64451970D01*
X62752572Y-64460235D01*
X62728773Y-64466196D01*
X62704505Y-64469796D01*
X62680001Y-64471000D01*
X62029999Y-64471000D01*
X62005495Y-64469796D01*
X61981227Y-64466196D01*
X61957428Y-64460235D01*
X61934329Y-64451970D01*
X61912150Y-64441480D01*
X61891107Y-64428868D01*
X61871401Y-64414253D01*
X61853223Y-64397777D01*
X61836747Y-64379599D01*
X61822132Y-64359893D01*
X61809520Y-64338850D01*
X61799030Y-64316671D01*
X61790765Y-64293572D01*
X61784804Y-64269773D01*
X61781204Y-64245505D01*
X61780000Y-64221001D01*
X61780000Y-59520999D01*
X61781204Y-59496495D01*
X61784804Y-59472227D01*
X61790765Y-59448428D01*
X61799030Y-59425329D01*
X61809520Y-59403150D01*
X61822132Y-59382107D01*
X61836747Y-59362401D01*
X61853223Y-59344223D01*
X61871401Y-59327747D01*
X61891107Y-59313132D01*
X61912150Y-59300520D01*
X61934329Y-59290030D01*
X61957428Y-59281765D01*
X61981227Y-59275804D01*
X62005495Y-59272204D01*
X62029999Y-59271000D01*
X62680001Y-59271000D01*
X62704505Y-59272204D01*
X62704505Y-59272204D01*
G37*
D23*
X62355000Y-61871000D03*
D13*
G36*
X60454505Y-59272204D02*
X60478773Y-59275804D01*
X60502572Y-59281765D01*
X60525671Y-59290030D01*
X60547850Y-59300520D01*
X60568893Y-59313132D01*
X60588599Y-59327747D01*
X60606777Y-59344223D01*
X60623253Y-59362401D01*
X60637868Y-59382107D01*
X60650480Y-59403150D01*
X60660970Y-59425329D01*
X60669235Y-59448428D01*
X60675196Y-59472227D01*
X60678796Y-59496495D01*
X60680000Y-59520999D01*
X60680000Y-64221001D01*
X60678796Y-64245505D01*
X60675196Y-64269773D01*
X60669235Y-64293572D01*
X60660970Y-64316671D01*
X60650480Y-64338850D01*
X60637868Y-64359893D01*
X60623253Y-64379599D01*
X60606777Y-64397777D01*
X60588599Y-64414253D01*
X60568893Y-64428868D01*
X60547850Y-64441480D01*
X60525671Y-64451970D01*
X60502572Y-64460235D01*
X60478773Y-64466196D01*
X60454505Y-64469796D01*
X60430001Y-64471000D01*
X59779999Y-64471000D01*
X59755495Y-64469796D01*
X59731227Y-64466196D01*
X59707428Y-64460235D01*
X59684329Y-64451970D01*
X59662150Y-64441480D01*
X59641107Y-64428868D01*
X59621401Y-64414253D01*
X59603223Y-64397777D01*
X59586747Y-64379599D01*
X59572132Y-64359893D01*
X59559520Y-64338850D01*
X59549030Y-64316671D01*
X59540765Y-64293572D01*
X59534804Y-64269773D01*
X59531204Y-64245505D01*
X59530000Y-64221001D01*
X59530000Y-59520999D01*
X59531204Y-59496495D01*
X59534804Y-59472227D01*
X59540765Y-59448428D01*
X59549030Y-59425329D01*
X59559520Y-59403150D01*
X59572132Y-59382107D01*
X59586747Y-59362401D01*
X59603223Y-59344223D01*
X59621401Y-59327747D01*
X59641107Y-59313132D01*
X59662150Y-59300520D01*
X59684329Y-59290030D01*
X59707428Y-59281765D01*
X59731227Y-59275804D01*
X59755495Y-59272204D01*
X59779999Y-59271000D01*
X60430001Y-59271000D01*
X60454505Y-59272204D01*
X60454505Y-59272204D01*
G37*
D23*
X60105000Y-61871000D03*
G04 #@! TD*
D13*
G04 #@! TO.C,1206*
G36*
X31460304Y-55223929D02*
X31484573Y-55227529D01*
X31508371Y-55233490D01*
X31531471Y-55241755D01*
X31553649Y-55252245D01*
X31574693Y-55264858D01*
X31594398Y-55279472D01*
X31612577Y-55295948D01*
X31629053Y-55314127D01*
X31643667Y-55333832D01*
X31656280Y-55354876D01*
X31666770Y-55377054D01*
X31675035Y-55400154D01*
X31680996Y-55423952D01*
X31684596Y-55448221D01*
X31685800Y-55472725D01*
X31685800Y-56722725D01*
X31684596Y-56747229D01*
X31680996Y-56771498D01*
X31675035Y-56795296D01*
X31666770Y-56818396D01*
X31656280Y-56840574D01*
X31643667Y-56861618D01*
X31629053Y-56881323D01*
X31612577Y-56899502D01*
X31594398Y-56915978D01*
X31574693Y-56930592D01*
X31553649Y-56943205D01*
X31531471Y-56953695D01*
X31508371Y-56961960D01*
X31484573Y-56967921D01*
X31460304Y-56971521D01*
X31435800Y-56972725D01*
X30685800Y-56972725D01*
X30661296Y-56971521D01*
X30637027Y-56967921D01*
X30613229Y-56961960D01*
X30590129Y-56953695D01*
X30567951Y-56943205D01*
X30546907Y-56930592D01*
X30527202Y-56915978D01*
X30509023Y-56899502D01*
X30492547Y-56881323D01*
X30477933Y-56861618D01*
X30465320Y-56840574D01*
X30454830Y-56818396D01*
X30446565Y-56795296D01*
X30440604Y-56771498D01*
X30437004Y-56747229D01*
X30435800Y-56722725D01*
X30435800Y-55472725D01*
X30437004Y-55448221D01*
X30440604Y-55423952D01*
X30446565Y-55400154D01*
X30454830Y-55377054D01*
X30465320Y-55354876D01*
X30477933Y-55333832D01*
X30492547Y-55314127D01*
X30509023Y-55295948D01*
X30527202Y-55279472D01*
X30546907Y-55264858D01*
X30567951Y-55252245D01*
X30590129Y-55241755D01*
X30613229Y-55233490D01*
X30637027Y-55227529D01*
X30661296Y-55223929D01*
X30685800Y-55222725D01*
X31435800Y-55222725D01*
X31460304Y-55223929D01*
X31460304Y-55223929D01*
G37*
D24*
X31060800Y-56097725D03*
D13*
G36*
X28660304Y-55223929D02*
X28684573Y-55227529D01*
X28708371Y-55233490D01*
X28731471Y-55241755D01*
X28753649Y-55252245D01*
X28774693Y-55264858D01*
X28794398Y-55279472D01*
X28812577Y-55295948D01*
X28829053Y-55314127D01*
X28843667Y-55333832D01*
X28856280Y-55354876D01*
X28866770Y-55377054D01*
X28875035Y-55400154D01*
X28880996Y-55423952D01*
X28884596Y-55448221D01*
X28885800Y-55472725D01*
X28885800Y-56722725D01*
X28884596Y-56747229D01*
X28880996Y-56771498D01*
X28875035Y-56795296D01*
X28866770Y-56818396D01*
X28856280Y-56840574D01*
X28843667Y-56861618D01*
X28829053Y-56881323D01*
X28812577Y-56899502D01*
X28794398Y-56915978D01*
X28774693Y-56930592D01*
X28753649Y-56943205D01*
X28731471Y-56953695D01*
X28708371Y-56961960D01*
X28684573Y-56967921D01*
X28660304Y-56971521D01*
X28635800Y-56972725D01*
X27885800Y-56972725D01*
X27861296Y-56971521D01*
X27837027Y-56967921D01*
X27813229Y-56961960D01*
X27790129Y-56953695D01*
X27767951Y-56943205D01*
X27746907Y-56930592D01*
X27727202Y-56915978D01*
X27709023Y-56899502D01*
X27692547Y-56881323D01*
X27677933Y-56861618D01*
X27665320Y-56840574D01*
X27654830Y-56818396D01*
X27646565Y-56795296D01*
X27640604Y-56771498D01*
X27637004Y-56747229D01*
X27635800Y-56722725D01*
X27635800Y-55472725D01*
X27637004Y-55448221D01*
X27640604Y-55423952D01*
X27646565Y-55400154D01*
X27654830Y-55377054D01*
X27665320Y-55354876D01*
X27677933Y-55333832D01*
X27692547Y-55314127D01*
X27709023Y-55295948D01*
X27727202Y-55279472D01*
X27746907Y-55264858D01*
X27767951Y-55252245D01*
X27790129Y-55241755D01*
X27813229Y-55233490D01*
X27837027Y-55227529D01*
X27861296Y-55223929D01*
X27885800Y-55222725D01*
X28635800Y-55222725D01*
X28660304Y-55223929D01*
X28660304Y-55223929D01*
G37*
D24*
X28260800Y-56097725D03*
G04 #@! TD*
D13*
G04 #@! TO.C,1210*
G36*
X31460304Y-59646954D02*
X31484573Y-59650554D01*
X31508371Y-59656515D01*
X31531471Y-59664780D01*
X31553649Y-59675270D01*
X31574693Y-59687883D01*
X31594398Y-59702497D01*
X31612577Y-59718973D01*
X31629053Y-59737152D01*
X31643667Y-59756857D01*
X31656280Y-59777901D01*
X31666770Y-59800079D01*
X31675035Y-59823179D01*
X31680996Y-59846977D01*
X31684596Y-59871246D01*
X31685800Y-59895750D01*
X31685800Y-62045750D01*
X31684596Y-62070254D01*
X31680996Y-62094523D01*
X31675035Y-62118321D01*
X31666770Y-62141421D01*
X31656280Y-62163599D01*
X31643667Y-62184643D01*
X31629053Y-62204348D01*
X31612577Y-62222527D01*
X31594398Y-62239003D01*
X31574693Y-62253617D01*
X31553649Y-62266230D01*
X31531471Y-62276720D01*
X31508371Y-62284985D01*
X31484573Y-62290946D01*
X31460304Y-62294546D01*
X31435800Y-62295750D01*
X30685800Y-62295750D01*
X30661296Y-62294546D01*
X30637027Y-62290946D01*
X30613229Y-62284985D01*
X30590129Y-62276720D01*
X30567951Y-62266230D01*
X30546907Y-62253617D01*
X30527202Y-62239003D01*
X30509023Y-62222527D01*
X30492547Y-62204348D01*
X30477933Y-62184643D01*
X30465320Y-62163599D01*
X30454830Y-62141421D01*
X30446565Y-62118321D01*
X30440604Y-62094523D01*
X30437004Y-62070254D01*
X30435800Y-62045750D01*
X30435800Y-59895750D01*
X30437004Y-59871246D01*
X30440604Y-59846977D01*
X30446565Y-59823179D01*
X30454830Y-59800079D01*
X30465320Y-59777901D01*
X30477933Y-59756857D01*
X30492547Y-59737152D01*
X30509023Y-59718973D01*
X30527202Y-59702497D01*
X30546907Y-59687883D01*
X30567951Y-59675270D01*
X30590129Y-59664780D01*
X30613229Y-59656515D01*
X30637027Y-59650554D01*
X30661296Y-59646954D01*
X30685800Y-59645750D01*
X31435800Y-59645750D01*
X31460304Y-59646954D01*
X31460304Y-59646954D01*
G37*
D24*
X31060800Y-60970750D03*
D13*
G36*
X28660304Y-59646954D02*
X28684573Y-59650554D01*
X28708371Y-59656515D01*
X28731471Y-59664780D01*
X28753649Y-59675270D01*
X28774693Y-59687883D01*
X28794398Y-59702497D01*
X28812577Y-59718973D01*
X28829053Y-59737152D01*
X28843667Y-59756857D01*
X28856280Y-59777901D01*
X28866770Y-59800079D01*
X28875035Y-59823179D01*
X28880996Y-59846977D01*
X28884596Y-59871246D01*
X28885800Y-59895750D01*
X28885800Y-62045750D01*
X28884596Y-62070254D01*
X28880996Y-62094523D01*
X28875035Y-62118321D01*
X28866770Y-62141421D01*
X28856280Y-62163599D01*
X28843667Y-62184643D01*
X28829053Y-62204348D01*
X28812577Y-62222527D01*
X28794398Y-62239003D01*
X28774693Y-62253617D01*
X28753649Y-62266230D01*
X28731471Y-62276720D01*
X28708371Y-62284985D01*
X28684573Y-62290946D01*
X28660304Y-62294546D01*
X28635800Y-62295750D01*
X27885800Y-62295750D01*
X27861296Y-62294546D01*
X27837027Y-62290946D01*
X27813229Y-62284985D01*
X27790129Y-62276720D01*
X27767951Y-62266230D01*
X27746907Y-62253617D01*
X27727202Y-62239003D01*
X27709023Y-62222527D01*
X27692547Y-62204348D01*
X27677933Y-62184643D01*
X27665320Y-62163599D01*
X27654830Y-62141421D01*
X27646565Y-62118321D01*
X27640604Y-62094523D01*
X27637004Y-62070254D01*
X27635800Y-62045750D01*
X27635800Y-59895750D01*
X27637004Y-59871246D01*
X27640604Y-59846977D01*
X27646565Y-59823179D01*
X27654830Y-59800079D01*
X27665320Y-59777901D01*
X27677933Y-59756857D01*
X27692547Y-59737152D01*
X27709023Y-59718973D01*
X27727202Y-59702497D01*
X27746907Y-59687883D01*
X27767951Y-59675270D01*
X27790129Y-59664780D01*
X27813229Y-59656515D01*
X27837027Y-59650554D01*
X27861296Y-59646954D01*
X27885800Y-59645750D01*
X28635800Y-59645750D01*
X28660304Y-59646954D01*
X28660304Y-59646954D01*
G37*
D24*
X28260800Y-60970750D03*
G04 #@! TD*
D13*
G04 #@! TO.C,1218*
G36*
X63004505Y-67934804D02*
X63028773Y-67938404D01*
X63052572Y-67944365D01*
X63075671Y-67952630D01*
X63097850Y-67963120D01*
X63118893Y-67975732D01*
X63138599Y-67990347D01*
X63156777Y-68006823D01*
X63173253Y-68025001D01*
X63187868Y-68044707D01*
X63200480Y-68065750D01*
X63210970Y-68087929D01*
X63219235Y-68111028D01*
X63225196Y-68134827D01*
X63228796Y-68159095D01*
X63230000Y-68183599D01*
X63230000Y-72433601D01*
X63228796Y-72458105D01*
X63225196Y-72482373D01*
X63219235Y-72506172D01*
X63210970Y-72529271D01*
X63200480Y-72551450D01*
X63187868Y-72572493D01*
X63173253Y-72592199D01*
X63156777Y-72610377D01*
X63138599Y-72626853D01*
X63118893Y-72641468D01*
X63097850Y-72654080D01*
X63075671Y-72664570D01*
X63052572Y-72672835D01*
X63028773Y-72678796D01*
X63004505Y-72682396D01*
X62980001Y-72683600D01*
X62429999Y-72683600D01*
X62405495Y-72682396D01*
X62381227Y-72678796D01*
X62357428Y-72672835D01*
X62334329Y-72664570D01*
X62312150Y-72654080D01*
X62291107Y-72641468D01*
X62271401Y-72626853D01*
X62253223Y-72610377D01*
X62236747Y-72592199D01*
X62222132Y-72572493D01*
X62209520Y-72551450D01*
X62199030Y-72529271D01*
X62190765Y-72506172D01*
X62184804Y-72482373D01*
X62181204Y-72458105D01*
X62180000Y-72433601D01*
X62180000Y-68183599D01*
X62181204Y-68159095D01*
X62184804Y-68134827D01*
X62190765Y-68111028D01*
X62199030Y-68087929D01*
X62209520Y-68065750D01*
X62222132Y-68044707D01*
X62236747Y-68025001D01*
X62253223Y-68006823D01*
X62271401Y-67990347D01*
X62291107Y-67975732D01*
X62312150Y-67963120D01*
X62334329Y-67952630D01*
X62357428Y-67944365D01*
X62381227Y-67938404D01*
X62405495Y-67934804D01*
X62429999Y-67933600D01*
X62980001Y-67933600D01*
X63004505Y-67934804D01*
X63004505Y-67934804D01*
G37*
D25*
X62705000Y-70308600D03*
D13*
G36*
X60054505Y-67934804D02*
X60078773Y-67938404D01*
X60102572Y-67944365D01*
X60125671Y-67952630D01*
X60147850Y-67963120D01*
X60168893Y-67975732D01*
X60188599Y-67990347D01*
X60206777Y-68006823D01*
X60223253Y-68025001D01*
X60237868Y-68044707D01*
X60250480Y-68065750D01*
X60260970Y-68087929D01*
X60269235Y-68111028D01*
X60275196Y-68134827D01*
X60278796Y-68159095D01*
X60280000Y-68183599D01*
X60280000Y-72433601D01*
X60278796Y-72458105D01*
X60275196Y-72482373D01*
X60269235Y-72506172D01*
X60260970Y-72529271D01*
X60250480Y-72551450D01*
X60237868Y-72572493D01*
X60223253Y-72592199D01*
X60206777Y-72610377D01*
X60188599Y-72626853D01*
X60168893Y-72641468D01*
X60147850Y-72654080D01*
X60125671Y-72664570D01*
X60102572Y-72672835D01*
X60078773Y-72678796D01*
X60054505Y-72682396D01*
X60030001Y-72683600D01*
X59479999Y-72683600D01*
X59455495Y-72682396D01*
X59431227Y-72678796D01*
X59407428Y-72672835D01*
X59384329Y-72664570D01*
X59362150Y-72654080D01*
X59341107Y-72641468D01*
X59321401Y-72626853D01*
X59303223Y-72610377D01*
X59286747Y-72592199D01*
X59272132Y-72572493D01*
X59259520Y-72551450D01*
X59249030Y-72529271D01*
X59240765Y-72506172D01*
X59234804Y-72482373D01*
X59231204Y-72458105D01*
X59230000Y-72433601D01*
X59230000Y-68183599D01*
X59231204Y-68159095D01*
X59234804Y-68134827D01*
X59240765Y-68111028D01*
X59249030Y-68087929D01*
X59259520Y-68065750D01*
X59272132Y-68044707D01*
X59286747Y-68025001D01*
X59303223Y-68006823D01*
X59321401Y-67990347D01*
X59341107Y-67975732D01*
X59362150Y-67963120D01*
X59384329Y-67952630D01*
X59407428Y-67944365D01*
X59431227Y-67938404D01*
X59455495Y-67934804D01*
X59479999Y-67933600D01*
X60030001Y-67933600D01*
X60054505Y-67934804D01*
X60054505Y-67934804D01*
G37*
D25*
X59755000Y-70308600D03*
G04 #@! TD*
D13*
G04 #@! TO.C,1806*
G36*
X32135305Y-64974979D02*
X32159573Y-64978579D01*
X32183372Y-64984540D01*
X32206471Y-64992805D01*
X32228650Y-65003295D01*
X32249693Y-65015907D01*
X32269399Y-65030522D01*
X32287577Y-65046998D01*
X32304053Y-65065176D01*
X32318668Y-65084882D01*
X32331280Y-65105925D01*
X32341770Y-65128104D01*
X32350035Y-65151203D01*
X32355996Y-65175002D01*
X32359596Y-65199270D01*
X32360800Y-65223774D01*
X32360800Y-66523776D01*
X32359596Y-66548280D01*
X32355996Y-66572548D01*
X32350035Y-66596347D01*
X32341770Y-66619446D01*
X32331280Y-66641625D01*
X32318668Y-66662668D01*
X32304053Y-66682374D01*
X32287577Y-66700552D01*
X32269399Y-66717028D01*
X32249693Y-66731643D01*
X32228650Y-66744255D01*
X32206471Y-66754745D01*
X32183372Y-66763010D01*
X32159573Y-66768971D01*
X32135305Y-66772571D01*
X32110801Y-66773775D01*
X31210799Y-66773775D01*
X31186295Y-66772571D01*
X31162027Y-66768971D01*
X31138228Y-66763010D01*
X31115129Y-66754745D01*
X31092950Y-66744255D01*
X31071907Y-66731643D01*
X31052201Y-66717028D01*
X31034023Y-66700552D01*
X31017547Y-66682374D01*
X31002932Y-66662668D01*
X30990320Y-66641625D01*
X30979830Y-66619446D01*
X30971565Y-66596347D01*
X30965604Y-66572548D01*
X30962004Y-66548280D01*
X30960800Y-66523776D01*
X30960800Y-65223774D01*
X30962004Y-65199270D01*
X30965604Y-65175002D01*
X30971565Y-65151203D01*
X30979830Y-65128104D01*
X30990320Y-65105925D01*
X31002932Y-65084882D01*
X31017547Y-65065176D01*
X31034023Y-65046998D01*
X31052201Y-65030522D01*
X31071907Y-65015907D01*
X31092950Y-65003295D01*
X31115129Y-64992805D01*
X31138228Y-64984540D01*
X31162027Y-64978579D01*
X31186295Y-64974979D01*
X31210799Y-64973775D01*
X32110801Y-64973775D01*
X32135305Y-64974979D01*
X32135305Y-64974979D01*
G37*
D26*
X31660800Y-65873775D03*
D13*
G36*
X28135305Y-64974979D02*
X28159573Y-64978579D01*
X28183372Y-64984540D01*
X28206471Y-64992805D01*
X28228650Y-65003295D01*
X28249693Y-65015907D01*
X28269399Y-65030522D01*
X28287577Y-65046998D01*
X28304053Y-65065176D01*
X28318668Y-65084882D01*
X28331280Y-65105925D01*
X28341770Y-65128104D01*
X28350035Y-65151203D01*
X28355996Y-65175002D01*
X28359596Y-65199270D01*
X28360800Y-65223774D01*
X28360800Y-66523776D01*
X28359596Y-66548280D01*
X28355996Y-66572548D01*
X28350035Y-66596347D01*
X28341770Y-66619446D01*
X28331280Y-66641625D01*
X28318668Y-66662668D01*
X28304053Y-66682374D01*
X28287577Y-66700552D01*
X28269399Y-66717028D01*
X28249693Y-66731643D01*
X28228650Y-66744255D01*
X28206471Y-66754745D01*
X28183372Y-66763010D01*
X28159573Y-66768971D01*
X28135305Y-66772571D01*
X28110801Y-66773775D01*
X27210799Y-66773775D01*
X27186295Y-66772571D01*
X27162027Y-66768971D01*
X27138228Y-66763010D01*
X27115129Y-66754745D01*
X27092950Y-66744255D01*
X27071907Y-66731643D01*
X27052201Y-66717028D01*
X27034023Y-66700552D01*
X27017547Y-66682374D01*
X27002932Y-66662668D01*
X26990320Y-66641625D01*
X26979830Y-66619446D01*
X26971565Y-66596347D01*
X26965604Y-66572548D01*
X26962004Y-66548280D01*
X26960800Y-66523776D01*
X26960800Y-65223774D01*
X26962004Y-65199270D01*
X26965604Y-65175002D01*
X26971565Y-65151203D01*
X26979830Y-65128104D01*
X26990320Y-65105925D01*
X27002932Y-65084882D01*
X27017547Y-65065176D01*
X27034023Y-65046998D01*
X27052201Y-65030522D01*
X27071907Y-65015907D01*
X27092950Y-65003295D01*
X27115129Y-64992805D01*
X27138228Y-64984540D01*
X27162027Y-64978579D01*
X27186295Y-64974979D01*
X27210799Y-64973775D01*
X28110801Y-64973775D01*
X28135305Y-64974979D01*
X28135305Y-64974979D01*
G37*
D26*
X27660800Y-65873775D03*
G04 #@! TD*
D13*
G04 #@! TO.C,1812*
G36*
X32135305Y-69448004D02*
X32159573Y-69451604D01*
X32183372Y-69457565D01*
X32206471Y-69465830D01*
X32228650Y-69476320D01*
X32249693Y-69488932D01*
X32269399Y-69503547D01*
X32287577Y-69520023D01*
X32304053Y-69538201D01*
X32318668Y-69557907D01*
X32331280Y-69578950D01*
X32341770Y-69601129D01*
X32350035Y-69624228D01*
X32355996Y-69648027D01*
X32359596Y-69672295D01*
X32360800Y-69696799D01*
X32360800Y-72596801D01*
X32359596Y-72621305D01*
X32355996Y-72645573D01*
X32350035Y-72669372D01*
X32341770Y-72692471D01*
X32331280Y-72714650D01*
X32318668Y-72735693D01*
X32304053Y-72755399D01*
X32287577Y-72773577D01*
X32269399Y-72790053D01*
X32249693Y-72804668D01*
X32228650Y-72817280D01*
X32206471Y-72827770D01*
X32183372Y-72836035D01*
X32159573Y-72841996D01*
X32135305Y-72845596D01*
X32110801Y-72846800D01*
X31485799Y-72846800D01*
X31461295Y-72845596D01*
X31437027Y-72841996D01*
X31413228Y-72836035D01*
X31390129Y-72827770D01*
X31367950Y-72817280D01*
X31346907Y-72804668D01*
X31327201Y-72790053D01*
X31309023Y-72773577D01*
X31292547Y-72755399D01*
X31277932Y-72735693D01*
X31265320Y-72714650D01*
X31254830Y-72692471D01*
X31246565Y-72669372D01*
X31240604Y-72645573D01*
X31237004Y-72621305D01*
X31235800Y-72596801D01*
X31235800Y-69696799D01*
X31237004Y-69672295D01*
X31240604Y-69648027D01*
X31246565Y-69624228D01*
X31254830Y-69601129D01*
X31265320Y-69578950D01*
X31277932Y-69557907D01*
X31292547Y-69538201D01*
X31309023Y-69520023D01*
X31327201Y-69503547D01*
X31346907Y-69488932D01*
X31367950Y-69476320D01*
X31390129Y-69465830D01*
X31413228Y-69457565D01*
X31437027Y-69451604D01*
X31461295Y-69448004D01*
X31485799Y-69446800D01*
X32110801Y-69446800D01*
X32135305Y-69448004D01*
X32135305Y-69448004D01*
G37*
D27*
X31798300Y-71146800D03*
D13*
G36*
X27860305Y-69448004D02*
X27884573Y-69451604D01*
X27908372Y-69457565D01*
X27931471Y-69465830D01*
X27953650Y-69476320D01*
X27974693Y-69488932D01*
X27994399Y-69503547D01*
X28012577Y-69520023D01*
X28029053Y-69538201D01*
X28043668Y-69557907D01*
X28056280Y-69578950D01*
X28066770Y-69601129D01*
X28075035Y-69624228D01*
X28080996Y-69648027D01*
X28084596Y-69672295D01*
X28085800Y-69696799D01*
X28085800Y-72596801D01*
X28084596Y-72621305D01*
X28080996Y-72645573D01*
X28075035Y-72669372D01*
X28066770Y-72692471D01*
X28056280Y-72714650D01*
X28043668Y-72735693D01*
X28029053Y-72755399D01*
X28012577Y-72773577D01*
X27994399Y-72790053D01*
X27974693Y-72804668D01*
X27953650Y-72817280D01*
X27931471Y-72827770D01*
X27908372Y-72836035D01*
X27884573Y-72841996D01*
X27860305Y-72845596D01*
X27835801Y-72846800D01*
X27210799Y-72846800D01*
X27186295Y-72845596D01*
X27162027Y-72841996D01*
X27138228Y-72836035D01*
X27115129Y-72827770D01*
X27092950Y-72817280D01*
X27071907Y-72804668D01*
X27052201Y-72790053D01*
X27034023Y-72773577D01*
X27017547Y-72755399D01*
X27002932Y-72735693D01*
X26990320Y-72714650D01*
X26979830Y-72692471D01*
X26971565Y-72669372D01*
X26965604Y-72645573D01*
X26962004Y-72621305D01*
X26960800Y-72596801D01*
X26960800Y-69696799D01*
X26962004Y-69672295D01*
X26965604Y-69648027D01*
X26971565Y-69624228D01*
X26979830Y-69601129D01*
X26990320Y-69578950D01*
X27002932Y-69557907D01*
X27017547Y-69538201D01*
X27034023Y-69520023D01*
X27052201Y-69503547D01*
X27071907Y-69488932D01*
X27092950Y-69476320D01*
X27115129Y-69465830D01*
X27138228Y-69457565D01*
X27162027Y-69451604D01*
X27186295Y-69448004D01*
X27210799Y-69446800D01*
X27835801Y-69446800D01*
X27860305Y-69448004D01*
X27860305Y-69448004D01*
G37*
D27*
X27523300Y-71146800D03*
G04 #@! TD*
D13*
G04 #@! TO.C,2010*
G36*
X47074505Y-39241404D02*
X47098773Y-39245004D01*
X47122572Y-39250965D01*
X47145671Y-39259230D01*
X47167850Y-39269720D01*
X47188893Y-39282332D01*
X47208599Y-39296947D01*
X47226777Y-39313423D01*
X47243253Y-39331601D01*
X47257868Y-39351307D01*
X47270480Y-39372350D01*
X47280970Y-39394529D01*
X47289235Y-39417628D01*
X47295196Y-39441427D01*
X47298796Y-39465695D01*
X47300000Y-39490199D01*
X47300000Y-41640201D01*
X47298796Y-41664705D01*
X47295196Y-41688973D01*
X47289235Y-41712772D01*
X47280970Y-41735871D01*
X47270480Y-41758050D01*
X47257868Y-41779093D01*
X47243253Y-41798799D01*
X47226777Y-41816977D01*
X47208599Y-41833453D01*
X47188893Y-41848068D01*
X47167850Y-41860680D01*
X47145671Y-41871170D01*
X47122572Y-41879435D01*
X47098773Y-41885396D01*
X47074505Y-41888996D01*
X47050001Y-41890200D01*
X46199999Y-41890200D01*
X46175495Y-41888996D01*
X46151227Y-41885396D01*
X46127428Y-41879435D01*
X46104329Y-41871170D01*
X46082150Y-41860680D01*
X46061107Y-41848068D01*
X46041401Y-41833453D01*
X46023223Y-41816977D01*
X46006747Y-41798799D01*
X45992132Y-41779093D01*
X45979520Y-41758050D01*
X45969030Y-41735871D01*
X45960765Y-41712772D01*
X45954804Y-41688973D01*
X45951204Y-41664705D01*
X45950000Y-41640201D01*
X45950000Y-39490199D01*
X45951204Y-39465695D01*
X45954804Y-39441427D01*
X45960765Y-39417628D01*
X45969030Y-39394529D01*
X45979520Y-39372350D01*
X45992132Y-39351307D01*
X46006747Y-39331601D01*
X46023223Y-39313423D01*
X46041401Y-39296947D01*
X46061107Y-39282332D01*
X46082150Y-39269720D01*
X46104329Y-39259230D01*
X46127428Y-39250965D01*
X46151227Y-39245004D01*
X46175495Y-39241404D01*
X46199999Y-39240200D01*
X47050001Y-39240200D01*
X47074505Y-39241404D01*
X47074505Y-39241404D01*
G37*
D21*
X46625000Y-40565200D03*
D13*
G36*
X42574505Y-39241404D02*
X42598773Y-39245004D01*
X42622572Y-39250965D01*
X42645671Y-39259230D01*
X42667850Y-39269720D01*
X42688893Y-39282332D01*
X42708599Y-39296947D01*
X42726777Y-39313423D01*
X42743253Y-39331601D01*
X42757868Y-39351307D01*
X42770480Y-39372350D01*
X42780970Y-39394529D01*
X42789235Y-39417628D01*
X42795196Y-39441427D01*
X42798796Y-39465695D01*
X42800000Y-39490199D01*
X42800000Y-41640201D01*
X42798796Y-41664705D01*
X42795196Y-41688973D01*
X42789235Y-41712772D01*
X42780970Y-41735871D01*
X42770480Y-41758050D01*
X42757868Y-41779093D01*
X42743253Y-41798799D01*
X42726777Y-41816977D01*
X42708599Y-41833453D01*
X42688893Y-41848068D01*
X42667850Y-41860680D01*
X42645671Y-41871170D01*
X42622572Y-41879435D01*
X42598773Y-41885396D01*
X42574505Y-41888996D01*
X42550001Y-41890200D01*
X41699999Y-41890200D01*
X41675495Y-41888996D01*
X41651227Y-41885396D01*
X41627428Y-41879435D01*
X41604329Y-41871170D01*
X41582150Y-41860680D01*
X41561107Y-41848068D01*
X41541401Y-41833453D01*
X41523223Y-41816977D01*
X41506747Y-41798799D01*
X41492132Y-41779093D01*
X41479520Y-41758050D01*
X41469030Y-41735871D01*
X41460765Y-41712772D01*
X41454804Y-41688973D01*
X41451204Y-41664705D01*
X41450000Y-41640201D01*
X41450000Y-39490199D01*
X41451204Y-39465695D01*
X41454804Y-39441427D01*
X41460765Y-39417628D01*
X41469030Y-39394529D01*
X41479520Y-39372350D01*
X41492132Y-39351307D01*
X41506747Y-39331601D01*
X41523223Y-39313423D01*
X41541401Y-39296947D01*
X41561107Y-39282332D01*
X41582150Y-39269720D01*
X41604329Y-39259230D01*
X41627428Y-39250965D01*
X41651227Y-39245004D01*
X41675495Y-39241404D01*
X41699999Y-39240200D01*
X42550001Y-39240200D01*
X42574505Y-39241404D01*
X42574505Y-39241404D01*
G37*
D21*
X42125000Y-40565200D03*
G04 #@! TD*
D13*
G04 #@! TO.C,2512*
G36*
X47724505Y-47845337D02*
X47748773Y-47848937D01*
X47772572Y-47854898D01*
X47795671Y-47863163D01*
X47817850Y-47873653D01*
X47838893Y-47886265D01*
X47858599Y-47900880D01*
X47876777Y-47917356D01*
X47893253Y-47935534D01*
X47907868Y-47955240D01*
X47920480Y-47976283D01*
X47930970Y-47998462D01*
X47939235Y-48021561D01*
X47945196Y-48045360D01*
X47948796Y-48069628D01*
X47950000Y-48094132D01*
X47950000Y-50944134D01*
X47948796Y-50968638D01*
X47945196Y-50992906D01*
X47939235Y-51016705D01*
X47930970Y-51039804D01*
X47920480Y-51061983D01*
X47907868Y-51083026D01*
X47893253Y-51102732D01*
X47876777Y-51120910D01*
X47858599Y-51137386D01*
X47838893Y-51152001D01*
X47817850Y-51164613D01*
X47795671Y-51175103D01*
X47772572Y-51183368D01*
X47748773Y-51189329D01*
X47724505Y-51192929D01*
X47700001Y-51194133D01*
X46849999Y-51194133D01*
X46825495Y-51192929D01*
X46801227Y-51189329D01*
X46777428Y-51183368D01*
X46754329Y-51175103D01*
X46732150Y-51164613D01*
X46711107Y-51152001D01*
X46691401Y-51137386D01*
X46673223Y-51120910D01*
X46656747Y-51102732D01*
X46642132Y-51083026D01*
X46629520Y-51061983D01*
X46619030Y-51039804D01*
X46610765Y-51016705D01*
X46604804Y-50992906D01*
X46601204Y-50968638D01*
X46600000Y-50944134D01*
X46600000Y-48094132D01*
X46601204Y-48069628D01*
X46604804Y-48045360D01*
X46610765Y-48021561D01*
X46619030Y-47998462D01*
X46629520Y-47976283D01*
X46642132Y-47955240D01*
X46656747Y-47935534D01*
X46673223Y-47917356D01*
X46691401Y-47900880D01*
X46711107Y-47886265D01*
X46732150Y-47873653D01*
X46754329Y-47863163D01*
X46777428Y-47854898D01*
X46801227Y-47848937D01*
X46825495Y-47845337D01*
X46849999Y-47844133D01*
X47700001Y-47844133D01*
X47724505Y-47845337D01*
X47724505Y-47845337D01*
G37*
D21*
X47275000Y-49519133D03*
D13*
G36*
X41924505Y-47845337D02*
X41948773Y-47848937D01*
X41972572Y-47854898D01*
X41995671Y-47863163D01*
X42017850Y-47873653D01*
X42038893Y-47886265D01*
X42058599Y-47900880D01*
X42076777Y-47917356D01*
X42093253Y-47935534D01*
X42107868Y-47955240D01*
X42120480Y-47976283D01*
X42130970Y-47998462D01*
X42139235Y-48021561D01*
X42145196Y-48045360D01*
X42148796Y-48069628D01*
X42150000Y-48094132D01*
X42150000Y-50944134D01*
X42148796Y-50968638D01*
X42145196Y-50992906D01*
X42139235Y-51016705D01*
X42130970Y-51039804D01*
X42120480Y-51061983D01*
X42107868Y-51083026D01*
X42093253Y-51102732D01*
X42076777Y-51120910D01*
X42058599Y-51137386D01*
X42038893Y-51152001D01*
X42017850Y-51164613D01*
X41995671Y-51175103D01*
X41972572Y-51183368D01*
X41948773Y-51189329D01*
X41924505Y-51192929D01*
X41900001Y-51194133D01*
X41049999Y-51194133D01*
X41025495Y-51192929D01*
X41001227Y-51189329D01*
X40977428Y-51183368D01*
X40954329Y-51175103D01*
X40932150Y-51164613D01*
X40911107Y-51152001D01*
X40891401Y-51137386D01*
X40873223Y-51120910D01*
X40856747Y-51102732D01*
X40842132Y-51083026D01*
X40829520Y-51061983D01*
X40819030Y-51039804D01*
X40810765Y-51016705D01*
X40804804Y-50992906D01*
X40801204Y-50968638D01*
X40800000Y-50944134D01*
X40800000Y-48094132D01*
X40801204Y-48069628D01*
X40804804Y-48045360D01*
X40810765Y-48021561D01*
X40819030Y-47998462D01*
X40829520Y-47976283D01*
X40842132Y-47955240D01*
X40856747Y-47935534D01*
X40873223Y-47917356D01*
X40891401Y-47900880D01*
X40911107Y-47886265D01*
X40932150Y-47873653D01*
X40954329Y-47863163D01*
X40977428Y-47854898D01*
X41001227Y-47848937D01*
X41025495Y-47845337D01*
X41049999Y-47844133D01*
X41900001Y-47844133D01*
X41924505Y-47845337D01*
X41924505Y-47845337D01*
G37*
D21*
X41475000Y-49519133D03*
G04 #@! TD*
D13*
G04 #@! TO.C,2816*
G36*
X48174503Y-57149270D02*
X48198772Y-57152870D01*
X48222570Y-57158831D01*
X48245670Y-57167096D01*
X48267849Y-57177586D01*
X48288892Y-57190199D01*
X48308598Y-57204814D01*
X48326776Y-57221290D01*
X48343252Y-57239468D01*
X48357867Y-57259174D01*
X48370480Y-57280217D01*
X48380970Y-57302396D01*
X48389235Y-57325496D01*
X48395196Y-57349294D01*
X48398796Y-57373563D01*
X48400000Y-57398067D01*
X48400000Y-61348065D01*
X48398796Y-61372569D01*
X48395196Y-61396838D01*
X48389235Y-61420636D01*
X48380970Y-61443736D01*
X48370480Y-61465915D01*
X48357867Y-61486958D01*
X48343252Y-61506664D01*
X48326776Y-61524842D01*
X48308598Y-61541318D01*
X48288892Y-61555933D01*
X48267849Y-61568546D01*
X48245670Y-61579036D01*
X48222570Y-61587301D01*
X48198772Y-61593262D01*
X48174503Y-61596862D01*
X48149999Y-61598066D01*
X45625001Y-61598066D01*
X45600497Y-61596862D01*
X45576228Y-61593262D01*
X45552430Y-61587301D01*
X45529330Y-61579036D01*
X45507151Y-61568546D01*
X45486108Y-61555933D01*
X45466402Y-61541318D01*
X45448224Y-61524842D01*
X45431748Y-61506664D01*
X45417133Y-61486958D01*
X45404520Y-61465915D01*
X45394030Y-61443736D01*
X45385765Y-61420636D01*
X45379804Y-61396838D01*
X45376204Y-61372569D01*
X45375000Y-61348065D01*
X45375000Y-57398067D01*
X45376204Y-57373563D01*
X45379804Y-57349294D01*
X45385765Y-57325496D01*
X45394030Y-57302396D01*
X45404520Y-57280217D01*
X45417133Y-57259174D01*
X45431748Y-57239468D01*
X45448224Y-57221290D01*
X45466402Y-57204814D01*
X45486108Y-57190199D01*
X45507151Y-57177586D01*
X45529330Y-57167096D01*
X45552430Y-57158831D01*
X45576228Y-57152870D01*
X45600497Y-57149270D01*
X45625001Y-57148066D01*
X48149999Y-57148066D01*
X48174503Y-57149270D01*
X48174503Y-57149270D01*
G37*
D28*
X46887500Y-59373066D03*
D13*
G36*
X43149503Y-57149270D02*
X43173772Y-57152870D01*
X43197570Y-57158831D01*
X43220670Y-57167096D01*
X43242849Y-57177586D01*
X43263892Y-57190199D01*
X43283598Y-57204814D01*
X43301776Y-57221290D01*
X43318252Y-57239468D01*
X43332867Y-57259174D01*
X43345480Y-57280217D01*
X43355970Y-57302396D01*
X43364235Y-57325496D01*
X43370196Y-57349294D01*
X43373796Y-57373563D01*
X43375000Y-57398067D01*
X43375000Y-61348065D01*
X43373796Y-61372569D01*
X43370196Y-61396838D01*
X43364235Y-61420636D01*
X43355970Y-61443736D01*
X43345480Y-61465915D01*
X43332867Y-61486958D01*
X43318252Y-61506664D01*
X43301776Y-61524842D01*
X43283598Y-61541318D01*
X43263892Y-61555933D01*
X43242849Y-61568546D01*
X43220670Y-61579036D01*
X43197570Y-61587301D01*
X43173772Y-61593262D01*
X43149503Y-61596862D01*
X43124999Y-61598066D01*
X40600001Y-61598066D01*
X40575497Y-61596862D01*
X40551228Y-61593262D01*
X40527430Y-61587301D01*
X40504330Y-61579036D01*
X40482151Y-61568546D01*
X40461108Y-61555933D01*
X40441402Y-61541318D01*
X40423224Y-61524842D01*
X40406748Y-61506664D01*
X40392133Y-61486958D01*
X40379520Y-61465915D01*
X40369030Y-61443736D01*
X40360765Y-61420636D01*
X40354804Y-61396838D01*
X40351204Y-61372569D01*
X40350000Y-61348065D01*
X40350000Y-57398067D01*
X40351204Y-57373563D01*
X40354804Y-57349294D01*
X40360765Y-57325496D01*
X40369030Y-57302396D01*
X40379520Y-57280217D01*
X40392133Y-57259174D01*
X40406748Y-57239468D01*
X40423224Y-57221290D01*
X40441402Y-57204814D01*
X40461108Y-57190199D01*
X40482151Y-57177586D01*
X40504330Y-57167096D01*
X40527430Y-57158831D01*
X40551228Y-57152870D01*
X40575497Y-57149270D01*
X40600001Y-57148066D01*
X43124999Y-57148066D01*
X43149503Y-57149270D01*
X43149503Y-57149270D01*
G37*
D28*
X41862500Y-59373066D03*
G04 #@! TD*
D13*
G04 #@! TO.C,4020*
G36*
X49699504Y-67558204D02*
X49723773Y-67561804D01*
X49747571Y-67567765D01*
X49770671Y-67576030D01*
X49792849Y-67586520D01*
X49813893Y-67599133D01*
X49833598Y-67613747D01*
X49851777Y-67630223D01*
X49868253Y-67648402D01*
X49882867Y-67668107D01*
X49895480Y-67689151D01*
X49905970Y-67711329D01*
X49914235Y-67734429D01*
X49920196Y-67758227D01*
X49923796Y-67782496D01*
X49925000Y-67807000D01*
X49925000Y-72607000D01*
X49923796Y-72631504D01*
X49920196Y-72655773D01*
X49914235Y-72679571D01*
X49905970Y-72702671D01*
X49895480Y-72724849D01*
X49882867Y-72745893D01*
X49868253Y-72765598D01*
X49851777Y-72783777D01*
X49833598Y-72800253D01*
X49813893Y-72814867D01*
X49792849Y-72827480D01*
X49770671Y-72837970D01*
X49747571Y-72846235D01*
X49723773Y-72852196D01*
X49699504Y-72855796D01*
X49675000Y-72857000D01*
X48700000Y-72857000D01*
X48675496Y-72855796D01*
X48651227Y-72852196D01*
X48627429Y-72846235D01*
X48604329Y-72837970D01*
X48582151Y-72827480D01*
X48561107Y-72814867D01*
X48541402Y-72800253D01*
X48523223Y-72783777D01*
X48506747Y-72765598D01*
X48492133Y-72745893D01*
X48479520Y-72724849D01*
X48469030Y-72702671D01*
X48460765Y-72679571D01*
X48454804Y-72655773D01*
X48451204Y-72631504D01*
X48450000Y-72607000D01*
X48450000Y-67807000D01*
X48451204Y-67782496D01*
X48454804Y-67758227D01*
X48460765Y-67734429D01*
X48469030Y-67711329D01*
X48479520Y-67689151D01*
X48492133Y-67668107D01*
X48506747Y-67648402D01*
X48523223Y-67630223D01*
X48541402Y-67613747D01*
X48561107Y-67599133D01*
X48582151Y-67586520D01*
X48604329Y-67576030D01*
X48627429Y-67567765D01*
X48651227Y-67561804D01*
X48675496Y-67558204D01*
X48700000Y-67557000D01*
X49675000Y-67557000D01*
X49699504Y-67558204D01*
X49699504Y-67558204D01*
G37*
D29*
X49187500Y-70207000D03*
D13*
G36*
X40074504Y-67558204D02*
X40098773Y-67561804D01*
X40122571Y-67567765D01*
X40145671Y-67576030D01*
X40167849Y-67586520D01*
X40188893Y-67599133D01*
X40208598Y-67613747D01*
X40226777Y-67630223D01*
X40243253Y-67648402D01*
X40257867Y-67668107D01*
X40270480Y-67689151D01*
X40280970Y-67711329D01*
X40289235Y-67734429D01*
X40295196Y-67758227D01*
X40298796Y-67782496D01*
X40300000Y-67807000D01*
X40300000Y-72607000D01*
X40298796Y-72631504D01*
X40295196Y-72655773D01*
X40289235Y-72679571D01*
X40280970Y-72702671D01*
X40270480Y-72724849D01*
X40257867Y-72745893D01*
X40243253Y-72765598D01*
X40226777Y-72783777D01*
X40208598Y-72800253D01*
X40188893Y-72814867D01*
X40167849Y-72827480D01*
X40145671Y-72837970D01*
X40122571Y-72846235D01*
X40098773Y-72852196D01*
X40074504Y-72855796D01*
X40050000Y-72857000D01*
X39075000Y-72857000D01*
X39050496Y-72855796D01*
X39026227Y-72852196D01*
X39002429Y-72846235D01*
X38979329Y-72837970D01*
X38957151Y-72827480D01*
X38936107Y-72814867D01*
X38916402Y-72800253D01*
X38898223Y-72783777D01*
X38881747Y-72765598D01*
X38867133Y-72745893D01*
X38854520Y-72724849D01*
X38844030Y-72702671D01*
X38835765Y-72679571D01*
X38829804Y-72655773D01*
X38826204Y-72631504D01*
X38825000Y-72607000D01*
X38825000Y-67807000D01*
X38826204Y-67782496D01*
X38829804Y-67758227D01*
X38835765Y-67734429D01*
X38844030Y-67711329D01*
X38854520Y-67689151D01*
X38867133Y-67668107D01*
X38881747Y-67648402D01*
X38898223Y-67630223D01*
X38916402Y-67613747D01*
X38936107Y-67599133D01*
X38957151Y-67586520D01*
X38979329Y-67576030D01*
X39002429Y-67567765D01*
X39026227Y-67561804D01*
X39050496Y-67558204D01*
X39075000Y-67557000D01*
X40050000Y-67557000D01*
X40074504Y-67558204D01*
X40074504Y-67558204D01*
G37*
D29*
X39562500Y-70207000D03*
G04 #@! TD*
D13*
G04 #@! TO.C,1825*
G36*
X190309704Y-41839204D02*
X190333973Y-41842804D01*
X190357771Y-41848765D01*
X190380871Y-41857030D01*
X190403049Y-41867520D01*
X190424093Y-41880133D01*
X190443798Y-41894747D01*
X190461977Y-41911223D01*
X190478453Y-41929402D01*
X190493067Y-41949107D01*
X190505680Y-41970151D01*
X190516170Y-41992329D01*
X190524435Y-42015429D01*
X190530396Y-42039227D01*
X190533996Y-42063496D01*
X190535200Y-42088000D01*
X190535200Y-48288000D01*
X190533996Y-48312504D01*
X190530396Y-48336773D01*
X190524435Y-48360571D01*
X190516170Y-48383671D01*
X190505680Y-48405849D01*
X190493067Y-48426893D01*
X190478453Y-48446598D01*
X190461977Y-48464777D01*
X190443798Y-48481253D01*
X190424093Y-48495867D01*
X190403049Y-48508480D01*
X190380871Y-48518970D01*
X190357771Y-48527235D01*
X190333973Y-48533196D01*
X190309704Y-48536796D01*
X190285200Y-48538000D01*
X189085200Y-48538000D01*
X189060696Y-48536796D01*
X189036427Y-48533196D01*
X189012629Y-48527235D01*
X188989529Y-48518970D01*
X188967351Y-48508480D01*
X188946307Y-48495867D01*
X188926602Y-48481253D01*
X188908423Y-48464777D01*
X188891947Y-48446598D01*
X188877333Y-48426893D01*
X188864720Y-48405849D01*
X188854230Y-48383671D01*
X188845965Y-48360571D01*
X188840004Y-48336773D01*
X188836404Y-48312504D01*
X188835200Y-48288000D01*
X188835200Y-42088000D01*
X188836404Y-42063496D01*
X188840004Y-42039227D01*
X188845965Y-42015429D01*
X188854230Y-41992329D01*
X188864720Y-41970151D01*
X188877333Y-41949107D01*
X188891947Y-41929402D01*
X188908423Y-41911223D01*
X188926602Y-41894747D01*
X188946307Y-41880133D01*
X188967351Y-41867520D01*
X188989529Y-41857030D01*
X189012629Y-41848765D01*
X189036427Y-41842804D01*
X189060696Y-41839204D01*
X189085200Y-41838000D01*
X190285200Y-41838000D01*
X190309704Y-41839204D01*
X190309704Y-41839204D01*
G37*
D30*
X189685200Y-45188000D03*
D13*
G36*
X194409704Y-41839204D02*
X194433973Y-41842804D01*
X194457771Y-41848765D01*
X194480871Y-41857030D01*
X194503049Y-41867520D01*
X194524093Y-41880133D01*
X194543798Y-41894747D01*
X194561977Y-41911223D01*
X194578453Y-41929402D01*
X194593067Y-41949107D01*
X194605680Y-41970151D01*
X194616170Y-41992329D01*
X194624435Y-42015429D01*
X194630396Y-42039227D01*
X194633996Y-42063496D01*
X194635200Y-42088000D01*
X194635200Y-48288000D01*
X194633996Y-48312504D01*
X194630396Y-48336773D01*
X194624435Y-48360571D01*
X194616170Y-48383671D01*
X194605680Y-48405849D01*
X194593067Y-48426893D01*
X194578453Y-48446598D01*
X194561977Y-48464777D01*
X194543798Y-48481253D01*
X194524093Y-48495867D01*
X194503049Y-48508480D01*
X194480871Y-48518970D01*
X194457771Y-48527235D01*
X194433973Y-48533196D01*
X194409704Y-48536796D01*
X194385200Y-48538000D01*
X193185200Y-48538000D01*
X193160696Y-48536796D01*
X193136427Y-48533196D01*
X193112629Y-48527235D01*
X193089529Y-48518970D01*
X193067351Y-48508480D01*
X193046307Y-48495867D01*
X193026602Y-48481253D01*
X193008423Y-48464777D01*
X192991947Y-48446598D01*
X192977333Y-48426893D01*
X192964720Y-48405849D01*
X192954230Y-48383671D01*
X192945965Y-48360571D01*
X192940004Y-48336773D01*
X192936404Y-48312504D01*
X192935200Y-48288000D01*
X192935200Y-42088000D01*
X192936404Y-42063496D01*
X192940004Y-42039227D01*
X192945965Y-42015429D01*
X192954230Y-41992329D01*
X192964720Y-41970151D01*
X192977333Y-41949107D01*
X192991947Y-41929402D01*
X193008423Y-41911223D01*
X193026602Y-41894747D01*
X193046307Y-41880133D01*
X193067351Y-41867520D01*
X193089529Y-41857030D01*
X193112629Y-41848765D01*
X193136427Y-41842804D01*
X193160696Y-41839204D01*
X193185200Y-41838000D01*
X194385200Y-41838000D01*
X194409704Y-41839204D01*
X194409704Y-41839204D01*
G37*
D30*
X193785200Y-45188000D03*
G04 #@! TD*
D13*
G04 #@! TO.C,2220*
G36*
X208640144Y-48286604D02*
X208664413Y-48290204D01*
X208688211Y-48296165D01*
X208711311Y-48304430D01*
X208733489Y-48314920D01*
X208754533Y-48327533D01*
X208774238Y-48342147D01*
X208792417Y-48358623D01*
X208808893Y-48376802D01*
X208823507Y-48396507D01*
X208836120Y-48417551D01*
X208846610Y-48439729D01*
X208854875Y-48462829D01*
X208860836Y-48486627D01*
X208864436Y-48510896D01*
X208865640Y-48535400D01*
X208865640Y-53435400D01*
X208864436Y-53459904D01*
X208860836Y-53484173D01*
X208854875Y-53507971D01*
X208846610Y-53531071D01*
X208836120Y-53553249D01*
X208823507Y-53574293D01*
X208808893Y-53593998D01*
X208792417Y-53612177D01*
X208774238Y-53628653D01*
X208754533Y-53643267D01*
X208733489Y-53655880D01*
X208711311Y-53666370D01*
X208688211Y-53674635D01*
X208664413Y-53680596D01*
X208640144Y-53684196D01*
X208615640Y-53685400D01*
X207315640Y-53685400D01*
X207291136Y-53684196D01*
X207266867Y-53680596D01*
X207243069Y-53674635D01*
X207219969Y-53666370D01*
X207197791Y-53655880D01*
X207176747Y-53643267D01*
X207157042Y-53628653D01*
X207138863Y-53612177D01*
X207122387Y-53593998D01*
X207107773Y-53574293D01*
X207095160Y-53553249D01*
X207084670Y-53531071D01*
X207076405Y-53507971D01*
X207070444Y-53484173D01*
X207066844Y-53459904D01*
X207065640Y-53435400D01*
X207065640Y-48535400D01*
X207066844Y-48510896D01*
X207070444Y-48486627D01*
X207076405Y-48462829D01*
X207084670Y-48439729D01*
X207095160Y-48417551D01*
X207107773Y-48396507D01*
X207122387Y-48376802D01*
X207138863Y-48358623D01*
X207157042Y-48342147D01*
X207176747Y-48327533D01*
X207197791Y-48314920D01*
X207219969Y-48304430D01*
X207243069Y-48296165D01*
X207266867Y-48290204D01*
X207291136Y-48286604D01*
X207315640Y-48285400D01*
X208615640Y-48285400D01*
X208640144Y-48286604D01*
X208640144Y-48286604D01*
G37*
D31*
X207965640Y-50985400D03*
D13*
G36*
X203540144Y-48286604D02*
X203564413Y-48290204D01*
X203588211Y-48296165D01*
X203611311Y-48304430D01*
X203633489Y-48314920D01*
X203654533Y-48327533D01*
X203674238Y-48342147D01*
X203692417Y-48358623D01*
X203708893Y-48376802D01*
X203723507Y-48396507D01*
X203736120Y-48417551D01*
X203746610Y-48439729D01*
X203754875Y-48462829D01*
X203760836Y-48486627D01*
X203764436Y-48510896D01*
X203765640Y-48535400D01*
X203765640Y-53435400D01*
X203764436Y-53459904D01*
X203760836Y-53484173D01*
X203754875Y-53507971D01*
X203746610Y-53531071D01*
X203736120Y-53553249D01*
X203723507Y-53574293D01*
X203708893Y-53593998D01*
X203692417Y-53612177D01*
X203674238Y-53628653D01*
X203654533Y-53643267D01*
X203633489Y-53655880D01*
X203611311Y-53666370D01*
X203588211Y-53674635D01*
X203564413Y-53680596D01*
X203540144Y-53684196D01*
X203515640Y-53685400D01*
X202215640Y-53685400D01*
X202191136Y-53684196D01*
X202166867Y-53680596D01*
X202143069Y-53674635D01*
X202119969Y-53666370D01*
X202097791Y-53655880D01*
X202076747Y-53643267D01*
X202057042Y-53628653D01*
X202038863Y-53612177D01*
X202022387Y-53593998D01*
X202007773Y-53574293D01*
X201995160Y-53553249D01*
X201984670Y-53531071D01*
X201976405Y-53507971D01*
X201970444Y-53484173D01*
X201966844Y-53459904D01*
X201965640Y-53435400D01*
X201965640Y-48535400D01*
X201966844Y-48510896D01*
X201970444Y-48486627D01*
X201976405Y-48462829D01*
X201984670Y-48439729D01*
X201995160Y-48417551D01*
X202007773Y-48396507D01*
X202022387Y-48376802D01*
X202038863Y-48358623D01*
X202057042Y-48342147D01*
X202076747Y-48327533D01*
X202097791Y-48314920D01*
X202119969Y-48304430D01*
X202143069Y-48296165D01*
X202166867Y-48290204D01*
X202191136Y-48286604D01*
X202215640Y-48285400D01*
X203515640Y-48285400D01*
X203540144Y-48286604D01*
X203540144Y-48286604D01*
G37*
D31*
X202865640Y-50985400D03*
G04 #@! TD*
D13*
G04 #@! TO.C,2225*
G36*
X189784705Y-52709404D02*
X189808973Y-52713004D01*
X189832772Y-52718965D01*
X189855871Y-52727230D01*
X189878050Y-52737720D01*
X189899093Y-52750332D01*
X189918799Y-52764947D01*
X189936977Y-52781423D01*
X189953453Y-52799601D01*
X189968068Y-52819307D01*
X189980680Y-52840350D01*
X189991170Y-52862529D01*
X189999435Y-52885628D01*
X190005396Y-52909427D01*
X190008996Y-52933695D01*
X190010200Y-52958199D01*
X190010200Y-59058201D01*
X190008996Y-59082705D01*
X190005396Y-59106973D01*
X189999435Y-59130772D01*
X189991170Y-59153871D01*
X189980680Y-59176050D01*
X189968068Y-59197093D01*
X189953453Y-59216799D01*
X189936977Y-59234977D01*
X189918799Y-59251453D01*
X189899093Y-59266068D01*
X189878050Y-59278680D01*
X189855871Y-59289170D01*
X189832772Y-59297435D01*
X189808973Y-59303396D01*
X189784705Y-59306996D01*
X189760201Y-59308200D01*
X188635199Y-59308200D01*
X188610695Y-59306996D01*
X188586427Y-59303396D01*
X188562628Y-59297435D01*
X188539529Y-59289170D01*
X188517350Y-59278680D01*
X188496307Y-59266068D01*
X188476601Y-59251453D01*
X188458423Y-59234977D01*
X188441947Y-59216799D01*
X188427332Y-59197093D01*
X188414720Y-59176050D01*
X188404230Y-59153871D01*
X188395965Y-59130772D01*
X188390004Y-59106973D01*
X188386404Y-59082705D01*
X188385200Y-59058201D01*
X188385200Y-52958199D01*
X188386404Y-52933695D01*
X188390004Y-52909427D01*
X188395965Y-52885628D01*
X188404230Y-52862529D01*
X188414720Y-52840350D01*
X188427332Y-52819307D01*
X188441947Y-52799601D01*
X188458423Y-52781423D01*
X188476601Y-52764947D01*
X188496307Y-52750332D01*
X188517350Y-52737720D01*
X188539529Y-52727230D01*
X188562628Y-52718965D01*
X188586427Y-52713004D01*
X188610695Y-52709404D01*
X188635199Y-52708200D01*
X189760201Y-52708200D01*
X189784705Y-52709404D01*
X189784705Y-52709404D01*
G37*
D32*
X189197700Y-56008200D03*
D13*
G36*
X194859705Y-52709404D02*
X194883973Y-52713004D01*
X194907772Y-52718965D01*
X194930871Y-52727230D01*
X194953050Y-52737720D01*
X194974093Y-52750332D01*
X194993799Y-52764947D01*
X195011977Y-52781423D01*
X195028453Y-52799601D01*
X195043068Y-52819307D01*
X195055680Y-52840350D01*
X195066170Y-52862529D01*
X195074435Y-52885628D01*
X195080396Y-52909427D01*
X195083996Y-52933695D01*
X195085200Y-52958199D01*
X195085200Y-59058201D01*
X195083996Y-59082705D01*
X195080396Y-59106973D01*
X195074435Y-59130772D01*
X195066170Y-59153871D01*
X195055680Y-59176050D01*
X195043068Y-59197093D01*
X195028453Y-59216799D01*
X195011977Y-59234977D01*
X194993799Y-59251453D01*
X194974093Y-59266068D01*
X194953050Y-59278680D01*
X194930871Y-59289170D01*
X194907772Y-59297435D01*
X194883973Y-59303396D01*
X194859705Y-59306996D01*
X194835201Y-59308200D01*
X193710199Y-59308200D01*
X193685695Y-59306996D01*
X193661427Y-59303396D01*
X193637628Y-59297435D01*
X193614529Y-59289170D01*
X193592350Y-59278680D01*
X193571307Y-59266068D01*
X193551601Y-59251453D01*
X193533423Y-59234977D01*
X193516947Y-59216799D01*
X193502332Y-59197093D01*
X193489720Y-59176050D01*
X193479230Y-59153871D01*
X193470965Y-59130772D01*
X193465004Y-59106973D01*
X193461404Y-59082705D01*
X193460200Y-59058201D01*
X193460200Y-52958199D01*
X193461404Y-52933695D01*
X193465004Y-52909427D01*
X193470965Y-52885628D01*
X193479230Y-52862529D01*
X193489720Y-52840350D01*
X193502332Y-52819307D01*
X193516947Y-52799601D01*
X193533423Y-52781423D01*
X193551601Y-52764947D01*
X193571307Y-52750332D01*
X193592350Y-52737720D01*
X193614529Y-52727230D01*
X193637628Y-52718965D01*
X193661427Y-52713004D01*
X193685695Y-52709404D01*
X193710199Y-52708200D01*
X194835201Y-52708200D01*
X194859705Y-52709404D01*
X194859705Y-52709404D01*
G37*
D32*
X194272700Y-56008200D03*
G04 #@! TD*
D13*
G04 #@! TO.C,3640*
G36*
X188384705Y-63484604D02*
X188408973Y-63488204D01*
X188432772Y-63494165D01*
X188455871Y-63502430D01*
X188478050Y-63512920D01*
X188499093Y-63525532D01*
X188518799Y-63540147D01*
X188536977Y-63556623D01*
X188553453Y-63574801D01*
X188568068Y-63594507D01*
X188580680Y-63615550D01*
X188591170Y-63637729D01*
X188599435Y-63660828D01*
X188605396Y-63684627D01*
X188608996Y-63708895D01*
X188610200Y-63733399D01*
X188610200Y-73683401D01*
X188608996Y-73707905D01*
X188605396Y-73732173D01*
X188599435Y-73755972D01*
X188591170Y-73779071D01*
X188580680Y-73801250D01*
X188568068Y-73822293D01*
X188553453Y-73841999D01*
X188536977Y-73860177D01*
X188518799Y-73876653D01*
X188499093Y-73891268D01*
X188478050Y-73903880D01*
X188455871Y-73914370D01*
X188432772Y-73922635D01*
X188408973Y-73928596D01*
X188384705Y-73932196D01*
X188360201Y-73933400D01*
X186935199Y-73933400D01*
X186910695Y-73932196D01*
X186886427Y-73928596D01*
X186862628Y-73922635D01*
X186839529Y-73914370D01*
X186817350Y-73903880D01*
X186796307Y-73891268D01*
X186776601Y-73876653D01*
X186758423Y-73860177D01*
X186741947Y-73841999D01*
X186727332Y-73822293D01*
X186714720Y-73801250D01*
X186704230Y-73779071D01*
X186695965Y-73755972D01*
X186690004Y-73732173D01*
X186686404Y-73707905D01*
X186685200Y-73683401D01*
X186685200Y-63733399D01*
X186686404Y-63708895D01*
X186690004Y-63684627D01*
X186695965Y-63660828D01*
X186704230Y-63637729D01*
X186714720Y-63615550D01*
X186727332Y-63594507D01*
X186741947Y-63574801D01*
X186758423Y-63556623D01*
X186776601Y-63540147D01*
X186796307Y-63525532D01*
X186817350Y-63512920D01*
X186839529Y-63502430D01*
X186862628Y-63494165D01*
X186886427Y-63488204D01*
X186910695Y-63484604D01*
X186935199Y-63483400D01*
X188360201Y-63483400D01*
X188384705Y-63484604D01*
X188384705Y-63484604D01*
G37*
D33*
X187647700Y-68708400D03*
D13*
G36*
X196559705Y-63484604D02*
X196583973Y-63488204D01*
X196607772Y-63494165D01*
X196630871Y-63502430D01*
X196653050Y-63512920D01*
X196674093Y-63525532D01*
X196693799Y-63540147D01*
X196711977Y-63556623D01*
X196728453Y-63574801D01*
X196743068Y-63594507D01*
X196755680Y-63615550D01*
X196766170Y-63637729D01*
X196774435Y-63660828D01*
X196780396Y-63684627D01*
X196783996Y-63708895D01*
X196785200Y-63733399D01*
X196785200Y-73683401D01*
X196783996Y-73707905D01*
X196780396Y-73732173D01*
X196774435Y-73755972D01*
X196766170Y-73779071D01*
X196755680Y-73801250D01*
X196743068Y-73822293D01*
X196728453Y-73841999D01*
X196711977Y-73860177D01*
X196693799Y-73876653D01*
X196674093Y-73891268D01*
X196653050Y-73903880D01*
X196630871Y-73914370D01*
X196607772Y-73922635D01*
X196583973Y-73928596D01*
X196559705Y-73932196D01*
X196535201Y-73933400D01*
X195110199Y-73933400D01*
X195085695Y-73932196D01*
X195061427Y-73928596D01*
X195037628Y-73922635D01*
X195014529Y-73914370D01*
X194992350Y-73903880D01*
X194971307Y-73891268D01*
X194951601Y-73876653D01*
X194933423Y-73860177D01*
X194916947Y-73841999D01*
X194902332Y-73822293D01*
X194889720Y-73801250D01*
X194879230Y-73779071D01*
X194870965Y-73755972D01*
X194865004Y-73732173D01*
X194861404Y-73707905D01*
X194860200Y-73683401D01*
X194860200Y-63733399D01*
X194861404Y-63708895D01*
X194865004Y-63684627D01*
X194870965Y-63660828D01*
X194879230Y-63637729D01*
X194889720Y-63615550D01*
X194902332Y-63594507D01*
X194916947Y-63574801D01*
X194933423Y-63556623D01*
X194951601Y-63540147D01*
X194971307Y-63525532D01*
X194992350Y-63512920D01*
X195014529Y-63502430D01*
X195037628Y-63494165D01*
X195061427Y-63488204D01*
X195085695Y-63484604D01*
X195110199Y-63483400D01*
X196535201Y-63483400D01*
X196559705Y-63484604D01*
X196559705Y-63484604D01*
G37*
D33*
X195822700Y-68708400D03*
G04 #@! TD*
D13*
G04 #@! TO.C,0201*
G36*
X219602032Y-41786208D02*
X219609750Y-41787353D01*
X219617318Y-41789248D01*
X219624663Y-41791877D01*
X219631716Y-41795212D01*
X219638408Y-41799223D01*
X219644674Y-41803871D01*
X219650455Y-41809110D01*
X219655694Y-41814891D01*
X219660342Y-41821157D01*
X219664353Y-41827849D01*
X219667688Y-41834902D01*
X219670317Y-41842247D01*
X219672212Y-41849815D01*
X219673357Y-41857533D01*
X219673740Y-41865325D01*
X219673740Y-42066325D01*
X219673357Y-42074117D01*
X219672212Y-42081835D01*
X219670317Y-42089403D01*
X219667688Y-42096748D01*
X219664353Y-42103801D01*
X219660342Y-42110493D01*
X219655694Y-42116759D01*
X219650455Y-42122540D01*
X219644674Y-42127779D01*
X219638408Y-42132427D01*
X219631716Y-42136438D01*
X219624663Y-42139773D01*
X219617318Y-42142402D01*
X219609750Y-42144297D01*
X219602032Y-42145442D01*
X219594240Y-42145825D01*
X219435240Y-42145825D01*
X219427448Y-42145442D01*
X219419730Y-42144297D01*
X219412162Y-42142402D01*
X219404817Y-42139773D01*
X219397764Y-42136438D01*
X219391072Y-42132427D01*
X219384806Y-42127779D01*
X219379025Y-42122540D01*
X219373786Y-42116759D01*
X219369138Y-42110493D01*
X219365127Y-42103801D01*
X219361792Y-42096748D01*
X219359163Y-42089403D01*
X219357268Y-42081835D01*
X219356123Y-42074117D01*
X219355740Y-42066325D01*
X219355740Y-41865325D01*
X219356123Y-41857533D01*
X219357268Y-41849815D01*
X219359163Y-41842247D01*
X219361792Y-41834902D01*
X219365127Y-41827849D01*
X219369138Y-41821157D01*
X219373786Y-41814891D01*
X219379025Y-41809110D01*
X219384806Y-41803871D01*
X219391072Y-41799223D01*
X219397764Y-41795212D01*
X219404817Y-41791877D01*
X219412162Y-41789248D01*
X219419730Y-41787353D01*
X219427448Y-41786208D01*
X219435240Y-41785825D01*
X219594240Y-41785825D01*
X219602032Y-41786208D01*
X219602032Y-41786208D01*
G37*
D16*
X219514740Y-41965825D03*
D13*
G36*
X218912032Y-41786208D02*
X218919750Y-41787353D01*
X218927318Y-41789248D01*
X218934663Y-41791877D01*
X218941716Y-41795212D01*
X218948408Y-41799223D01*
X218954674Y-41803871D01*
X218960455Y-41809110D01*
X218965694Y-41814891D01*
X218970342Y-41821157D01*
X218974353Y-41827849D01*
X218977688Y-41834902D01*
X218980317Y-41842247D01*
X218982212Y-41849815D01*
X218983357Y-41857533D01*
X218983740Y-41865325D01*
X218983740Y-42066325D01*
X218983357Y-42074117D01*
X218982212Y-42081835D01*
X218980317Y-42089403D01*
X218977688Y-42096748D01*
X218974353Y-42103801D01*
X218970342Y-42110493D01*
X218965694Y-42116759D01*
X218960455Y-42122540D01*
X218954674Y-42127779D01*
X218948408Y-42132427D01*
X218941716Y-42136438D01*
X218934663Y-42139773D01*
X218927318Y-42142402D01*
X218919750Y-42144297D01*
X218912032Y-42145442D01*
X218904240Y-42145825D01*
X218745240Y-42145825D01*
X218737448Y-42145442D01*
X218729730Y-42144297D01*
X218722162Y-42142402D01*
X218714817Y-42139773D01*
X218707764Y-42136438D01*
X218701072Y-42132427D01*
X218694806Y-42127779D01*
X218689025Y-42122540D01*
X218683786Y-42116759D01*
X218679138Y-42110493D01*
X218675127Y-42103801D01*
X218671792Y-42096748D01*
X218669163Y-42089403D01*
X218667268Y-42081835D01*
X218666123Y-42074117D01*
X218665740Y-42066325D01*
X218665740Y-41865325D01*
X218666123Y-41857533D01*
X218667268Y-41849815D01*
X218669163Y-41842247D01*
X218671792Y-41834902D01*
X218675127Y-41827849D01*
X218679138Y-41821157D01*
X218683786Y-41814891D01*
X218689025Y-41809110D01*
X218694806Y-41803871D01*
X218701072Y-41799223D01*
X218707764Y-41795212D01*
X218714817Y-41791877D01*
X218722162Y-41789248D01*
X218729730Y-41787353D01*
X218737448Y-41786208D01*
X218745240Y-41785825D01*
X218904240Y-41785825D01*
X218912032Y-41786208D01*
X218912032Y-41786208D01*
G37*
D16*
X218824740Y-41965825D03*
G04 #@! TD*
D13*
G04 #@! TO.C,0402*
G36*
X219816698Y-44766560D02*
X219831016Y-44768684D01*
X219845057Y-44772201D01*
X219858686Y-44777078D01*
X219871771Y-44783267D01*
X219884187Y-44790708D01*
X219895813Y-44799331D01*
X219906538Y-44809052D01*
X219916259Y-44819777D01*
X219924882Y-44831403D01*
X219932323Y-44843819D01*
X219938512Y-44856904D01*
X219943389Y-44870533D01*
X219946906Y-44884574D01*
X219949030Y-44898892D01*
X219949740Y-44913350D01*
X219949740Y-45258350D01*
X219949030Y-45272808D01*
X219946906Y-45287126D01*
X219943389Y-45301167D01*
X219938512Y-45314796D01*
X219932323Y-45327881D01*
X219924882Y-45340297D01*
X219916259Y-45351923D01*
X219906538Y-45362648D01*
X219895813Y-45372369D01*
X219884187Y-45380992D01*
X219871771Y-45388433D01*
X219858686Y-45394622D01*
X219845057Y-45399499D01*
X219831016Y-45403016D01*
X219816698Y-45405140D01*
X219802240Y-45405850D01*
X219507240Y-45405850D01*
X219492782Y-45405140D01*
X219478464Y-45403016D01*
X219464423Y-45399499D01*
X219450794Y-45394622D01*
X219437709Y-45388433D01*
X219425293Y-45380992D01*
X219413667Y-45372369D01*
X219402942Y-45362648D01*
X219393221Y-45351923D01*
X219384598Y-45340297D01*
X219377157Y-45327881D01*
X219370968Y-45314796D01*
X219366091Y-45301167D01*
X219362574Y-45287126D01*
X219360450Y-45272808D01*
X219359740Y-45258350D01*
X219359740Y-44913350D01*
X219360450Y-44898892D01*
X219362574Y-44884574D01*
X219366091Y-44870533D01*
X219370968Y-44856904D01*
X219377157Y-44843819D01*
X219384598Y-44831403D01*
X219393221Y-44819777D01*
X219402942Y-44809052D01*
X219413667Y-44799331D01*
X219425293Y-44790708D01*
X219437709Y-44783267D01*
X219450794Y-44777078D01*
X219464423Y-44772201D01*
X219478464Y-44768684D01*
X219492782Y-44766560D01*
X219507240Y-44765850D01*
X219802240Y-44765850D01*
X219816698Y-44766560D01*
X219816698Y-44766560D01*
G37*
D17*
X219654740Y-45085850D03*
D13*
G36*
X218846698Y-44766560D02*
X218861016Y-44768684D01*
X218875057Y-44772201D01*
X218888686Y-44777078D01*
X218901771Y-44783267D01*
X218914187Y-44790708D01*
X218925813Y-44799331D01*
X218936538Y-44809052D01*
X218946259Y-44819777D01*
X218954882Y-44831403D01*
X218962323Y-44843819D01*
X218968512Y-44856904D01*
X218973389Y-44870533D01*
X218976906Y-44884574D01*
X218979030Y-44898892D01*
X218979740Y-44913350D01*
X218979740Y-45258350D01*
X218979030Y-45272808D01*
X218976906Y-45287126D01*
X218973389Y-45301167D01*
X218968512Y-45314796D01*
X218962323Y-45327881D01*
X218954882Y-45340297D01*
X218946259Y-45351923D01*
X218936538Y-45362648D01*
X218925813Y-45372369D01*
X218914187Y-45380992D01*
X218901771Y-45388433D01*
X218888686Y-45394622D01*
X218875057Y-45399499D01*
X218861016Y-45403016D01*
X218846698Y-45405140D01*
X218832240Y-45405850D01*
X218537240Y-45405850D01*
X218522782Y-45405140D01*
X218508464Y-45403016D01*
X218494423Y-45399499D01*
X218480794Y-45394622D01*
X218467709Y-45388433D01*
X218455293Y-45380992D01*
X218443667Y-45372369D01*
X218432942Y-45362648D01*
X218423221Y-45351923D01*
X218414598Y-45340297D01*
X218407157Y-45327881D01*
X218400968Y-45314796D01*
X218396091Y-45301167D01*
X218392574Y-45287126D01*
X218390450Y-45272808D01*
X218389740Y-45258350D01*
X218389740Y-44913350D01*
X218390450Y-44898892D01*
X218392574Y-44884574D01*
X218396091Y-44870533D01*
X218400968Y-44856904D01*
X218407157Y-44843819D01*
X218414598Y-44831403D01*
X218423221Y-44819777D01*
X218432942Y-44809052D01*
X218443667Y-44799331D01*
X218455293Y-44790708D01*
X218467709Y-44783267D01*
X218480794Y-44777078D01*
X218494423Y-44772201D01*
X218508464Y-44768684D01*
X218522782Y-44766560D01*
X218537240Y-44765850D01*
X218832240Y-44765850D01*
X218846698Y-44766560D01*
X218846698Y-44766560D01*
G37*
D17*
X218684740Y-45085850D03*
G04 #@! TD*
D13*
G04 #@! TO.C,0603*
G36*
X220197431Y-48111928D02*
X220218666Y-48115078D01*
X220239490Y-48120294D01*
X220259702Y-48127526D01*
X220279108Y-48136705D01*
X220297521Y-48147741D01*
X220314764Y-48160529D01*
X220330670Y-48174945D01*
X220345086Y-48190851D01*
X220357874Y-48208094D01*
X220368910Y-48226507D01*
X220378089Y-48245913D01*
X220385321Y-48266125D01*
X220390537Y-48286949D01*
X220393687Y-48308184D01*
X220394740Y-48329625D01*
X220394740Y-48842125D01*
X220393687Y-48863566D01*
X220390537Y-48884801D01*
X220385321Y-48905625D01*
X220378089Y-48925837D01*
X220368910Y-48945243D01*
X220357874Y-48963656D01*
X220345086Y-48980899D01*
X220330670Y-48996805D01*
X220314764Y-49011221D01*
X220297521Y-49024009D01*
X220279108Y-49035045D01*
X220259702Y-49044224D01*
X220239490Y-49051456D01*
X220218666Y-49056672D01*
X220197431Y-49059822D01*
X220175990Y-49060875D01*
X219738490Y-49060875D01*
X219717049Y-49059822D01*
X219695814Y-49056672D01*
X219674990Y-49051456D01*
X219654778Y-49044224D01*
X219635372Y-49035045D01*
X219616959Y-49024009D01*
X219599716Y-49011221D01*
X219583810Y-48996805D01*
X219569394Y-48980899D01*
X219556606Y-48963656D01*
X219545570Y-48945243D01*
X219536391Y-48925837D01*
X219529159Y-48905625D01*
X219523943Y-48884801D01*
X219520793Y-48863566D01*
X219519740Y-48842125D01*
X219519740Y-48329625D01*
X219520793Y-48308184D01*
X219523943Y-48286949D01*
X219529159Y-48266125D01*
X219536391Y-48245913D01*
X219545570Y-48226507D01*
X219556606Y-48208094D01*
X219569394Y-48190851D01*
X219583810Y-48174945D01*
X219599716Y-48160529D01*
X219616959Y-48147741D01*
X219635372Y-48136705D01*
X219654778Y-48127526D01*
X219674990Y-48120294D01*
X219695814Y-48115078D01*
X219717049Y-48111928D01*
X219738490Y-48110875D01*
X220175990Y-48110875D01*
X220197431Y-48111928D01*
X220197431Y-48111928D01*
G37*
D18*
X219957240Y-48585875D03*
D13*
G36*
X218622431Y-48111928D02*
X218643666Y-48115078D01*
X218664490Y-48120294D01*
X218684702Y-48127526D01*
X218704108Y-48136705D01*
X218722521Y-48147741D01*
X218739764Y-48160529D01*
X218755670Y-48174945D01*
X218770086Y-48190851D01*
X218782874Y-48208094D01*
X218793910Y-48226507D01*
X218803089Y-48245913D01*
X218810321Y-48266125D01*
X218815537Y-48286949D01*
X218818687Y-48308184D01*
X218819740Y-48329625D01*
X218819740Y-48842125D01*
X218818687Y-48863566D01*
X218815537Y-48884801D01*
X218810321Y-48905625D01*
X218803089Y-48925837D01*
X218793910Y-48945243D01*
X218782874Y-48963656D01*
X218770086Y-48980899D01*
X218755670Y-48996805D01*
X218739764Y-49011221D01*
X218722521Y-49024009D01*
X218704108Y-49035045D01*
X218684702Y-49044224D01*
X218664490Y-49051456D01*
X218643666Y-49056672D01*
X218622431Y-49059822D01*
X218600990Y-49060875D01*
X218163490Y-49060875D01*
X218142049Y-49059822D01*
X218120814Y-49056672D01*
X218099990Y-49051456D01*
X218079778Y-49044224D01*
X218060372Y-49035045D01*
X218041959Y-49024009D01*
X218024716Y-49011221D01*
X218008810Y-48996805D01*
X217994394Y-48980899D01*
X217981606Y-48963656D01*
X217970570Y-48945243D01*
X217961391Y-48925837D01*
X217954159Y-48905625D01*
X217948943Y-48884801D01*
X217945793Y-48863566D01*
X217944740Y-48842125D01*
X217944740Y-48329625D01*
X217945793Y-48308184D01*
X217948943Y-48286949D01*
X217954159Y-48266125D01*
X217961391Y-48245913D01*
X217970570Y-48226507D01*
X217981606Y-48208094D01*
X217994394Y-48190851D01*
X218008810Y-48174945D01*
X218024716Y-48160529D01*
X218041959Y-48147741D01*
X218060372Y-48136705D01*
X218079778Y-48127526D01*
X218099990Y-48120294D01*
X218120814Y-48115078D01*
X218142049Y-48111928D01*
X218163490Y-48110875D01*
X218600990Y-48110875D01*
X218622431Y-48111928D01*
X218622431Y-48111928D01*
G37*
D18*
X218382240Y-48585875D03*
G04 #@! TD*
D13*
G04 #@! TO.C,0805*
G36*
X220374882Y-51867074D02*
X220398543Y-51870584D01*
X220421747Y-51876396D01*
X220444269Y-51884454D01*
X220465893Y-51894682D01*
X220486410Y-51906979D01*
X220505623Y-51921229D01*
X220523347Y-51937293D01*
X220539411Y-51955017D01*
X220553661Y-51974230D01*
X220565958Y-51994747D01*
X220576186Y-52016371D01*
X220584244Y-52038893D01*
X220590056Y-52062097D01*
X220593566Y-52085758D01*
X220594740Y-52109650D01*
X220594740Y-53022150D01*
X220593566Y-53046042D01*
X220590056Y-53069703D01*
X220584244Y-53092907D01*
X220576186Y-53115429D01*
X220565958Y-53137053D01*
X220553661Y-53157570D01*
X220539411Y-53176783D01*
X220523347Y-53194507D01*
X220505623Y-53210571D01*
X220486410Y-53224821D01*
X220465893Y-53237118D01*
X220444269Y-53247346D01*
X220421747Y-53255404D01*
X220398543Y-53261216D01*
X220374882Y-53264726D01*
X220350990Y-53265900D01*
X219863490Y-53265900D01*
X219839598Y-53264726D01*
X219815937Y-53261216D01*
X219792733Y-53255404D01*
X219770211Y-53247346D01*
X219748587Y-53237118D01*
X219728070Y-53224821D01*
X219708857Y-53210571D01*
X219691133Y-53194507D01*
X219675069Y-53176783D01*
X219660819Y-53157570D01*
X219648522Y-53137053D01*
X219638294Y-53115429D01*
X219630236Y-53092907D01*
X219624424Y-53069703D01*
X219620914Y-53046042D01*
X219619740Y-53022150D01*
X219619740Y-52109650D01*
X219620914Y-52085758D01*
X219624424Y-52062097D01*
X219630236Y-52038893D01*
X219638294Y-52016371D01*
X219648522Y-51994747D01*
X219660819Y-51974230D01*
X219675069Y-51955017D01*
X219691133Y-51937293D01*
X219708857Y-51921229D01*
X219728070Y-51906979D01*
X219748587Y-51894682D01*
X219770211Y-51884454D01*
X219792733Y-51876396D01*
X219815937Y-51870584D01*
X219839598Y-51867074D01*
X219863490Y-51865900D01*
X220350990Y-51865900D01*
X220374882Y-51867074D01*
X220374882Y-51867074D01*
G37*
D20*
X220107240Y-52565900D03*
D13*
G36*
X218499882Y-51867074D02*
X218523543Y-51870584D01*
X218546747Y-51876396D01*
X218569269Y-51884454D01*
X218590893Y-51894682D01*
X218611410Y-51906979D01*
X218630623Y-51921229D01*
X218648347Y-51937293D01*
X218664411Y-51955017D01*
X218678661Y-51974230D01*
X218690958Y-51994747D01*
X218701186Y-52016371D01*
X218709244Y-52038893D01*
X218715056Y-52062097D01*
X218718566Y-52085758D01*
X218719740Y-52109650D01*
X218719740Y-53022150D01*
X218718566Y-53046042D01*
X218715056Y-53069703D01*
X218709244Y-53092907D01*
X218701186Y-53115429D01*
X218690958Y-53137053D01*
X218678661Y-53157570D01*
X218664411Y-53176783D01*
X218648347Y-53194507D01*
X218630623Y-53210571D01*
X218611410Y-53224821D01*
X218590893Y-53237118D01*
X218569269Y-53247346D01*
X218546747Y-53255404D01*
X218523543Y-53261216D01*
X218499882Y-53264726D01*
X218475990Y-53265900D01*
X217988490Y-53265900D01*
X217964598Y-53264726D01*
X217940937Y-53261216D01*
X217917733Y-53255404D01*
X217895211Y-53247346D01*
X217873587Y-53237118D01*
X217853070Y-53224821D01*
X217833857Y-53210571D01*
X217816133Y-53194507D01*
X217800069Y-53176783D01*
X217785819Y-53157570D01*
X217773522Y-53137053D01*
X217763294Y-53115429D01*
X217755236Y-53092907D01*
X217749424Y-53069703D01*
X217745914Y-53046042D01*
X217744740Y-53022150D01*
X217744740Y-52109650D01*
X217745914Y-52085758D01*
X217749424Y-52062097D01*
X217755236Y-52038893D01*
X217763294Y-52016371D01*
X217773522Y-51994747D01*
X217785819Y-51974230D01*
X217800069Y-51955017D01*
X217816133Y-51937293D01*
X217833857Y-51921229D01*
X217853070Y-51906979D01*
X217873587Y-51894682D01*
X217895211Y-51884454D01*
X217917733Y-51876396D01*
X217940937Y-51870584D01*
X217964598Y-51867074D01*
X217988490Y-51865900D01*
X218475990Y-51865900D01*
X218499882Y-51867074D01*
X218499882Y-51867074D01*
G37*
D20*
X218232240Y-52565900D03*
G04 #@! TD*
D13*
G04 #@! TO.C,01005*
G36*
X219518856Y-38881125D02*
X219525409Y-38882097D01*
X219531834Y-38883707D01*
X219538071Y-38885938D01*
X219544059Y-38888770D01*
X219549741Y-38892176D01*
X219555062Y-38896122D01*
X219559970Y-38900570D01*
X219564418Y-38905478D01*
X219568364Y-38910799D01*
X219571770Y-38916481D01*
X219574602Y-38922469D01*
X219576833Y-38928706D01*
X219578443Y-38935131D01*
X219579415Y-38941684D01*
X219579740Y-38948300D01*
X219579740Y-39083300D01*
X219579415Y-39089916D01*
X219578443Y-39096469D01*
X219576833Y-39102894D01*
X219574602Y-39109131D01*
X219571770Y-39115119D01*
X219568364Y-39120801D01*
X219564418Y-39126122D01*
X219559970Y-39131030D01*
X219555062Y-39135478D01*
X219549741Y-39139424D01*
X219544059Y-39142830D01*
X219538071Y-39145662D01*
X219531834Y-39147893D01*
X219525409Y-39149503D01*
X219518856Y-39150475D01*
X219512240Y-39150800D01*
X219377240Y-39150800D01*
X219370624Y-39150475D01*
X219364071Y-39149503D01*
X219357646Y-39147893D01*
X219351409Y-39145662D01*
X219345421Y-39142830D01*
X219339739Y-39139424D01*
X219334418Y-39135478D01*
X219329510Y-39131030D01*
X219325062Y-39126122D01*
X219321116Y-39120801D01*
X219317710Y-39115119D01*
X219314878Y-39109131D01*
X219312647Y-39102894D01*
X219311037Y-39096469D01*
X219310065Y-39089916D01*
X219309740Y-39083300D01*
X219309740Y-38948300D01*
X219310065Y-38941684D01*
X219311037Y-38935131D01*
X219312647Y-38928706D01*
X219314878Y-38922469D01*
X219317710Y-38916481D01*
X219321116Y-38910799D01*
X219325062Y-38905478D01*
X219329510Y-38900570D01*
X219334418Y-38896122D01*
X219339739Y-38892176D01*
X219345421Y-38888770D01*
X219351409Y-38885938D01*
X219357646Y-38883707D01*
X219364071Y-38882097D01*
X219370624Y-38881125D01*
X219377240Y-38880800D01*
X219512240Y-38880800D01*
X219518856Y-38881125D01*
X219518856Y-38881125D01*
G37*
D22*
X219444740Y-39015800D03*
D13*
G36*
X218968856Y-38881125D02*
X218975409Y-38882097D01*
X218981834Y-38883707D01*
X218988071Y-38885938D01*
X218994059Y-38888770D01*
X218999741Y-38892176D01*
X219005062Y-38896122D01*
X219009970Y-38900570D01*
X219014418Y-38905478D01*
X219018364Y-38910799D01*
X219021770Y-38916481D01*
X219024602Y-38922469D01*
X219026833Y-38928706D01*
X219028443Y-38935131D01*
X219029415Y-38941684D01*
X219029740Y-38948300D01*
X219029740Y-39083300D01*
X219029415Y-39089916D01*
X219028443Y-39096469D01*
X219026833Y-39102894D01*
X219024602Y-39109131D01*
X219021770Y-39115119D01*
X219018364Y-39120801D01*
X219014418Y-39126122D01*
X219009970Y-39131030D01*
X219005062Y-39135478D01*
X218999741Y-39139424D01*
X218994059Y-39142830D01*
X218988071Y-39145662D01*
X218981834Y-39147893D01*
X218975409Y-39149503D01*
X218968856Y-39150475D01*
X218962240Y-39150800D01*
X218827240Y-39150800D01*
X218820624Y-39150475D01*
X218814071Y-39149503D01*
X218807646Y-39147893D01*
X218801409Y-39145662D01*
X218795421Y-39142830D01*
X218789739Y-39139424D01*
X218784418Y-39135478D01*
X218779510Y-39131030D01*
X218775062Y-39126122D01*
X218771116Y-39120801D01*
X218767710Y-39115119D01*
X218764878Y-39109131D01*
X218762647Y-39102894D01*
X218761037Y-39096469D01*
X218760065Y-39089916D01*
X218759740Y-39083300D01*
X218759740Y-38948300D01*
X218760065Y-38941684D01*
X218761037Y-38935131D01*
X218762647Y-38928706D01*
X218764878Y-38922469D01*
X218767710Y-38916481D01*
X218771116Y-38910799D01*
X218775062Y-38905478D01*
X218779510Y-38900570D01*
X218784418Y-38896122D01*
X218789739Y-38892176D01*
X218795421Y-38888770D01*
X218801409Y-38885938D01*
X218807646Y-38883707D01*
X218814071Y-38882097D01*
X218820624Y-38881125D01*
X218827240Y-38880800D01*
X218962240Y-38880800D01*
X218968856Y-38881125D01*
X218968856Y-38881125D01*
G37*
D22*
X218894740Y-39015800D03*
G04 #@! TD*
D13*
G04 #@! TO.C,1206*
G36*
X220969244Y-56062129D02*
X220993513Y-56065729D01*
X221017311Y-56071690D01*
X221040411Y-56079955D01*
X221062589Y-56090445D01*
X221083633Y-56103058D01*
X221103338Y-56117672D01*
X221121517Y-56134148D01*
X221137993Y-56152327D01*
X221152607Y-56172032D01*
X221165220Y-56193076D01*
X221175710Y-56215254D01*
X221183975Y-56238354D01*
X221189936Y-56262152D01*
X221193536Y-56286421D01*
X221194740Y-56310925D01*
X221194740Y-57560925D01*
X221193536Y-57585429D01*
X221189936Y-57609698D01*
X221183975Y-57633496D01*
X221175710Y-57656596D01*
X221165220Y-57678774D01*
X221152607Y-57699818D01*
X221137993Y-57719523D01*
X221121517Y-57737702D01*
X221103338Y-57754178D01*
X221083633Y-57768792D01*
X221062589Y-57781405D01*
X221040411Y-57791895D01*
X221017311Y-57800160D01*
X220993513Y-57806121D01*
X220969244Y-57809721D01*
X220944740Y-57810925D01*
X220194740Y-57810925D01*
X220170236Y-57809721D01*
X220145967Y-57806121D01*
X220122169Y-57800160D01*
X220099069Y-57791895D01*
X220076891Y-57781405D01*
X220055847Y-57768792D01*
X220036142Y-57754178D01*
X220017963Y-57737702D01*
X220001487Y-57719523D01*
X219986873Y-57699818D01*
X219974260Y-57678774D01*
X219963770Y-57656596D01*
X219955505Y-57633496D01*
X219949544Y-57609698D01*
X219945944Y-57585429D01*
X219944740Y-57560925D01*
X219944740Y-56310925D01*
X219945944Y-56286421D01*
X219949544Y-56262152D01*
X219955505Y-56238354D01*
X219963770Y-56215254D01*
X219974260Y-56193076D01*
X219986873Y-56172032D01*
X220001487Y-56152327D01*
X220017963Y-56134148D01*
X220036142Y-56117672D01*
X220055847Y-56103058D01*
X220076891Y-56090445D01*
X220099069Y-56079955D01*
X220122169Y-56071690D01*
X220145967Y-56065729D01*
X220170236Y-56062129D01*
X220194740Y-56060925D01*
X220944740Y-56060925D01*
X220969244Y-56062129D01*
X220969244Y-56062129D01*
G37*
D24*
X220569740Y-56935925D03*
D13*
G36*
X218169244Y-56062129D02*
X218193513Y-56065729D01*
X218217311Y-56071690D01*
X218240411Y-56079955D01*
X218262589Y-56090445D01*
X218283633Y-56103058D01*
X218303338Y-56117672D01*
X218321517Y-56134148D01*
X218337993Y-56152327D01*
X218352607Y-56172032D01*
X218365220Y-56193076D01*
X218375710Y-56215254D01*
X218383975Y-56238354D01*
X218389936Y-56262152D01*
X218393536Y-56286421D01*
X218394740Y-56310925D01*
X218394740Y-57560925D01*
X218393536Y-57585429D01*
X218389936Y-57609698D01*
X218383975Y-57633496D01*
X218375710Y-57656596D01*
X218365220Y-57678774D01*
X218352607Y-57699818D01*
X218337993Y-57719523D01*
X218321517Y-57737702D01*
X218303338Y-57754178D01*
X218283633Y-57768792D01*
X218262589Y-57781405D01*
X218240411Y-57791895D01*
X218217311Y-57800160D01*
X218193513Y-57806121D01*
X218169244Y-57809721D01*
X218144740Y-57810925D01*
X217394740Y-57810925D01*
X217370236Y-57809721D01*
X217345967Y-57806121D01*
X217322169Y-57800160D01*
X217299069Y-57791895D01*
X217276891Y-57781405D01*
X217255847Y-57768792D01*
X217236142Y-57754178D01*
X217217963Y-57737702D01*
X217201487Y-57719523D01*
X217186873Y-57699818D01*
X217174260Y-57678774D01*
X217163770Y-57656596D01*
X217155505Y-57633496D01*
X217149544Y-57609698D01*
X217145944Y-57585429D01*
X217144740Y-57560925D01*
X217144740Y-56310925D01*
X217145944Y-56286421D01*
X217149544Y-56262152D01*
X217155505Y-56238354D01*
X217163770Y-56215254D01*
X217174260Y-56193076D01*
X217186873Y-56172032D01*
X217201487Y-56152327D01*
X217217963Y-56134148D01*
X217236142Y-56117672D01*
X217255847Y-56103058D01*
X217276891Y-56090445D01*
X217299069Y-56079955D01*
X217322169Y-56071690D01*
X217345967Y-56065729D01*
X217370236Y-56062129D01*
X217394740Y-56060925D01*
X218144740Y-56060925D01*
X218169244Y-56062129D01*
X218169244Y-56062129D01*
G37*
D24*
X217769740Y-56935925D03*
G04 #@! TD*
D13*
G04 #@! TO.C,1210*
G36*
X220969244Y-60612154D02*
X220993513Y-60615754D01*
X221017311Y-60621715D01*
X221040411Y-60629980D01*
X221062589Y-60640470D01*
X221083633Y-60653083D01*
X221103338Y-60667697D01*
X221121517Y-60684173D01*
X221137993Y-60702352D01*
X221152607Y-60722057D01*
X221165220Y-60743101D01*
X221175710Y-60765279D01*
X221183975Y-60788379D01*
X221189936Y-60812177D01*
X221193536Y-60836446D01*
X221194740Y-60860950D01*
X221194740Y-63010950D01*
X221193536Y-63035454D01*
X221189936Y-63059723D01*
X221183975Y-63083521D01*
X221175710Y-63106621D01*
X221165220Y-63128799D01*
X221152607Y-63149843D01*
X221137993Y-63169548D01*
X221121517Y-63187727D01*
X221103338Y-63204203D01*
X221083633Y-63218817D01*
X221062589Y-63231430D01*
X221040411Y-63241920D01*
X221017311Y-63250185D01*
X220993513Y-63256146D01*
X220969244Y-63259746D01*
X220944740Y-63260950D01*
X220194740Y-63260950D01*
X220170236Y-63259746D01*
X220145967Y-63256146D01*
X220122169Y-63250185D01*
X220099069Y-63241920D01*
X220076891Y-63231430D01*
X220055847Y-63218817D01*
X220036142Y-63204203D01*
X220017963Y-63187727D01*
X220001487Y-63169548D01*
X219986873Y-63149843D01*
X219974260Y-63128799D01*
X219963770Y-63106621D01*
X219955505Y-63083521D01*
X219949544Y-63059723D01*
X219945944Y-63035454D01*
X219944740Y-63010950D01*
X219944740Y-60860950D01*
X219945944Y-60836446D01*
X219949544Y-60812177D01*
X219955505Y-60788379D01*
X219963770Y-60765279D01*
X219974260Y-60743101D01*
X219986873Y-60722057D01*
X220001487Y-60702352D01*
X220017963Y-60684173D01*
X220036142Y-60667697D01*
X220055847Y-60653083D01*
X220076891Y-60640470D01*
X220099069Y-60629980D01*
X220122169Y-60621715D01*
X220145967Y-60615754D01*
X220170236Y-60612154D01*
X220194740Y-60610950D01*
X220944740Y-60610950D01*
X220969244Y-60612154D01*
X220969244Y-60612154D01*
G37*
D24*
X220569740Y-61935950D03*
D13*
G36*
X218169244Y-60612154D02*
X218193513Y-60615754D01*
X218217311Y-60621715D01*
X218240411Y-60629980D01*
X218262589Y-60640470D01*
X218283633Y-60653083D01*
X218303338Y-60667697D01*
X218321517Y-60684173D01*
X218337993Y-60702352D01*
X218352607Y-60722057D01*
X218365220Y-60743101D01*
X218375710Y-60765279D01*
X218383975Y-60788379D01*
X218389936Y-60812177D01*
X218393536Y-60836446D01*
X218394740Y-60860950D01*
X218394740Y-63010950D01*
X218393536Y-63035454D01*
X218389936Y-63059723D01*
X218383975Y-63083521D01*
X218375710Y-63106621D01*
X218365220Y-63128799D01*
X218352607Y-63149843D01*
X218337993Y-63169548D01*
X218321517Y-63187727D01*
X218303338Y-63204203D01*
X218283633Y-63218817D01*
X218262589Y-63231430D01*
X218240411Y-63241920D01*
X218217311Y-63250185D01*
X218193513Y-63256146D01*
X218169244Y-63259746D01*
X218144740Y-63260950D01*
X217394740Y-63260950D01*
X217370236Y-63259746D01*
X217345967Y-63256146D01*
X217322169Y-63250185D01*
X217299069Y-63241920D01*
X217276891Y-63231430D01*
X217255847Y-63218817D01*
X217236142Y-63204203D01*
X217217963Y-63187727D01*
X217201487Y-63169548D01*
X217186873Y-63149843D01*
X217174260Y-63128799D01*
X217163770Y-63106621D01*
X217155505Y-63083521D01*
X217149544Y-63059723D01*
X217145944Y-63035454D01*
X217144740Y-63010950D01*
X217144740Y-60860950D01*
X217145944Y-60836446D01*
X217149544Y-60812177D01*
X217155505Y-60788379D01*
X217163770Y-60765279D01*
X217174260Y-60743101D01*
X217186873Y-60722057D01*
X217201487Y-60702352D01*
X217217963Y-60684173D01*
X217236142Y-60667697D01*
X217255847Y-60653083D01*
X217276891Y-60640470D01*
X217299069Y-60629980D01*
X217322169Y-60621715D01*
X217345967Y-60615754D01*
X217370236Y-60612154D01*
X217394740Y-60610950D01*
X218144740Y-60610950D01*
X218169244Y-60612154D01*
X218169244Y-60612154D01*
G37*
D24*
X217769740Y-61935950D03*
G04 #@! TD*
D13*
G04 #@! TO.C,1806*
G36*
X221644245Y-66067179D02*
X221668513Y-66070779D01*
X221692312Y-66076740D01*
X221715411Y-66085005D01*
X221737590Y-66095495D01*
X221758633Y-66108107D01*
X221778339Y-66122722D01*
X221796517Y-66139198D01*
X221812993Y-66157376D01*
X221827608Y-66177082D01*
X221840220Y-66198125D01*
X221850710Y-66220304D01*
X221858975Y-66243403D01*
X221864936Y-66267202D01*
X221868536Y-66291470D01*
X221869740Y-66315974D01*
X221869740Y-67615976D01*
X221868536Y-67640480D01*
X221864936Y-67664748D01*
X221858975Y-67688547D01*
X221850710Y-67711646D01*
X221840220Y-67733825D01*
X221827608Y-67754868D01*
X221812993Y-67774574D01*
X221796517Y-67792752D01*
X221778339Y-67809228D01*
X221758633Y-67823843D01*
X221737590Y-67836455D01*
X221715411Y-67846945D01*
X221692312Y-67855210D01*
X221668513Y-67861171D01*
X221644245Y-67864771D01*
X221619741Y-67865975D01*
X220719739Y-67865975D01*
X220695235Y-67864771D01*
X220670967Y-67861171D01*
X220647168Y-67855210D01*
X220624069Y-67846945D01*
X220601890Y-67836455D01*
X220580847Y-67823843D01*
X220561141Y-67809228D01*
X220542963Y-67792752D01*
X220526487Y-67774574D01*
X220511872Y-67754868D01*
X220499260Y-67733825D01*
X220488770Y-67711646D01*
X220480505Y-67688547D01*
X220474544Y-67664748D01*
X220470944Y-67640480D01*
X220469740Y-67615976D01*
X220469740Y-66315974D01*
X220470944Y-66291470D01*
X220474544Y-66267202D01*
X220480505Y-66243403D01*
X220488770Y-66220304D01*
X220499260Y-66198125D01*
X220511872Y-66177082D01*
X220526487Y-66157376D01*
X220542963Y-66139198D01*
X220561141Y-66122722D01*
X220580847Y-66108107D01*
X220601890Y-66095495D01*
X220624069Y-66085005D01*
X220647168Y-66076740D01*
X220670967Y-66070779D01*
X220695235Y-66067179D01*
X220719739Y-66065975D01*
X221619741Y-66065975D01*
X221644245Y-66067179D01*
X221644245Y-66067179D01*
G37*
D26*
X221169740Y-66965975D03*
D13*
G36*
X217644245Y-66067179D02*
X217668513Y-66070779D01*
X217692312Y-66076740D01*
X217715411Y-66085005D01*
X217737590Y-66095495D01*
X217758633Y-66108107D01*
X217778339Y-66122722D01*
X217796517Y-66139198D01*
X217812993Y-66157376D01*
X217827608Y-66177082D01*
X217840220Y-66198125D01*
X217850710Y-66220304D01*
X217858975Y-66243403D01*
X217864936Y-66267202D01*
X217868536Y-66291470D01*
X217869740Y-66315974D01*
X217869740Y-67615976D01*
X217868536Y-67640480D01*
X217864936Y-67664748D01*
X217858975Y-67688547D01*
X217850710Y-67711646D01*
X217840220Y-67733825D01*
X217827608Y-67754868D01*
X217812993Y-67774574D01*
X217796517Y-67792752D01*
X217778339Y-67809228D01*
X217758633Y-67823843D01*
X217737590Y-67836455D01*
X217715411Y-67846945D01*
X217692312Y-67855210D01*
X217668513Y-67861171D01*
X217644245Y-67864771D01*
X217619741Y-67865975D01*
X216719739Y-67865975D01*
X216695235Y-67864771D01*
X216670967Y-67861171D01*
X216647168Y-67855210D01*
X216624069Y-67846945D01*
X216601890Y-67836455D01*
X216580847Y-67823843D01*
X216561141Y-67809228D01*
X216542963Y-67792752D01*
X216526487Y-67774574D01*
X216511872Y-67754868D01*
X216499260Y-67733825D01*
X216488770Y-67711646D01*
X216480505Y-67688547D01*
X216474544Y-67664748D01*
X216470944Y-67640480D01*
X216469740Y-67615976D01*
X216469740Y-66315974D01*
X216470944Y-66291470D01*
X216474544Y-66267202D01*
X216480505Y-66243403D01*
X216488770Y-66220304D01*
X216499260Y-66198125D01*
X216511872Y-66177082D01*
X216526487Y-66157376D01*
X216542963Y-66139198D01*
X216561141Y-66122722D01*
X216580847Y-66108107D01*
X216601890Y-66095495D01*
X216624069Y-66085005D01*
X216647168Y-66076740D01*
X216670967Y-66070779D01*
X216695235Y-66067179D01*
X216719739Y-66065975D01*
X217619741Y-66065975D01*
X217644245Y-66067179D01*
X217644245Y-66067179D01*
G37*
D26*
X217169740Y-66965975D03*
G04 #@! TD*
D13*
G04 #@! TO.C,1812*
G36*
X221644245Y-70667204D02*
X221668513Y-70670804D01*
X221692312Y-70676765D01*
X221715411Y-70685030D01*
X221737590Y-70695520D01*
X221758633Y-70708132D01*
X221778339Y-70722747D01*
X221796517Y-70739223D01*
X221812993Y-70757401D01*
X221827608Y-70777107D01*
X221840220Y-70798150D01*
X221850710Y-70820329D01*
X221858975Y-70843428D01*
X221864936Y-70867227D01*
X221868536Y-70891495D01*
X221869740Y-70915999D01*
X221869740Y-73816001D01*
X221868536Y-73840505D01*
X221864936Y-73864773D01*
X221858975Y-73888572D01*
X221850710Y-73911671D01*
X221840220Y-73933850D01*
X221827608Y-73954893D01*
X221812993Y-73974599D01*
X221796517Y-73992777D01*
X221778339Y-74009253D01*
X221758633Y-74023868D01*
X221737590Y-74036480D01*
X221715411Y-74046970D01*
X221692312Y-74055235D01*
X221668513Y-74061196D01*
X221644245Y-74064796D01*
X221619741Y-74066000D01*
X220994739Y-74066000D01*
X220970235Y-74064796D01*
X220945967Y-74061196D01*
X220922168Y-74055235D01*
X220899069Y-74046970D01*
X220876890Y-74036480D01*
X220855847Y-74023868D01*
X220836141Y-74009253D01*
X220817963Y-73992777D01*
X220801487Y-73974599D01*
X220786872Y-73954893D01*
X220774260Y-73933850D01*
X220763770Y-73911671D01*
X220755505Y-73888572D01*
X220749544Y-73864773D01*
X220745944Y-73840505D01*
X220744740Y-73816001D01*
X220744740Y-70915999D01*
X220745944Y-70891495D01*
X220749544Y-70867227D01*
X220755505Y-70843428D01*
X220763770Y-70820329D01*
X220774260Y-70798150D01*
X220786872Y-70777107D01*
X220801487Y-70757401D01*
X220817963Y-70739223D01*
X220836141Y-70722747D01*
X220855847Y-70708132D01*
X220876890Y-70695520D01*
X220899069Y-70685030D01*
X220922168Y-70676765D01*
X220945967Y-70670804D01*
X220970235Y-70667204D01*
X220994739Y-70666000D01*
X221619741Y-70666000D01*
X221644245Y-70667204D01*
X221644245Y-70667204D01*
G37*
D27*
X221307240Y-72366000D03*
D13*
G36*
X217369245Y-70667204D02*
X217393513Y-70670804D01*
X217417312Y-70676765D01*
X217440411Y-70685030D01*
X217462590Y-70695520D01*
X217483633Y-70708132D01*
X217503339Y-70722747D01*
X217521517Y-70739223D01*
X217537993Y-70757401D01*
X217552608Y-70777107D01*
X217565220Y-70798150D01*
X217575710Y-70820329D01*
X217583975Y-70843428D01*
X217589936Y-70867227D01*
X217593536Y-70891495D01*
X217594740Y-70915999D01*
X217594740Y-73816001D01*
X217593536Y-73840505D01*
X217589936Y-73864773D01*
X217583975Y-73888572D01*
X217575710Y-73911671D01*
X217565220Y-73933850D01*
X217552608Y-73954893D01*
X217537993Y-73974599D01*
X217521517Y-73992777D01*
X217503339Y-74009253D01*
X217483633Y-74023868D01*
X217462590Y-74036480D01*
X217440411Y-74046970D01*
X217417312Y-74055235D01*
X217393513Y-74061196D01*
X217369245Y-74064796D01*
X217344741Y-74066000D01*
X216719739Y-74066000D01*
X216695235Y-74064796D01*
X216670967Y-74061196D01*
X216647168Y-74055235D01*
X216624069Y-74046970D01*
X216601890Y-74036480D01*
X216580847Y-74023868D01*
X216561141Y-74009253D01*
X216542963Y-73992777D01*
X216526487Y-73974599D01*
X216511872Y-73954893D01*
X216499260Y-73933850D01*
X216488770Y-73911671D01*
X216480505Y-73888572D01*
X216474544Y-73864773D01*
X216470944Y-73840505D01*
X216469740Y-73816001D01*
X216469740Y-70915999D01*
X216470944Y-70891495D01*
X216474544Y-70867227D01*
X216480505Y-70843428D01*
X216488770Y-70820329D01*
X216499260Y-70798150D01*
X216511872Y-70777107D01*
X216526487Y-70757401D01*
X216542963Y-70739223D01*
X216561141Y-70722747D01*
X216580847Y-70708132D01*
X216601890Y-70695520D01*
X216624069Y-70685030D01*
X216647168Y-70676765D01*
X216670967Y-70670804D01*
X216695235Y-70667204D01*
X216719739Y-70666000D01*
X217344741Y-70666000D01*
X217369245Y-70667204D01*
X217369245Y-70667204D01*
G37*
D27*
X217032240Y-72366000D03*
G04 #@! TD*
D13*
G04 #@! TO.C,2010*
G36*
X208115145Y-39419204D02*
X208139413Y-39422804D01*
X208163212Y-39428765D01*
X208186311Y-39437030D01*
X208208490Y-39447520D01*
X208229533Y-39460132D01*
X208249239Y-39474747D01*
X208267417Y-39491223D01*
X208283893Y-39509401D01*
X208298508Y-39529107D01*
X208311120Y-39550150D01*
X208321610Y-39572329D01*
X208329875Y-39595428D01*
X208335836Y-39619227D01*
X208339436Y-39643495D01*
X208340640Y-39667999D01*
X208340640Y-41818001D01*
X208339436Y-41842505D01*
X208335836Y-41866773D01*
X208329875Y-41890572D01*
X208321610Y-41913671D01*
X208311120Y-41935850D01*
X208298508Y-41956893D01*
X208283893Y-41976599D01*
X208267417Y-41994777D01*
X208249239Y-42011253D01*
X208229533Y-42025868D01*
X208208490Y-42038480D01*
X208186311Y-42048970D01*
X208163212Y-42057235D01*
X208139413Y-42063196D01*
X208115145Y-42066796D01*
X208090641Y-42068000D01*
X207240639Y-42068000D01*
X207216135Y-42066796D01*
X207191867Y-42063196D01*
X207168068Y-42057235D01*
X207144969Y-42048970D01*
X207122790Y-42038480D01*
X207101747Y-42025868D01*
X207082041Y-42011253D01*
X207063863Y-41994777D01*
X207047387Y-41976599D01*
X207032772Y-41956893D01*
X207020160Y-41935850D01*
X207009670Y-41913671D01*
X207001405Y-41890572D01*
X206995444Y-41866773D01*
X206991844Y-41842505D01*
X206990640Y-41818001D01*
X206990640Y-39667999D01*
X206991844Y-39643495D01*
X206995444Y-39619227D01*
X207001405Y-39595428D01*
X207009670Y-39572329D01*
X207020160Y-39550150D01*
X207032772Y-39529107D01*
X207047387Y-39509401D01*
X207063863Y-39491223D01*
X207082041Y-39474747D01*
X207101747Y-39460132D01*
X207122790Y-39447520D01*
X207144969Y-39437030D01*
X207168068Y-39428765D01*
X207191867Y-39422804D01*
X207216135Y-39419204D01*
X207240639Y-39418000D01*
X208090641Y-39418000D01*
X208115145Y-39419204D01*
X208115145Y-39419204D01*
G37*
D21*
X207665640Y-40743000D03*
D13*
G36*
X203615145Y-39419204D02*
X203639413Y-39422804D01*
X203663212Y-39428765D01*
X203686311Y-39437030D01*
X203708490Y-39447520D01*
X203729533Y-39460132D01*
X203749239Y-39474747D01*
X203767417Y-39491223D01*
X203783893Y-39509401D01*
X203798508Y-39529107D01*
X203811120Y-39550150D01*
X203821610Y-39572329D01*
X203829875Y-39595428D01*
X203835836Y-39619227D01*
X203839436Y-39643495D01*
X203840640Y-39667999D01*
X203840640Y-41818001D01*
X203839436Y-41842505D01*
X203835836Y-41866773D01*
X203829875Y-41890572D01*
X203821610Y-41913671D01*
X203811120Y-41935850D01*
X203798508Y-41956893D01*
X203783893Y-41976599D01*
X203767417Y-41994777D01*
X203749239Y-42011253D01*
X203729533Y-42025868D01*
X203708490Y-42038480D01*
X203686311Y-42048970D01*
X203663212Y-42057235D01*
X203639413Y-42063196D01*
X203615145Y-42066796D01*
X203590641Y-42068000D01*
X202740639Y-42068000D01*
X202716135Y-42066796D01*
X202691867Y-42063196D01*
X202668068Y-42057235D01*
X202644969Y-42048970D01*
X202622790Y-42038480D01*
X202601747Y-42025868D01*
X202582041Y-42011253D01*
X202563863Y-41994777D01*
X202547387Y-41976599D01*
X202532772Y-41956893D01*
X202520160Y-41935850D01*
X202509670Y-41913671D01*
X202501405Y-41890572D01*
X202495444Y-41866773D01*
X202491844Y-41842505D01*
X202490640Y-41818001D01*
X202490640Y-39667999D01*
X202491844Y-39643495D01*
X202495444Y-39619227D01*
X202501405Y-39595428D01*
X202509670Y-39572329D01*
X202520160Y-39550150D01*
X202532772Y-39529107D01*
X202547387Y-39509401D01*
X202563863Y-39491223D01*
X202582041Y-39474747D01*
X202601747Y-39460132D01*
X202622790Y-39447520D01*
X202644969Y-39437030D01*
X202668068Y-39428765D01*
X202691867Y-39422804D01*
X202716135Y-39419204D01*
X202740639Y-39418000D01*
X203590641Y-39418000D01*
X203615145Y-39419204D01*
X203615145Y-39419204D01*
G37*
D21*
X203165640Y-40743000D03*
G04 #@! TD*
D13*
G04 #@! TO.C,2512*
G36*
X208765145Y-59894004D02*
X208789413Y-59897604D01*
X208813212Y-59903565D01*
X208836311Y-59911830D01*
X208858490Y-59922320D01*
X208879533Y-59934932D01*
X208899239Y-59949547D01*
X208917417Y-59966023D01*
X208933893Y-59984201D01*
X208948508Y-60003907D01*
X208961120Y-60024950D01*
X208971610Y-60047129D01*
X208979875Y-60070228D01*
X208985836Y-60094027D01*
X208989436Y-60118295D01*
X208990640Y-60142799D01*
X208990640Y-62992801D01*
X208989436Y-63017305D01*
X208985836Y-63041573D01*
X208979875Y-63065372D01*
X208971610Y-63088471D01*
X208961120Y-63110650D01*
X208948508Y-63131693D01*
X208933893Y-63151399D01*
X208917417Y-63169577D01*
X208899239Y-63186053D01*
X208879533Y-63200668D01*
X208858490Y-63213280D01*
X208836311Y-63223770D01*
X208813212Y-63232035D01*
X208789413Y-63237996D01*
X208765145Y-63241596D01*
X208740641Y-63242800D01*
X207890639Y-63242800D01*
X207866135Y-63241596D01*
X207841867Y-63237996D01*
X207818068Y-63232035D01*
X207794969Y-63223770D01*
X207772790Y-63213280D01*
X207751747Y-63200668D01*
X207732041Y-63186053D01*
X207713863Y-63169577D01*
X207697387Y-63151399D01*
X207682772Y-63131693D01*
X207670160Y-63110650D01*
X207659670Y-63088471D01*
X207651405Y-63065372D01*
X207645444Y-63041573D01*
X207641844Y-63017305D01*
X207640640Y-62992801D01*
X207640640Y-60142799D01*
X207641844Y-60118295D01*
X207645444Y-60094027D01*
X207651405Y-60070228D01*
X207659670Y-60047129D01*
X207670160Y-60024950D01*
X207682772Y-60003907D01*
X207697387Y-59984201D01*
X207713863Y-59966023D01*
X207732041Y-59949547D01*
X207751747Y-59934932D01*
X207772790Y-59922320D01*
X207794969Y-59911830D01*
X207818068Y-59903565D01*
X207841867Y-59897604D01*
X207866135Y-59894004D01*
X207890639Y-59892800D01*
X208740641Y-59892800D01*
X208765145Y-59894004D01*
X208765145Y-59894004D01*
G37*
D21*
X208315640Y-61567800D03*
D13*
G36*
X202965145Y-59894004D02*
X202989413Y-59897604D01*
X203013212Y-59903565D01*
X203036311Y-59911830D01*
X203058490Y-59922320D01*
X203079533Y-59934932D01*
X203099239Y-59949547D01*
X203117417Y-59966023D01*
X203133893Y-59984201D01*
X203148508Y-60003907D01*
X203161120Y-60024950D01*
X203171610Y-60047129D01*
X203179875Y-60070228D01*
X203185836Y-60094027D01*
X203189436Y-60118295D01*
X203190640Y-60142799D01*
X203190640Y-62992801D01*
X203189436Y-63017305D01*
X203185836Y-63041573D01*
X203179875Y-63065372D01*
X203171610Y-63088471D01*
X203161120Y-63110650D01*
X203148508Y-63131693D01*
X203133893Y-63151399D01*
X203117417Y-63169577D01*
X203099239Y-63186053D01*
X203079533Y-63200668D01*
X203058490Y-63213280D01*
X203036311Y-63223770D01*
X203013212Y-63232035D01*
X202989413Y-63237996D01*
X202965145Y-63241596D01*
X202940641Y-63242800D01*
X202090639Y-63242800D01*
X202066135Y-63241596D01*
X202041867Y-63237996D01*
X202018068Y-63232035D01*
X201994969Y-63223770D01*
X201972790Y-63213280D01*
X201951747Y-63200668D01*
X201932041Y-63186053D01*
X201913863Y-63169577D01*
X201897387Y-63151399D01*
X201882772Y-63131693D01*
X201870160Y-63110650D01*
X201859670Y-63088471D01*
X201851405Y-63065372D01*
X201845444Y-63041573D01*
X201841844Y-63017305D01*
X201840640Y-62992801D01*
X201840640Y-60142799D01*
X201841844Y-60118295D01*
X201845444Y-60094027D01*
X201851405Y-60070228D01*
X201859670Y-60047129D01*
X201870160Y-60024950D01*
X201882772Y-60003907D01*
X201897387Y-59984201D01*
X201913863Y-59966023D01*
X201932041Y-59949547D01*
X201951747Y-59934932D01*
X201972790Y-59922320D01*
X201994969Y-59911830D01*
X202018068Y-59903565D01*
X202041867Y-59897604D01*
X202066135Y-59894004D01*
X202090639Y-59892800D01*
X202940641Y-59892800D01*
X202965145Y-59894004D01*
X202965145Y-59894004D01*
G37*
D21*
X202515640Y-61567800D03*
G04 #@! TD*
D13*
G04 #@! TO.C,2816*
G36*
X209215143Y-69456404D02*
X209239412Y-69460004D01*
X209263210Y-69465965D01*
X209286310Y-69474230D01*
X209308489Y-69484720D01*
X209329532Y-69497333D01*
X209349238Y-69511948D01*
X209367416Y-69528424D01*
X209383892Y-69546602D01*
X209398507Y-69566308D01*
X209411120Y-69587351D01*
X209421610Y-69609530D01*
X209429875Y-69632630D01*
X209435836Y-69656428D01*
X209439436Y-69680697D01*
X209440640Y-69705201D01*
X209440640Y-73655199D01*
X209439436Y-73679703D01*
X209435836Y-73703972D01*
X209429875Y-73727770D01*
X209421610Y-73750870D01*
X209411120Y-73773049D01*
X209398507Y-73794092D01*
X209383892Y-73813798D01*
X209367416Y-73831976D01*
X209349238Y-73848452D01*
X209329532Y-73863067D01*
X209308489Y-73875680D01*
X209286310Y-73886170D01*
X209263210Y-73894435D01*
X209239412Y-73900396D01*
X209215143Y-73903996D01*
X209190639Y-73905200D01*
X206665641Y-73905200D01*
X206641137Y-73903996D01*
X206616868Y-73900396D01*
X206593070Y-73894435D01*
X206569970Y-73886170D01*
X206547791Y-73875680D01*
X206526748Y-73863067D01*
X206507042Y-73848452D01*
X206488864Y-73831976D01*
X206472388Y-73813798D01*
X206457773Y-73794092D01*
X206445160Y-73773049D01*
X206434670Y-73750870D01*
X206426405Y-73727770D01*
X206420444Y-73703972D01*
X206416844Y-73679703D01*
X206415640Y-73655199D01*
X206415640Y-69705201D01*
X206416844Y-69680697D01*
X206420444Y-69656428D01*
X206426405Y-69632630D01*
X206434670Y-69609530D01*
X206445160Y-69587351D01*
X206457773Y-69566308D01*
X206472388Y-69546602D01*
X206488864Y-69528424D01*
X206507042Y-69511948D01*
X206526748Y-69497333D01*
X206547791Y-69484720D01*
X206569970Y-69474230D01*
X206593070Y-69465965D01*
X206616868Y-69460004D01*
X206641137Y-69456404D01*
X206665641Y-69455200D01*
X209190639Y-69455200D01*
X209215143Y-69456404D01*
X209215143Y-69456404D01*
G37*
D28*
X207928140Y-71680200D03*
D13*
G36*
X204190143Y-69456404D02*
X204214412Y-69460004D01*
X204238210Y-69465965D01*
X204261310Y-69474230D01*
X204283489Y-69484720D01*
X204304532Y-69497333D01*
X204324238Y-69511948D01*
X204342416Y-69528424D01*
X204358892Y-69546602D01*
X204373507Y-69566308D01*
X204386120Y-69587351D01*
X204396610Y-69609530D01*
X204404875Y-69632630D01*
X204410836Y-69656428D01*
X204414436Y-69680697D01*
X204415640Y-69705201D01*
X204415640Y-73655199D01*
X204414436Y-73679703D01*
X204410836Y-73703972D01*
X204404875Y-73727770D01*
X204396610Y-73750870D01*
X204386120Y-73773049D01*
X204373507Y-73794092D01*
X204358892Y-73813798D01*
X204342416Y-73831976D01*
X204324238Y-73848452D01*
X204304532Y-73863067D01*
X204283489Y-73875680D01*
X204261310Y-73886170D01*
X204238210Y-73894435D01*
X204214412Y-73900396D01*
X204190143Y-73903996D01*
X204165639Y-73905200D01*
X201640641Y-73905200D01*
X201616137Y-73903996D01*
X201591868Y-73900396D01*
X201568070Y-73894435D01*
X201544970Y-73886170D01*
X201522791Y-73875680D01*
X201501748Y-73863067D01*
X201482042Y-73848452D01*
X201463864Y-73831976D01*
X201447388Y-73813798D01*
X201432773Y-73794092D01*
X201420160Y-73773049D01*
X201409670Y-73750870D01*
X201401405Y-73727770D01*
X201395444Y-73703972D01*
X201391844Y-73679703D01*
X201390640Y-73655199D01*
X201390640Y-69705201D01*
X201391844Y-69680697D01*
X201395444Y-69656428D01*
X201401405Y-69632630D01*
X201409670Y-69609530D01*
X201420160Y-69587351D01*
X201432773Y-69566308D01*
X201447388Y-69546602D01*
X201463864Y-69528424D01*
X201482042Y-69511948D01*
X201501748Y-69497333D01*
X201522791Y-69484720D01*
X201544970Y-69474230D01*
X201568070Y-69465965D01*
X201591868Y-69460004D01*
X201616137Y-69456404D01*
X201640641Y-69455200D01*
X204165639Y-69455200D01*
X204190143Y-69456404D01*
X204190143Y-69456404D01*
G37*
D28*
X202903140Y-71680200D03*
G04 #@! TD*
M02*
