%FSLAX45Y45*%
G04 Gerber Fmt 4.5, Leading zero omitted, Abs format (unit mm)*
G04 Created by KiCad (PCBNEW 5.0.2-bee76a0~70~ubuntu18.04.1) date 2019年01月05日 星期六 21时07分04秒*
%MOMM*%
%LPD*%
G01*
G04 APERTURE LIST*
%ADD10C,0.200000*%
%ADD11C,0.300000*%
G04 APERTURE END LIST*
D10*
X8640000Y-7420000D02*
G75*
G02X8540000Y-7420000I-50000J0D01*
G01*
X16540000Y-7420000D02*
G75*
G02X16440000Y-7420000I-50000J0D01*
G01*
X12690000Y-7470000D02*
G75*
G02X12690000Y-7370000I0J50000D01*
G01*
X15815000Y-7370000D02*
G75*
G02X15815000Y-7470000I0J-50000D01*
G01*
X12690000Y-7370000D02*
X15815000Y-7370000D01*
X15815000Y-7470000D02*
X12690000Y-7470000D01*
X8640000Y-7420000D02*
G75*
G02X16440000Y-7420000I3900000J0D01*
G01*
X8540000Y-7420000D02*
G75*
G02X16540000Y-7420000I4000000J0D01*
G01*
X22640000Y-2570000D02*
X2440000Y-2570000D01*
X22640000Y-7670000D02*
X22640000Y-2570000D01*
X2440000Y-7670000D02*
X22640000Y-7670000D01*
X2440000Y-2570000D02*
X2440000Y-7670000D01*
D10*
X12490000Y-7370000D02*
X12590000Y-7470000D01*
X12590000Y-7370000D02*
X12490000Y-7470000D01*
D11*
X2716428Y-8145714D02*
X2716428Y-7845714D01*
X2787857Y-7845714D01*
X2830714Y-7860000D01*
X2859286Y-7888571D01*
X2873571Y-7917143D01*
X2887857Y-7974286D01*
X2887857Y-8017143D01*
X2873571Y-8074286D01*
X2859286Y-8102857D01*
X2830714Y-8131429D01*
X2787857Y-8145714D01*
X2716428Y-8145714D01*
X3016428Y-8145714D02*
X3016428Y-7945714D01*
X3016428Y-8002857D02*
X3030714Y-7974286D01*
X3045000Y-7960000D01*
X3073571Y-7945714D01*
X3102143Y-7945714D01*
X3202143Y-8145714D02*
X3202143Y-7945714D01*
X3202143Y-7845714D02*
X3187857Y-7860000D01*
X3202143Y-7874286D01*
X3216428Y-7860000D01*
X3202143Y-7845714D01*
X3202143Y-7874286D01*
X3387857Y-8145714D02*
X3359286Y-8131429D01*
X3345000Y-8102857D01*
X3345000Y-7845714D01*
X3545000Y-8145714D02*
X3516428Y-8131429D01*
X3502143Y-8102857D01*
X3502143Y-7845714D01*
X3887857Y-8145714D02*
X3887857Y-7845714D01*
X3987857Y-8060000D01*
X4087857Y-7845714D01*
X4087857Y-8145714D01*
X4359286Y-8145714D02*
X4359286Y-7988571D01*
X4345000Y-7960000D01*
X4316428Y-7945714D01*
X4259286Y-7945714D01*
X4230714Y-7960000D01*
X4359286Y-8131429D02*
X4330714Y-8145714D01*
X4259286Y-8145714D01*
X4230714Y-8131429D01*
X4216428Y-8102857D01*
X4216428Y-8074286D01*
X4230714Y-8045714D01*
X4259286Y-8031429D01*
X4330714Y-8031429D01*
X4359286Y-8017143D01*
X4502143Y-7945714D02*
X4502143Y-8245714D01*
X4502143Y-7960000D02*
X4530714Y-7945714D01*
X4587857Y-7945714D01*
X4616428Y-7960000D01*
X4630714Y-7974286D01*
X4645000Y-8002857D01*
X4645000Y-8088571D01*
X4630714Y-8117143D01*
X4616428Y-8131429D01*
X4587857Y-8145714D01*
X4530714Y-8145714D01*
X4502143Y-8131429D01*
X4773571Y-8117143D02*
X4787857Y-8131429D01*
X4773571Y-8145714D01*
X4759286Y-8131429D01*
X4773571Y-8117143D01*
X4773571Y-8145714D01*
X4773571Y-7960000D02*
X4787857Y-7974286D01*
X4773571Y-7988571D01*
X4759286Y-7974286D01*
X4773571Y-7960000D01*
X4773571Y-7988571D01*
X2330000Y-8590000D02*
X2430000Y-8690000D01*
X2430000Y-8590000D02*
X2330000Y-8690000D01*
X2873571Y-8775714D02*
X2702143Y-8775714D01*
X2787857Y-8775714D02*
X2787857Y-8475714D01*
X2759286Y-8518572D01*
X2730714Y-8547143D01*
X2702143Y-8561429D01*
X3002143Y-8747143D02*
X3016428Y-8761429D01*
X3002143Y-8775714D01*
X2987857Y-8761429D01*
X3002143Y-8747143D01*
X3002143Y-8775714D01*
X3202143Y-8475714D02*
X3230714Y-8475714D01*
X3259286Y-8490000D01*
X3273571Y-8504286D01*
X3287857Y-8532857D01*
X3302143Y-8590000D01*
X3302143Y-8661429D01*
X3287857Y-8718572D01*
X3273571Y-8747143D01*
X3259286Y-8761429D01*
X3230714Y-8775714D01*
X3202143Y-8775714D01*
X3173571Y-8761429D01*
X3159286Y-8747143D01*
X3145000Y-8718572D01*
X3130714Y-8661429D01*
X3130714Y-8590000D01*
X3145000Y-8532857D01*
X3159286Y-8504286D01*
X3173571Y-8490000D01*
X3202143Y-8475714D01*
X3487857Y-8475714D02*
X3516428Y-8475714D01*
X3545000Y-8490000D01*
X3559286Y-8504286D01*
X3573571Y-8532857D01*
X3587857Y-8590000D01*
X3587857Y-8661429D01*
X3573571Y-8718572D01*
X3559286Y-8747143D01*
X3545000Y-8761429D01*
X3516428Y-8775714D01*
X3487857Y-8775714D01*
X3459286Y-8761429D01*
X3445000Y-8747143D01*
X3430714Y-8718572D01*
X3416428Y-8661429D01*
X3416428Y-8590000D01*
X3430714Y-8532857D01*
X3445000Y-8504286D01*
X3459286Y-8490000D01*
X3487857Y-8475714D01*
X3716428Y-8775714D02*
X3716428Y-8575714D01*
X3716428Y-8604286D02*
X3730714Y-8590000D01*
X3759286Y-8575714D01*
X3802143Y-8575714D01*
X3830714Y-8590000D01*
X3845000Y-8618572D01*
X3845000Y-8775714D01*
X3845000Y-8618572D02*
X3859286Y-8590000D01*
X3887857Y-8575714D01*
X3930714Y-8575714D01*
X3959286Y-8590000D01*
X3973571Y-8618572D01*
X3973571Y-8775714D01*
X4116428Y-8775714D02*
X4116428Y-8575714D01*
X4116428Y-8604286D02*
X4130714Y-8590000D01*
X4159286Y-8575714D01*
X4202143Y-8575714D01*
X4230714Y-8590000D01*
X4245000Y-8618572D01*
X4245000Y-8775714D01*
X4245000Y-8618572D02*
X4259286Y-8590000D01*
X4287857Y-8575714D01*
X4330714Y-8575714D01*
X4359286Y-8590000D01*
X4373571Y-8618572D01*
X4373571Y-8775714D01*
X4959286Y-8461429D02*
X4702143Y-8847143D01*
X5345000Y-8475714D02*
X5373571Y-8475714D01*
X5402143Y-8490000D01*
X5416428Y-8504286D01*
X5430714Y-8532857D01*
X5445000Y-8590000D01*
X5445000Y-8661429D01*
X5430714Y-8718572D01*
X5416428Y-8747143D01*
X5402143Y-8761429D01*
X5373571Y-8775714D01*
X5345000Y-8775714D01*
X5316428Y-8761429D01*
X5302143Y-8747143D01*
X5287857Y-8718572D01*
X5273571Y-8661429D01*
X5273571Y-8590000D01*
X5287857Y-8532857D01*
X5302143Y-8504286D01*
X5316428Y-8490000D01*
X5345000Y-8475714D01*
X5573571Y-8747143D02*
X5587857Y-8761429D01*
X5573571Y-8775714D01*
X5559286Y-8761429D01*
X5573571Y-8747143D01*
X5573571Y-8775714D01*
X5773571Y-8475714D02*
X5802143Y-8475714D01*
X5830714Y-8490000D01*
X5845000Y-8504286D01*
X5859286Y-8532857D01*
X5873571Y-8590000D01*
X5873571Y-8661429D01*
X5859286Y-8718572D01*
X5845000Y-8747143D01*
X5830714Y-8761429D01*
X5802143Y-8775714D01*
X5773571Y-8775714D01*
X5745000Y-8761429D01*
X5730714Y-8747143D01*
X5716428Y-8718572D01*
X5702143Y-8661429D01*
X5702143Y-8590000D01*
X5716428Y-8532857D01*
X5730714Y-8504286D01*
X5745000Y-8490000D01*
X5773571Y-8475714D01*
X5973571Y-8475714D02*
X6159286Y-8475714D01*
X6059286Y-8590000D01*
X6102143Y-8590000D01*
X6130714Y-8604286D01*
X6145000Y-8618572D01*
X6159286Y-8647143D01*
X6159286Y-8718572D01*
X6145000Y-8747143D01*
X6130714Y-8761429D01*
X6102143Y-8775714D01*
X6016428Y-8775714D01*
X5987857Y-8761429D01*
X5973571Y-8747143D01*
X6302143Y-8775714D02*
X6359286Y-8775714D01*
X6387857Y-8761429D01*
X6402143Y-8747143D01*
X6430714Y-8704286D01*
X6445000Y-8647143D01*
X6445000Y-8532857D01*
X6430714Y-8504286D01*
X6416428Y-8490000D01*
X6387857Y-8475714D01*
X6330714Y-8475714D01*
X6302143Y-8490000D01*
X6287857Y-8504286D01*
X6273571Y-8532857D01*
X6273571Y-8604286D01*
X6287857Y-8632857D01*
X6302143Y-8647143D01*
X6330714Y-8661429D01*
X6387857Y-8661429D01*
X6416428Y-8647143D01*
X6430714Y-8632857D01*
X6445000Y-8604286D01*
X6559286Y-8475714D02*
X6559286Y-8532857D01*
X6673571Y-8475714D02*
X6673571Y-8532857D01*
X7116428Y-8890000D02*
X7102143Y-8875714D01*
X7073571Y-8832857D01*
X7059286Y-8804286D01*
X7045000Y-8761429D01*
X7030714Y-8690000D01*
X7030714Y-8632857D01*
X7045000Y-8561429D01*
X7059286Y-8518572D01*
X7073571Y-8490000D01*
X7102143Y-8447143D01*
X7116428Y-8432857D01*
X7387857Y-8775714D02*
X7216428Y-8775714D01*
X7302143Y-8775714D02*
X7302143Y-8475714D01*
X7273571Y-8518572D01*
X7245000Y-8547143D01*
X7216428Y-8561429D01*
X7745000Y-8775714D02*
X7745000Y-8475714D01*
X7873571Y-8775714D02*
X7873571Y-8618572D01*
X7859286Y-8590000D01*
X7830714Y-8575714D01*
X7787857Y-8575714D01*
X7759286Y-8590000D01*
X7745000Y-8604286D01*
X8059286Y-8775714D02*
X8030714Y-8761429D01*
X8016428Y-8747143D01*
X8002143Y-8718572D01*
X8002143Y-8632857D01*
X8016428Y-8604286D01*
X8030714Y-8590000D01*
X8059286Y-8575714D01*
X8102143Y-8575714D01*
X8130714Y-8590000D01*
X8145000Y-8604286D01*
X8159286Y-8632857D01*
X8159286Y-8718572D01*
X8145000Y-8747143D01*
X8130714Y-8761429D01*
X8102143Y-8775714D01*
X8059286Y-8775714D01*
X8330714Y-8775714D02*
X8302143Y-8761429D01*
X8287857Y-8732857D01*
X8287857Y-8475714D01*
X8559286Y-8761429D02*
X8530714Y-8775714D01*
X8473571Y-8775714D01*
X8445000Y-8761429D01*
X8430714Y-8732857D01*
X8430714Y-8618572D01*
X8445000Y-8590000D01*
X8473571Y-8575714D01*
X8530714Y-8575714D01*
X8559286Y-8590000D01*
X8573571Y-8618572D01*
X8573571Y-8647143D01*
X8430714Y-8675714D01*
X8673571Y-8890000D02*
X8687857Y-8875714D01*
X8716428Y-8832857D01*
X8730714Y-8804286D01*
X8745000Y-8761429D01*
X8759286Y-8690000D01*
X8759286Y-8632857D01*
X8745000Y-8561429D01*
X8730714Y-8518572D01*
X8716428Y-8490000D01*
X8687857Y-8447143D01*
X8673571Y-8432857D01*
M02*
